# MagicaVoxel @ Ephtracy

# group
o 

# material
mtllib 3.mtl
usemtl palette

# normals
vn -1 0 0
vn 1 0 0
vn 0 0 1
vn 0 0 -1
vn 0 -1 0
vn 0 1 0

# texcoords
vt 0.0605469 0.5
vt 0.537109 0.5
vt 0.916016 0.5
vt 0.970703 0.5
vt 0.986328 0.5

# verts
v 0.7 2.1 -0.8
v 0.7 2.1 -1.1
v 0.7 2.2 -0.7
v 0.7 2.2 -0.8
v 0.7 2.2 -1.1
v 0.7 2.2 -1.2
v 0.7 2.3 -0.7
v 0.7 2.3 -0.8
v 0.7 2.3 -0.9
v 0.7 2.3 -1
v 0.7 2.3 -1.1
v 0.7 2.3 -1.2
v 0.7 2.4 -0.8
v 0.7 2.4 -0.9
v 0.7 2.4 -1
v 0.7 2.4 -1.1
v 0.7 2.7 -0.9
v 0.7 2.7 -1
v 0.7 2.9 -0.7
v 0.7 2.9 -1.2
v 0.7 3 -0.7
v 0.7 3 -1.2
v 0.8 2 -0.9
v 0.8 2 -1
v 0.8 2.1 -0.9
v 0.8 2.1 -1
v 0.8 2.2 -0.9
v 0.8 2.2 -1
v 0.8 2.3 -0.9
v 0.8 2.3 -1
v 0.8 2.4 -0.8
v 0.8 2.4 -0.9
v 0.8 2.4 -1
v 0.8 2.4 -1.1
v 0.8 2.5 -0.8
v 0.8 2.5 -0.9
v 0.8 2.5 -1
v 0.8 2.5 -1.1
v 0.8 2.7 -0.8
v 0.8 2.7 -0.9
v 0.8 2.7 -1
v 0.8 2.7 -1.1
v 0.8 2.8 -0.8
v 0.8 2.8 -0.9
v 0.8 2.9 -0.8
v 0.8 2.9 -0.9
v 0.8 2.9 -1.1
v 0.8 3 -0.8
v 0.8 3 -1.1
v 0.8 3.1 -0.8
v 0.8 3.1 -1.1
v 0.9 2.3 -1.1
v 0.9 2.3 -1.2
v 0.9 2.4 -1.1
v 0.9 2.5 -1.1
v 0.9 2.7 -1.1
v 0.9 2.7 -1.2
v 1 2 -0.8
v 1 2 -0.9
v 1 2.3 -0.8
v 1 2.3 -0.9
v 1.1 2.4 -0.7
v 1.1 2.4 -0.8
v 1.1 2.5 -0.7
v 1.1 2.5 -0.8
v 0.8 2.1 -0.8
v 0.8 2.1 -0.9
v 0.8 2.1 -1
v 0.8 2.1 -1.1
v 0.8 2.2 -0.7
v 0.8 2.2 -0.8
v 0.8 2.2 -0.9
v 0.8 2.2 -1
v 0.8 2.2 -1.1
v 0.8 2.2 -1.2
v 0.8 2.3 -0.7
v 0.8 2.3 -0.8
v 0.8 2.3 -1.1
v 0.8 2.3 -1.2
v 0.9 2 -0.9
v 0.9 2 -1
v 0.9 2.3 -0.9
v 0.9 2.3 -1
v 1.1 2 -0.8
v 1.1 2 -0.9
v 1.1 2.3 -0.9
v 1.1 2.3 -1.1
v 1.1 2.3 -1.2
v 1.1 2.4 -0.8
v 1.1 2.4 -0.9
v 1.1 2.5 -0.8
v 1.1 2.5 -0.9
v 1.1 2.5 -1
v 1.1 2.6 -0.8
v 1.1 2.6 -0.9
v 1.1 2.6 -1
v 1.1 2.6 -1.1
v 1.1 2.7 -0.8
v 1.1 2.7 -0.9
v 1.1 2.7 -1
v 1.1 2.7 -1.1
v 1.1 2.7 -1.2
v 1.1 2.8 -0.8
v 1.1 2.8 -0.9
v 1.1 2.9 -0.8
v 1.1 2.9 -0.9
v 1.1 2.9 -1.1
v 1.1 3 -0.8
v 1.1 3 -1.1
v 1.1 3.1 -0.8
v 1.1 3.1 -1.1
v 1.2 2.4 -0.7
v 1.2 2.4 -0.9
v 1.2 2.5 -0.7
v 1.2 2.5 -0.9
v 1.2 2.5 -1
v 1.2 2.7 -0.9
v 1.2 2.7 -1
v 1.2 2.9 -0.7
v 1.2 2.9 -1.2
v 1.2 3 -0.7
v 1.2 3 -1.2
v 0.7 2.2 -0.7
v 0.7 2.3 -0.7
v 0.7 2.9 -0.7
v 0.7 3 -0.7
v 0.8 2.2 -0.7
v 0.8 2.3 -0.7
v 1.1 2.4 -0.7
v 1.1 2.5 -0.7
v 1.2 2.4 -0.7
v 1.2 2.5 -0.7
v 1.2 2.9 -0.7
v 1.2 3 -0.7
v 0.7 2.1 -0.8
v 0.7 2.2 -0.8
v 0.7 2.3 -0.8
v 0.7 2.4 -0.8
v 0.8 2.1 -0.8
v 0.8 2.2 -0.8
v 0.8 2.3 -0.8
v 0.8 2.4 -0.8
v 0.8 2.5 -0.8
v 0.8 2.7 -0.8
v 0.8 2.8 -0.8
v 0.8 2.9 -0.8
v 0.8 3 -0.8
v 0.8 3.1 -0.8
v 0.9 2.4 -0.8
v 0.9 2.5 -0.8
v 0.9 2.6 -0.8
v 0.9 2.8 -0.8
v 0.9 2.9 -0.8
v 1 2 -0.8
v 1 2.3 -0.8
v 1 2.5 -0.8
v 1 2.6 -0.8
v 1 2.7 -0.8
v 1 2.8 -0.8
v 1 2.9 -0.8
v 1.1 2 -0.8
v 1.1 2.4 -0.8
v 1.1 2.5 -0.8
v 1.1 2.6 -0.8
v 1.1 2.7 -0.8
v 1.1 2.8 -0.8
v 1.1 2.9 -0.8
v 1.1 3 -0.8
v 1.1 3.1 -0.8
v 0.7 2.4 -0.9
v 0.7 2.7 -0.9
v 0.8 2 -0.9
v 0.8 2.1 -0.9
v 0.8 2.2 -0.9
v 0.8 2.3 -0.9
v 0.8 2.4 -0.9
v 0.8 2.5 -0.9
v 0.8 2.7 -0.9
v 0.9 2 -0.9
v 0.9 2.3 -0.9
v 1.1 2.5 -0.9
v 1.1 2.6 -0.9
v 1.1 2.7 -0.9
v 1.2 2.5 -0.9
v 1.2 2.7 -0.9
v 0.7 2.2 -1.1
v 0.7 2.3 -1.1
v 0.8 2.2 -1.1
v 0.8 2.3 -1.1
v 0.7 2.2 -0.8
v 0.7 2.3 -0.8
v 0.8 2.2 -0.8
v 0.8 2.3 -0.8
v 1 2 -0.9
v 1 2.3 -0.9
v 1.1 2 -0.9
v 1.1 2.3 -0.9
v 1.1 2.4 -0.9
v 1.1 2.5 -0.9
v 1.2 2.4 -0.9
v 1.2 2.5 -0.9
v 0.7 2.4 -1
v 0.7 2.7 -1
v 0.8 2 -1
v 0.8 2.1 -1
v 0.8 2.2 -1
v 0.8 2.3 -1
v 0.8 2.4 -1
v 0.8 2.5 -1
v 0.8 2.7 -1
v 0.9 2 -1
v 0.9 2.3 -1
v 1.1 2.5 -1
v 1.1 2.6 -1
v 1.1 2.7 -1
v 1.2 2.5 -1
v 1.2 2.7 -1
v 0.7 2.1 -1.1
v 0.7 2.2 -1.1
v 0.7 2.3 -1.1
v 0.7 2.4 -1.1
v 0.8 2.1 -1.1
v 0.8 2.2 -1.1
v 0.8 2.3 -1.1
v 0.8 2.4 -1.1
v 0.8 2.5 -1.1
v 0.8 2.7 -1.1
v 0.8 2.9 -1.1
v 0.8 3 -1.1
v 0.8 3.1 -1.1
v 0.9 2.3 -1.1
v 0.9 2.4 -1.1
v 0.9 2.5 -1.1
v 0.9 2.7 -1.1
v 1.1 2.7 -1.1
v 1.1 2.9 -1.1
v 1.1 3 -1.1
v 1.1 3.1 -1.1
v 0.7 2.2 -1.2
v 0.7 2.3 -1.2
v 0.7 2.9 -1.2
v 0.7 3 -1.2
v 0.8 2.2 -1.2
v 0.8 2.3 -1.2
v 0.9 2.3 -1.2
v 0.9 2.7 -1.2
v 1.1 2.3 -1.2
v 1.1 2.7 -1.2
v 1.2 2.9 -1.2
v 1.2 3 -1.2
v 1 2 -0.8
v 1.1 2 -0.8
v 0.8 2 -0.9
v 0.9 2 -0.9
v 1 2 -0.9
v 1.1 2 -0.9
v 0.8 2 -1
v 0.9 2 -1
v 0.7 2.1 -0.8
v 0.8 2.1 -0.8
v 0.8 2.1 -0.9
v 0.8 2.1 -1
v 0.7 2.1 -1.1
v 0.8 2.1 -1.1
v 0.7 2.2 -0.7
v 0.8 2.2 -0.7
v 0.7 2.2 -0.8
v 0.8 2.2 -0.8
v 0.7 2.2 -1.1
v 0.8 2.2 -1.1
v 0.7 2.2 -1.2
v 0.8 2.2 -1.2
v 0.7 2.3 -0.8
v 0.8 2.3 -0.8
v 1 2.3 -0.8
v 0.7 2.3 -0.9
v 0.8 2.3 -0.9
v 0.9 2.3 -0.9
v 1 2.3 -0.9
v 1.1 2.3 -0.9
v 0.7 2.3 -1
v 0.8 2.3 -1
v 0.9 2.3 -1
v 0.7 2.3 -1.1
v 0.8 2.3 -1.1
v 0.9 2.3 -1.1
v 1.1 2.3 -1.1
v 0.9 2.3 -1.2
v 1.1 2.3 -1.2
v 1.1 2.4 -0.7
v 1.2 2.4 -0.7
v 1.1 2.4 -0.8
v 1.1 2.4 -0.9
v 1.2 2.4 -0.9
v 1.1 2.5 -0.9
v 1.2 2.5 -0.9
v 1.1 2.5 -1
v 1.2 2.5 -1
v 0.7 2.9 -0.7
v 1.2 2.9 -0.7
v 0.8 2.9 -0.8
v 0.9 2.9 -0.8
v 1 2.9 -0.8
v 1.1 2.9 -0.8
v 0.8 2.9 -0.9
v 1.1 2.9 -0.9
v 0.8 2.9 -1.1
v 1.1 2.9 -1.1
v 0.7 2.9 -1.2
v 1.2 2.9 -1.2
v 0.7 2.2 -0.8
v 0.8 2.2 -0.8
v 0.8 2.2 -0.9
v 0.8 2.2 -1
v 0.7 2.2 -1.1
v 0.8 2.2 -1.1
v 0.7 2.3 -0.7
v 0.8 2.3 -0.7
v 0.7 2.3 -0.8
v 0.8 2.3 -0.8
v 0.7 2.3 -1.1
v 0.8 2.3 -1.1
v 0.7 2.3 -1.2
v 0.8 2.3 -1.2
v 0.7 2.4 -0.8
v 0.8 2.4 -0.8
v 0.7 2.4 -0.9
v 0.8 2.4 -0.9
v 0.7 2.4 -1
v 0.8 2.4 -1
v 0.7 2.4 -1.1
v 0.8 2.4 -1.1
v 1.1 2.5 -0.7
v 1.2 2.5 -0.7
v 1.1 2.5 -0.8
v 1.1 2.5 -0.9
v 1.2 2.5 -0.9
v 0.7 2.7 -0.9
v 0.8 2.7 -0.9
v 1.1 2.7 -0.9
v 1.2 2.7 -0.9
v 0.7 2.7 -1
v 0.8 2.7 -1
v 1.1 2.7 -1
v 1.2 2.7 -1
v 0.9 2.7 -1.1
v 1.1 2.7 -1.1
v 0.9 2.7 -1.2
v 1.1 2.7 -1.2
v 0.7 3 -0.7
v 1.2 3 -0.7
v 0.8 3 -0.8
v 1.1 3 -0.8
v 0.8 3 -1.1
v 1.1 3 -1.1
v 0.7 3 -1.2
v 1.2 3 -1.2
v 0.8 3.1 -0.8
v 1.1 3.1 -0.8
v 0.8 3.1 -1.1
v 1.1 3.1 -1.1

# faces
f 4/2/1 2/2/1 1/2/1
f 5/2/1 2/2/1 4/2/1
f 7/2/1 4/2/1 3/2/1
f 8/2/1 4/2/1 7/2/1
f 11/2/1 6/2/1 5/2/1
f 12/2/1 6/2/1 11/2/1
f 13/4/1 9/4/1 8/4/1
f 14/3/1 10/3/1 9/3/1
f 14/4/1 9/4/1 13/4/1
f 15/4/1 11/4/1 10/4/1
f 15/3/1 10/3/1 14/3/1
f 16/4/1 11/4/1 15/4/1
f 17/3/1 15/3/1 14/3/1
f 18/3/1 15/3/1 17/3/1
f 21/3/1 20/3/1 19/3/1
f 22/3/1 20/3/1 21/3/1
f 25/3/1 24/3/1 23/3/1
f 26/3/1 24/3/1 25/3/1
f 29/3/1 28/3/1 27/3/1
f 30/3/1 28/3/1 29/3/1
f 35/5/1 32/5/1 31/5/1
f 36/5/1 32/5/1 35/5/1
f 37/5/1 34/5/1 33/5/1
f 38/5/1 34/5/1 37/5/1
f 39/3/1 36/3/1 35/3/1
f 40/3/1 36/3/1 39/3/1
f 41/3/1 38/3/1 37/3/1
f 42/3/1 38/3/1 41/3/1
f 43/1/1 40/1/1 39/1/1
f 43/1/1 41/1/1 40/1/1
f 43/1/1 42/1/1 41/1/1
f 44/1/1 42/1/1 43/1/1
f 45/3/1 44/3/1 43/3/1
f 46/1/1 42/1/1 44/1/1
f 46/3/1 44/3/1 45/3/1
f 47/1/1 42/1/1 46/1/1
f 50/5/1 49/5/1 48/5/1
f 51/5/1 49/5/1 50/5/1
f 54/2/1 53/2/1 52/2/1
f 55/2/1 53/2/1 54/2/1
f 56/2/1 53/2/1 55/2/1
f 57/2/1 53/2/1 56/2/1
f 60/3/1 59/3/1 58/3/1
f 61/3/1 59/3/1 60/3/1
f 64/3/1 63/3/1 62/3/1
f 65/3/1 63/3/1 64/3/1
f 66/2/2 67/2/2 71/2/2
f 71/2/2 67/2/2 72/2/2
f 68/2/2 69/2/2 73/2/2
f 73/2/2 69/2/2 74/2/2
f 70/2/2 71/2/2 76/2/2
f 76/2/2 71/2/2 77/2/2
f 74/2/2 75/2/2 78/2/2
f 78/2/2 75/2/2 79/2/2
f 80/3/2 81/3/2 82/3/2
f 82/3/2 81/3/2 83/3/2
f 84/3/2 85/3/2 86/3/2
f 84/3/2 86/3/2 89/3/2
f 86/3/2 87/3/2 89/3/2
f 89/3/2 87/3/2 90/3/2
f 90/3/2 87/3/2 92/3/2
f 92/3/2 87/3/2 93/3/2
f 91/3/2 92/3/2 94/3/2
f 94/3/2 92/3/2 95/3/2
f 93/3/2 87/3/2 96/3/2
f 87/2/2 88/2/2 97/2/2
f 96/3/2 87/3/2 97/3/2
f 94/5/2 95/5/2 98/5/2
f 98/5/2 95/5/2 99/5/2
f 96/5/2 97/5/2 100/5/2
f 97/2/2 88/2/2 101/2/2
f 100/5/2 97/5/2 101/5/2
f 101/2/2 88/2/2 102/2/2
f 99/1/2 100/1/2 103/1/2
f 98/1/2 99/1/2 103/1/2
f 100/1/2 101/1/2 103/1/2
f 103/1/2 101/1/2 104/1/2
f 103/3/2 104/3/2 105/3/2
f 104/1/2 101/1/2 106/1/2
f 105/3/2 104/3/2 106/3/2
f 106/1/2 101/1/2 107/1/2
f 108/5/2 109/5/2 110/5/2
f 110/5/2 109/5/2 111/5/2
f 112/3/2 113/3/2 114/3/2
f 114/3/2 113/3/2 115/3/2
f 115/3/2 116/3/2 117/3/2
f 117/3/2 116/3/2 118/3/2
f 119/3/2 120/3/2 121/3/2
f 121/3/2 120/3/2 122/3/2
f 127/2/3 124/2/3 123/2/3
f 128/2/3 124/2/3 127/2/3
f 131/3/3 130/3/3 129/3/3
f 132/3/3 130/3/3 131/3/3
f 133/3/3 126/3/3 125/3/3
f 134/3/3 126/3/3 133/3/3
f 139/2/3 136/2/3 135/2/3
f 140/2/3 136/2/3 139/2/3
f 141/4/3 138/4/3 137/4/3
f 142/4/3 138/4/3 141/4/3
f 149/3/3 142/3/3 141/3/3
f 149/5/3 143/5/3 142/5/3
f 150/3/3 144/3/3 143/3/3
f 150/5/3 143/5/3 149/5/3
f 151/3/3 144/3/3 150/3/3
f 152/3/3 146/3/3 145/3/3
f 152/1/3 145/1/3 144/1/3
f 153/3/3 146/3/3 152/3/3
f 155/3/3 149/3/3 141/3/3
f 155/3/3 150/3/3 149/3/3
f 156/5/3 151/5/3 150/5/3
f 156/3/3 150/3/3 155/3/3
f 157/3/3 144/3/3 151/3/3
f 157/5/3 151/5/3 156/5/3
f 158/1/3 153/1/3 152/1/3
f 158/3/3 144/3/3 157/3/3
f 158/1/3 152/1/3 144/1/3
f 159/1/3 153/1/3 158/1/3
f 160/1/3 153/1/3 159/1/3
f 161/3/3 156/3/3 155/3/3
f 161/3/3 155/3/3 154/3/3
f 161/3/3 157/3/3 156/3/3
f 162/3/3 157/3/3 161/3/3
f 163/3/3 157/3/3 162/3/3
f 164/5/3 158/5/3 157/5/3
f 164/3/3 157/3/3 163/3/3
f 165/1/3 159/1/3 158/1/3
f 165/5/3 158/5/3 164/5/3
f 166/3/3 160/3/3 159/3/3
f 166/1/3 159/1/3 165/1/3
f 167/3/3 160/3/3 166/3/3
f 168/5/3 148/5/3 147/5/3
f 169/5/3 148/5/3 168/5/3
f 176/3/3 171/3/3 170/3/3
f 177/3/3 171/3/3 176/3/3
f 178/3/3 171/3/3 177/3/3
f 179/3/3 175/3/3 174/3/3
f 179/3/3 173/3/3 172/3/3
f 179/3/3 174/3/3 173/3/3
f 180/3/3 175/3/3 179/3/3
f 184/3/3 182/3/3 181/3/3
f 184/3/3 183/3/3 182/3/3
f 185/3/3 183/3/3 184/3/3
f 188/2/3 187/2/3 186/2/3
f 189/2/3 187/2/3 188/2/3
f 190/2/4 191/2/4 192/2/4
f 192/2/4 191/2/4 193/2/4
f 194/3/4 195/3/4 196/3/4
f 196/3/4 195/3/4 197/3/4
f 198/3/4 199/3/4 200/3/4
f 200/3/4 199/3/4 201/3/4
f 202/3/4 203/3/4 208/3/4
f 208/3/4 203/3/4 209/3/4
f 209/3/4 203/3/4 210/3/4
f 206/3/4 207/3/4 211/3/4
f 204/3/4 205/3/4 211/3/4
f 205/3/4 206/3/4 211/3/4
f 211/3/4 207/3/4 212/3/4
f 213/3/4 214/3/4 216/3/4
f 214/3/4 215/3/4 216/3/4
f 216/3/4 215/3/4 217/3/4
f 218/2/4 219/2/4 222/2/4
f 222/2/4 219/2/4 223/2/4
f 220/4/4 221/4/4 224/4/4
f 224/4/4 221/4/4 225/4/4
f 224/3/4 225/3/4 231/3/4
f 225/5/4 226/5/4 232/5/4
f 231/3/4 225/3/4 232/3/4
f 226/3/4 227/3/4 233/3/4
f 232/5/4 226/5/4 233/5/4
f 227/1/4 228/1/4 234/1/4
f 233/3/4 227/3/4 234/3/4
f 234/1/4 228/1/4 235/1/4
f 235/1/4 228/1/4 236/1/4
f 229/5/4 230/5/4 237/5/4
f 237/5/4 230/5/4 238/5/4
f 239/2/4 240/2/4 243/2/4
f 243/2/4 240/2/4 244/2/4
f 245/2/4 246/2/4 247/2/4
f 247/2/4 246/2/4 248/2/4
f 241/3/4 242/3/4 249/3/4
f 249/3/4 242/3/4 250/3/4
f 255/3/5 252/3/5 251/3/5
f 256/3/5 252/3/5 255/3/5
f 257/3/5 254/3/5 253/3/5
f 258/3/5 254/3/5 257/3/5
f 261/2/5 260/2/5 259/2/5
f 262/2/5 261/2/5 259/2/5
f 263/2/5 262/2/5 259/2/5
f 264/2/5 262/2/5 263/2/5
f 267/2/5 266/2/5 265/2/5
f 268/2/5 266/2/5 267/2/5
f 271/2/5 270/2/5 269/2/5
f 272/2/5 270/2/5 271/2/5
f 276/4/5 274/4/5 273/4/5
f 277/3/5 275/3/5 274/3/5
f 277/4/5 274/4/5 276/4/5
f 278/3/5 275/3/5 277/3/5
f 279/3/5 275/3/5 278/3/5
f 281/3/5 277/3/5 276/3/5
f 282/3/5 277/3/5 281/3/5
f 283/3/5 280/3/5 279/3/5
f 283/3/5 279/3/5 278/3/5
f 284/4/5 282/4/5 281/4/5
f 285/3/5 283/3/5 282/3/5
f 285/4/5 282/4/5 284/4/5
f 286/3/5 280/3/5 283/3/5
f 286/3/5 283/3/5 285/3/5
f 287/3/5 280/3/5 286/3/5
f 288/2/5 287/2/5 286/2/5
f 289/2/5 287/2/5 288/2/5
f 292/3/5 291/3/5 290/3/5
f 293/3/5 291/3/5 292/3/5
f 294/3/5 291/3/5 293/3/5
f 297/3/5 296/3/5 295/3/5
f 298/3/5 296/3/5 297/3/5
f 301/3/5 300/3/5 299/3/5
f 302/3/5 300/3/5 301/3/5
f 303/3/5 300/3/5 302/3/5
f 304/3/5 300/3/5 303/3/5
f 305/3/5 301/3/5 299/3/5
f 306/3/5 300/3/5 304/3/5
f 307/3/5 305/3/5 299/3/5
f 308/3/5 300/3/5 306/3/5
f 309/3/5 307/3/5 299/3/5
f 309/3/5 308/3/5 307/3/5
f 310/3/5 300/3/5 308/3/5
f 310/3/5 308/3/5 309/3/5
f 311/2/6 312/2/6 313/2/6
f 311/2/6 313/2/6 314/2/6
f 311/2/6 314/2/6 315/2/6
f 315/2/6 314/2/6 316/2/6
f 317/2/6 318/2/6 319/2/6
f 319/2/6 318/2/6 320/2/6
f 321/2/6 322/2/6 323/2/6
f 323/2/6 322/2/6 324/2/6
f 325/4/6 326/4/6 327/4/6
f 327/4/6 326/4/6 328/4/6
f 329/4/6 330/4/6 331/4/6
f 331/4/6 330/4/6 332/4/6
f 333/3/6 334/3/6 335/3/6
f 335/3/6 334/3/6 336/3/6
f 336/3/6 334/3/6 337/3/6
f 338/3/6 339/3/6 342/3/6
f 342/3/6 339/3/6 343/3/6
f 340/3/6 341/3/6 344/3/6
f 344/3/6 341/3/6 345/3/6
f 346/2/6 347/2/6 348/2/6
f 348/2/6 347/2/6 349/2/6
f 350/3/6 351/3/6 352/3/6
f 352/3/6 351/3/6 353/3/6
f 350/3/6 352/3/6 354/3/6
f 353/3/6 351/3/6 355/3/6
f 350/3/6 354/3/6 356/3/6
f 354/3/6 355/3/6 356/3/6
f 355/3/6 351/3/6 357/3/6
f 356/3/6 355/3/6 357/3/6
f 358/5/6 359/5/6 360/5/6
f 360/5/6 359/5/6 361/5/6
