# MagicaVoxel @ Ephtracy

# group
o 

# material
mtllib 0.mtl
usemtl palette

# normals
vn -1 0 0
vn 1 0 0
vn 0 0 1
vn 0 0 -1
vn 0 -1 0
vn 0 1 0

# texcoords
vt 0.970703 0.5
vt 0.986328 0.5
vt 0.990234 0.5
vt 0.994141 0.5

# verts
v 0.6 2.6 -0.9
v 0.6 2.6 -1
v 0.6 2.7 -0.9
v 0.6 2.7 -1
v 0.7 2.3 -0.6
v 0.7 2.3 -0.9
v 0.7 2.3 -1
v 0.7 2.4 -0.6
v 0.7 2.4 -0.9
v 0.7 2.4 -1
v 0.7 2.4 -1.1
v 0.7 2.5 -0.9
v 0.7 2.5 -1
v 0.7 2.5 -1.1
v 0.7 2.6 -0.8
v 0.7 2.6 -0.9
v 0.7 2.6 -1
v 0.7 2.6 -1.1
v 0.7 2.7 -0.8
v 0.7 2.7 -0.9
v 0.7 2.7 -1
v 0.7 2.7 -1.1
v 0.8 2.1 -0.8
v 0.8 2.1 -0.9
v 0.8 2.2 -0.9
v 0.8 2.2 -1
v 0.8 2.3 -0.8
v 0.8 2.3 -0.9
v 0.8 2.3 -1
v 0.8 2.3 -1.1
v 0.8 2.4 -0.8
v 0.8 2.4 -0.9
v 0.8 2.4 -1
v 0.8 2.4 -1.1
v 0.8 2.5 -0.8
v 0.8 2.5 -0.9
v 0.8 2.5 -1
v 0.8 2.5 -1.1
v 0.8 2.6 -0.8
v 0.8 2.6 -0.9
v 0.8 2.6 -1
v 0.8 2.6 -1.1
v 0.8 2.7 -0.9
v 0.8 2.7 -1
v 0.8 2.7 -1.1
v 0.8 2.9 -0.8
v 0.8 2.9 -0.9
v 0.8 3 -0.8
v 0.8 3 -1.1
v 0.9 2.8 -0.8
v 0.9 2.8 -0.9
v 0.9 2.9 -0.8
v 0.9 2.9 -0.9
v 1 2 -0.9
v 1 2 -1
v 1 2.3 -0.9
v 1 2.3 -1
v 0.8 2.3 -0.6
v 0.8 2.3 -0.8
v 0.8 2.4 -0.6
v 0.8 2.4 -0.8
v 0.9 2.1 -0.8
v 0.9 2.1 -0.9
v 0.9 2.2 -0.9
v 0.9 2.2 -1
v 0.9 2.3 -0.8
v 0.9 2.3 -1
v 1 2.8 -0.8
v 1 2.8 -0.9
v 1 2.9 -0.8
v 1 2.9 -0.9
v 1.1 2 -0.9
v 1.1 2 -1
v 1.1 2.3 -0.9
v 1.1 2.3 -1
v 1.1 2.3 -1.1
v 1.1 2.4 -0.8
v 1.1 2.4 -0.9
v 1.1 2.4 -1
v 1.1 2.6 -0.8
v 1.1 2.6 -0.9
v 1.1 2.6 -1
v 1.1 2.6 -1.1
v 1.1 2.7 -0.9
v 1.1 2.7 -1
v 1.1 2.7 -1.1
v 1.1 2.9 -0.8
v 1.1 2.9 -0.9
v 1.1 3 -0.8
v 1.1 3 -1.1
v 1.2 2.3 -0.8
v 1.2 2.3 -0.9
v 1.2 2.4 -0.8
v 1.2 2.4 -0.9
v 1.2 2.4 -1
v 1.2 2.6 -0.8
v 1.2 2.6 -0.9
v 1.2 2.6 -1
v 1.2 2.6 -1.1
v 1.2 2.7 -0.8
v 1.2 2.7 -0.9
v 1.2 2.7 -1
v 1.2 2.7 -1.1
v 1.3 2.6 -0.9
v 1.3 2.6 -1
v 1.3 2.7 -0.9
v 1.3 2.7 -1
v 0.7 2.3 -0.6
v 0.7 2.4 -0.6
v 0.8 2.3 -0.6
v 0.8 2.4 -0.6
v 0.7 2.6 -0.8
v 0.7 2.7 -0.8
v 0.8 2.1 -0.8
v 0.8 2.3 -0.8
v 0.8 2.4 -0.8
v 0.8 2.5 -0.8
v 0.8 2.6 -0.8
v 0.8 2.9 -0.8
v 0.8 3 -0.8
v 0.9 2.1 -0.8
v 0.9 2.3 -0.8
v 0.9 2.4 -0.8
v 0.9 2.5 -0.8
v 0.9 2.6 -0.8
v 0.9 2.8 -0.8
v 0.9 2.9 -0.8
v 1 2.5 -0.8
v 1 2.6 -0.8
v 1 2.7 -0.8
v 1 2.8 -0.8
v 1 2.9 -0.8
v 1.1 2.4 -0.8
v 1.1 2.6 -0.8
v 1.1 2.7 -0.8
v 1.1 2.9 -0.8
v 1.1 3 -0.8
v 1.2 2.3 -0.8
v 1.2 2.4 -0.8
v 1.2 2.6 -0.8
v 1.2 2.7 -0.8
v 0.6 2.6 -0.9
v 0.6 2.7 -0.9
v 0.7 2.5 -0.9
v 0.7 2.6 -0.9
v 0.7 2.7 -0.9
v 0.8 2.5 -0.9
v 0.8 2.6 -0.9
v 0.8 2.7 -0.9
v 0.8 2.9 -0.9
v 0.9 2.8 -0.9
v 0.9 2.9 -0.9
v 1 2 -0.9
v 1 2.3 -0.9
v 1 2.7 -0.9
v 1 2.8 -0.9
v 1 2.9 -0.9
v 1.1 2 -0.9
v 1.1 2.3 -0.9
v 1.1 2.4 -0.9
v 1.1 2.6 -0.9
v 1.1 2.7 -0.9
v 1.1 2.9 -0.9
v 1.2 2.4 -0.9
v 1.2 2.6 -0.9
v 1.2 2.7 -0.9
v 1.3 2.6 -0.9
v 1.3 2.7 -0.9
v 0.7 2.4 -1
v 0.7 2.5 -1
v 0.8 2.4 -1
v 0.8 2.5 -1
v 0.8 2.1 -0.9
v 0.8 2.2 -0.9
v 0.9 2.1 -0.9
v 0.9 2.2 -0.9
v 1.1 2.3 -0.9
v 1.1 2.4 -0.9
v 1.2 2.3 -0.9
v 1.2 2.4 -0.9
v 0.6 2.6 -1
v 0.6 2.7 -1
v 0.7 2.3 -1
v 0.7 2.4 -1
v 0.7 2.5 -1
v 0.7 2.6 -1
v 0.7 2.7 -1
v 0.8 2.2 -1
v 0.8 2.3 -1
v 0.8 2.4 -1
v 0.8 2.5 -1
v 0.8 2.6 -1
v 0.9 2.2 -1
v 0.9 2.3 -1
v 1 2 -1
v 1 2.3 -1
v 1.1 2 -1
v 1.1 2.3 -1
v 1.1 2.4 -1
v 1.1 2.6 -1
v 1.2 2.4 -1
v 1.2 2.6 -1
v 1.2 2.7 -1
v 1.3 2.6 -1
v 1.3 2.7 -1
v 0.7 2.4 -1.1
v 0.7 2.5 -1.1
v 0.7 2.6 -1.1
v 0.7 2.7 -1.1
v 0.8 2.3 -1.1
v 0.8 2.4 -1.1
v 0.8 2.5 -1.1
v 0.8 2.6 -1.1
v 0.8 2.7 -1.1
v 0.8 3 -1.1
v 0.9 2.4 -1.1
v 0.9 2.5 -1.1
v 0.9 2.6 -1.1
v 1 2.5 -1.1
v 1 2.6 -1.1
v 1 2.7 -1.1
v 1.1 2.3 -1.1
v 1.1 2.6 -1.1
v 1.1 2.7 -1.1
v 1.1 3 -1.1
v 1.2 2.6 -1.1
v 1.2 2.7 -1.1
v 1 2 -0.9
v 1.1 2 -0.9
v 1 2 -1
v 1.1 2 -1
v 0.8 2.1 -0.8
v 0.9 2.1 -0.8
v 0.8 2.1 -0.9
v 0.9 2.1 -0.9
v 0.8 2.2 -0.9
v 0.9 2.2 -0.9
v 0.8 2.2 -1
v 0.9 2.2 -1
v 0.7 2.3 -0.6
v 0.8 2.3 -0.6
v 0.8 2.3 -0.8
v 0.9 2.3 -0.8
v 1.2 2.3 -0.8
v 0.7 2.3 -0.9
v 0.8 2.3 -0.9
v 1 2.3 -0.9
v 1.1 2.3 -0.9
v 1.2 2.3 -0.9
v 0.7 2.3 -1
v 0.8 2.3 -1
v 0.9 2.3 -1
v 1 2.3 -1
v 1.1 2.3 -1
v 0.8 2.3 -1.1
v 1.1 2.3 -1.1
v 1.1 2.4 -0.9
v 1.2 2.4 -0.9
v 0.7 2.4 -1
v 0.8 2.4 -1
v 1.1 2.4 -1
v 1.2 2.4 -1
v 0.7 2.4 -1.1
v 0.8 2.4 -1.1
v 0.7 2.5 -0.9
v 0.8 2.5 -0.9
v 0.7 2.5 -1
v 0.8 2.5 -1
v 0.7 2.6 -0.8
v 0.8 2.6 -0.8
v 1.1 2.6 -0.8
v 1.2 2.6 -0.8
v 0.6 2.6 -0.9
v 0.7 2.6 -0.9
v 0.8 2.6 -0.9
v 1.1 2.6 -0.9
v 1.2 2.6 -0.9
v 1.3 2.6 -0.9
v 0.6 2.6 -1
v 0.7 2.6 -1
v 0.8 2.6 -1
v 1.1 2.6 -1
v 1.2 2.6 -1
v 1.3 2.6 -1
v 0.7 2.6 -1.1
v 0.8 2.6 -1.1
v 1.1 2.6 -1.1
v 1.2 2.6 -1.1
v 0.9 2.8 -0.8
v 1 2.8 -0.8
v 0.9 2.8 -0.9
v 1 2.8 -0.9
v 0.8 2.9 -0.8
v 0.9 2.9 -0.8
v 1 2.9 -0.8
v 1.1 2.9 -0.8
v 0.8 2.9 -0.9
v 0.9 2.9 -0.9
v 1 2.9 -0.9
v 1.1 2.9 -0.9
v 0.7 2.4 -0.6
v 0.8 2.4 -0.6
v 0.8 2.4 -0.8
v 1.1 2.4 -0.8
v 1.2 2.4 -0.8
v 0.7 2.4 -0.9
v 0.8 2.4 -0.9
v 1.1 2.4 -0.9
v 1.2 2.4 -0.9
v 0.7 2.4 -1
v 0.8 2.4 -1
v 0.7 2.5 -1
v 0.8 2.5 -1
v 0.7 2.5 -1.1
v 0.8 2.5 -1.1
v 0.7 2.7 -0.8
v 1 2.7 -0.8
v 1.1 2.7 -0.8
v 1.2 2.7 -0.8
v 0.6 2.7 -0.9
v 0.7 2.7 -0.9
v 0.8 2.7 -0.9
v 1 2.7 -0.9
v 1.1 2.7 -0.9
v 1.2 2.7 -0.9
v 1.3 2.7 -0.9
v 0.6 2.7 -1
v 0.7 2.7 -1
v 0.8 2.7 -1
v 1.1 2.7 -1
v 1.2 2.7 -1
v 1.3 2.7 -1
v 0.7 2.7 -1.1
v 0.8 2.7 -1.1
v 1.1 2.7 -1.1
v 1.2 2.7 -1.1
v 0.8 3 -0.8
v 1.1 3 -0.8
v 0.8 3 -1.1
v 1.1 3 -1.1

# faces
f 3/3/1 2/3/1 1/3/1
f 4/3/1 2/3/1 3/3/1
f 8/1/1 6/1/1 5/1/1
f 9/3/1 7/3/1 6/3/1
f 9/1/1 6/1/1 8/1/1
f 10/3/1 7/3/1 9/3/1
f 13/3/1 11/3/1 10/3/1
f 14/3/1 11/3/1 13/3/1
f 16/3/1 13/3/1 12/3/1
f 17/3/1 13/3/1 16/3/1
f 19/3/1 16/3/1 15/3/1
f 20/3/1 16/3/1 19/3/1
f 21/3/1 18/3/1 17/3/1
f 22/3/1 18/3/1 21/3/1
f 25/3/1 24/3/1 23/3/1
f 27/3/1 25/3/1 23/3/1
f 27/3/1 26/3/1 25/3/1
f 28/3/1 26/3/1 27/3/1
f 29/3/1 26/3/1 28/3/1
f 33/3/1 30/3/1 29/3/1
f 34/3/1 30/3/1 33/3/1
f 35/2/1 32/2/1 31/2/1
f 35/2/1 33/2/1 32/2/1
f 36/2/1 33/2/1 35/2/1
f 37/2/1 33/2/1 36/2/1
f 39/3/1 36/3/1 35/3/1
f 40/3/1 36/3/1 39/3/1
f 41/3/1 38/3/1 37/3/1
f 42/3/1 38/3/1 41/3/1
f 47/4/1 44/4/1 43/4/1
f 47/4/1 45/4/1 44/4/1
f 48/4/1 47/4/1 46/4/1
f 49/4/1 45/4/1 47/4/1
f 49/4/1 47/4/1 48/4/1
f 52/4/1 51/4/1 50/4/1
f 53/4/1 51/4/1 52/4/1
f 56/3/1 55/3/1 54/3/1
f 57/3/1 55/3/1 56/3/1
f 58/1/2 59/1/2 60/1/2
f 60/1/2 59/1/2 61/1/2
f 62/3/2 63/3/2 64/3/2
f 62/3/2 64/3/2 66/3/2
f 64/3/2 65/3/2 66/3/2
f 66/3/2 65/3/2 67/3/2
f 68/4/2 69/4/2 70/4/2
f 70/4/2 69/4/2 71/4/2
f 72/3/2 73/3/2 74/3/2
f 74/3/2 73/3/2 75/3/2
f 74/3/2 75/3/2 78/3/2
f 75/3/2 76/3/2 78/3/2
f 78/3/2 76/3/2 79/3/2
f 77/3/2 78/3/2 80/3/2
f 80/3/2 78/3/2 81/3/2
f 79/3/2 76/3/2 82/3/2
f 82/3/2 76/3/2 83/3/2
f 84/4/2 85/4/2 88/4/2
f 85/4/2 86/4/2 88/4/2
f 87/4/2 88/4/2 89/4/2
f 88/4/2 86/4/2 90/4/2
f 89/4/2 88/4/2 90/4/2
f 91/3/2 92/3/2 93/3/2
f 93/3/2 92/3/2 94/3/2
f 94/3/2 95/3/2 97/3/2
f 97/3/2 95/3/2 98/3/2
f 96/3/2 97/3/2 100/3/2
f 100/3/2 97/3/2 101/3/2
f 98/3/2 99/3/2 102/3/2
f 102/3/2 99/3/2 103/3/2
f 104/3/2 105/3/2 106/3/2
f 106/3/2 105/3/2 107/3/2
f 110/1/3 109/1/3 108/1/3
f 111/1/3 109/1/3 110/1/3
f 118/3/3 113/3/3 112/3/3
f 121/3/3 115/3/3 114/3/3
f 121/3/3 116/3/3 115/3/3
f 122/3/3 116/3/3 121/3/3
f 123/2/3 117/2/3 116/2/3
f 123/3/3 116/3/3 122/3/3
f 124/3/3 118/3/3 117/3/3
f 124/2/3 117/2/3 123/2/3
f 125/3/3 113/3/3 118/3/3
f 125/3/3 118/3/3 124/3/3
f 127/4/3 120/4/3 119/4/3
f 128/3/3 123/3/3 122/3/3
f 128/3/3 124/3/3 123/3/3
f 128/2/3 125/2/3 124/2/3
f 129/3/3 113/3/3 125/3/3
f 129/2/3 125/2/3 128/2/3
f 130/3/3 113/3/3 129/3/3
f 131/4/3 127/4/3 126/4/3
f 132/4/3 120/4/3 127/4/3
f 132/4/3 127/4/3 131/4/3
f 133/3/3 128/3/3 122/3/3
f 133/3/3 129/3/3 128/3/3
f 134/2/3 130/2/3 129/2/3
f 134/3/3 129/3/3 133/3/3
f 135/2/3 130/2/3 134/2/3
f 136/4/3 120/4/3 132/4/3
f 137/4/3 120/4/3 136/4/3
f 138/3/3 133/3/3 122/3/3
f 139/3/3 133/3/3 138/3/3
f 140/3/3 135/3/3 134/3/3
f 141/3/3 135/3/3 140/3/3
f 145/3/3 143/3/3 142/3/3
f 146/3/3 143/3/3 145/3/3
f 147/3/3 145/3/3 144/3/3
f 148/3/3 145/3/3 147/3/3
f 151/4/3 150/4/3 149/4/3
f 152/4/3 150/4/3 151/4/3
f 155/4/3 151/4/3 149/4/3
f 156/4/3 151/4/3 155/4/3
f 158/3/3 154/3/3 153/3/3
f 159/3/3 154/3/3 158/3/3
f 162/4/3 157/4/3 156/4/3
f 162/4/3 156/4/3 155/4/3
f 163/4/3 157/4/3 162/4/3
f 164/3/3 161/3/3 160/3/3
f 165/3/3 161/3/3 164/3/3
f 167/3/3 166/3/3 165/3/3
f 168/3/3 166/3/3 167/3/3
f 171/3/3 170/3/3 169/3/3
f 172/3/3 170/3/3 171/3/3
f 173/3/4 174/3/4 175/3/4
f 175/3/4 174/3/4 176/3/4
f 177/3/4 178/3/4 179/3/4
f 179/3/4 178/3/4 180/3/4
f 181/3/4 182/3/4 186/3/4
f 186/3/4 182/3/4 187/3/4
f 183/3/4 184/3/4 189/3/4
f 189/3/4 184/3/4 190/3/4
f 185/3/4 186/3/4 191/3/4
f 191/3/4 186/3/4 192/3/4
f 188/3/4 189/3/4 193/3/4
f 193/3/4 189/3/4 194/3/4
f 195/3/4 196/3/4 197/3/4
f 197/3/4 196/3/4 198/3/4
f 199/3/4 200/3/4 201/3/4
f 201/3/4 200/3/4 202/3/4
f 202/3/4 203/3/4 204/3/4
f 204/3/4 203/3/4 205/3/4
f 206/3/4 207/3/4 211/3/4
f 211/3/4 207/3/4 212/3/4
f 208/3/4 209/3/4 213/3/4
f 213/3/4 209/3/4 214/3/4
f 211/2/4 212/2/4 216/2/4
f 210/3/4 211/3/4 216/3/4
f 213/3/4 214/3/4 217/3/4
f 216/2/4 212/2/4 217/2/4
f 212/3/4 213/3/4 217/3/4
f 217/3/4 214/3/4 218/3/4
f 216/3/4 217/3/4 219/3/4
f 217/2/4 218/2/4 219/2/4
f 218/3/4 214/3/4 220/3/4
f 219/2/4 218/2/4 220/2/4
f 214/4/4 215/4/4 221/4/4
f 220/3/4 214/3/4 221/3/4
f 219/3/4 220/3/4 222/3/4
f 210/3/4 216/3/4 222/3/4
f 216/3/4 219/3/4 222/3/4
f 220/2/4 221/2/4 223/2/4
f 222/3/4 220/3/4 223/3/4
f 221/4/4 215/4/4 224/4/4
f 223/2/4 221/2/4 224/2/4
f 224/4/4 215/4/4 225/4/4
f 223/3/4 224/3/4 226/3/4
f 226/3/4 224/3/4 227/3/4
f 230/3/5 229/3/5 228/3/5
f 231/3/5 229/3/5 230/3/5
f 234/3/5 233/3/5 232/3/5
f 235/3/5 233/3/5 234/3/5
f 238/3/5 237/3/5 236/3/5
f 239/3/5 237/3/5 238/3/5
f 242/1/5 241/1/5 240/1/5
f 245/1/5 242/1/5 240/1/5
f 246/1/5 242/1/5 245/1/5
f 247/3/5 244/3/5 243/3/5
f 248/3/5 244/3/5 247/3/5
f 249/3/5 244/3/5 248/3/5
f 250/3/5 246/3/5 245/3/5
f 251/3/5 246/3/5 250/3/5
f 252/3/5 247/3/5 243/3/5
f 253/3/5 247/3/5 252/3/5
f 255/3/5 254/3/5 253/3/5
f 255/3/5 253/3/5 252/3/5
f 255/3/5 252/3/5 251/3/5
f 256/3/5 254/3/5 255/3/5
f 261/3/5 258/3/5 257/3/5
f 262/3/5 258/3/5 261/3/5
f 263/3/5 260/3/5 259/3/5
f 264/3/5 260/3/5 263/3/5
f 267/3/5 266/3/5 265/3/5
f 268/3/5 266/3/5 267/3/5
f 274/3/5 270/3/5 269/3/5
f 275/3/5 270/3/5 274/3/5
f 276/3/5 272/3/5 271/3/5
f 277/3/5 272/3/5 276/3/5
f 279/3/5 274/3/5 273/3/5
f 280/3/5 274/3/5 279/3/5
f 283/3/5 278/3/5 277/3/5
f 284/3/5 278/3/5 283/3/5
f 285/3/5 281/3/5 280/3/5
f 286/3/5 281/3/5 285/3/5
f 287/3/5 283/3/5 282/3/5
f 288/3/5 283/3/5 287/3/5
f 291/4/5 290/4/5 289/4/5
f 292/4/5 290/4/5 291/4/5
f 297/4/5 294/4/5 293/4/5
f 298/4/5 294/4/5 297/4/5
f 299/4/5 296/4/5 295/4/5
f 300/4/5 296/4/5 299/4/5
f 301/1/6 302/1/6 303/1/6
f 301/1/6 303/1/6 306/1/6
f 306/1/6 303/1/6 307/1/6
f 304/3/6 305/3/6 308/3/6
f 308/3/6 305/3/6 309/3/6
f 306/3/6 307/3/6 310/3/6
f 310/3/6 307/3/6 311/3/6
f 312/3/6 313/3/6 314/3/6
f 314/3/6 313/3/6 315/3/6
f 316/3/6 317/3/6 321/3/6
f 321/3/6 317/3/6 322/3/6
f 317/2/6 318/2/6 323/2/6
f 322/3/6 317/3/6 323/3/6
f 318/3/6 319/3/6 324/3/6
f 323/2/6 318/2/6 324/2/6
f 324/3/6 319/3/6 325/3/6
f 320/3/6 321/3/6 327/3/6
f 321/2/6 322/2/6 328/2/6
f 327/3/6 321/3/6 328/3/6
f 328/2/6 322/2/6 329/2/6
f 324/2/6 325/2/6 330/2/6
f 325/3/6 326/3/6 331/3/6
f 330/2/6 325/2/6 331/2/6
f 331/3/6 326/3/6 332/3/6
f 328/3/6 329/3/6 333/3/6
f 333/3/6 329/3/6 334/3/6
f 330/3/6 331/3/6 335/3/6
f 335/3/6 331/3/6 336/3/6
f 337/4/6 338/4/6 339/4/6
f 339/4/6 338/4/6 340/4/6
