# MagicaVoxel @ Ephtracy

# group
o 

# material
mtllib 1.mtl
usemtl palette

# normals
vn -1 0 0
vn 1 0 0
vn 0 0 1
vn 0 0 -1
vn 0 -1 0
vn 0 1 0

# texcoords
vt 0.970703 0.5
vt 0.986328 0.5
vt 0.990234 0.5
vt 0.994141 0.5

# verts
v 0.6 2.6 -0.9
v 0.6 2.6 -1
v 0.6 2.7 -0.9
v 0.6 2.7 -1
v 0.7 2.2 -0.7
v 0.7 2.2 -0.9
v 0.7 2.3 -0.7
v 0.7 2.3 -0.9
v 0.7 2.3 -1
v 0.7 2.3 -1.1
v 0.7 2.4 -0.9
v 0.7 2.4 -1
v 0.7 2.5 -0.9
v 0.7 2.5 -1
v 0.7 2.5 -1.1
v 0.7 2.6 -0.8
v 0.7 2.6 -0.9
v 0.7 2.6 -1
v 0.7 2.6 -1.1
v 0.7 2.7 -0.8
v 0.7 2.7 -0.9
v 0.7 2.7 -1
v 0.7 2.7 -1.1
v 0.8 2 -0.8
v 0.8 2 -0.9
v 0.8 2.2 -0.8
v 0.8 2.2 -0.9
v 0.8 2.3 -0.8
v 0.8 2.3 -0.9
v 0.8 2.4 -0.8
v 0.8 2.4 -0.9
v 0.8 2.4 -1
v 0.8 2.5 -0.8
v 0.8 2.5 -0.9
v 0.8 2.5 -1
v 0.8 2.5 -1.1
v 0.8 2.6 -0.8
v 0.8 2.6 -0.9
v 0.8 2.6 -1
v 0.8 2.6 -1.1
v 0.8 2.7 -0.9
v 0.8 2.7 -1
v 0.8 2.7 -1.1
v 0.8 2.9 -0.8
v 0.8 2.9 -0.9
v 0.8 3 -0.8
v 0.8 3 -1.1
v 0.9 2.8 -0.8
v 0.9 2.8 -0.9
v 0.9 2.9 -0.8
v 0.9 2.9 -0.9
v 1 2 -0.9
v 1 2 -1
v 1 2.3 -0.9
v 1 2.3 -1
v 1.1 2.4 -0.7
v 1.1 2.4 -0.8
v 1.1 2.5 -0.7
v 1.1 2.5 -0.8
v 0.8 2.2 -0.7
v 0.8 2.2 -0.8
v 0.8 2.3 -0.7
v 0.8 2.3 -0.8
v 0.9 2 -0.8
v 0.9 2 -0.9
v 0.9 2.3 -0.8
v 0.9 2.3 -0.9
v 1 2.8 -0.8
v 1 2.8 -0.9
v 1 2.9 -0.8
v 1 2.9 -0.9
v 1.1 2 -0.9
v 1.1 2 -1
v 1.1 2.3 -0.8
v 1.1 2.3 -0.9
v 1.1 2.3 -1
v 1.1 2.3 -1.1
v 1.1 2.4 -0.8
v 1.1 2.4 -0.9
v 1.1 2.5 -0.8
v 1.1 2.5 -0.9
v 1.1 2.5 -1
v 1.1 2.6 -0.8
v 1.1 2.6 -0.9
v 1.1 2.6 -1
v 1.1 2.6 -1.1
v 1.1 2.7 -0.9
v 1.1 2.7 -1
v 1.1 2.7 -1.1
v 1.1 2.9 -0.8
v 1.1 2.9 -0.9
v 1.1 3 -0.8
v 1.1 3 -1.1
v 1.2 2.4 -0.7
v 1.2 2.4 -0.9
v 1.2 2.5 -0.7
v 1.2 2.5 -0.9
v 1.2 2.5 -1
v 1.2 2.6 -0.8
v 1.2 2.6 -0.9
v 1.2 2.6 -1
v 1.2 2.6 -1.1
v 1.2 2.7 -0.8
v 1.2 2.7 -0.9
v 1.2 2.7 -1
v 1.2 2.7 -1.1
v 1.3 2.6 -0.9
v 1.3 2.6 -1
v 1.3 2.7 -0.9
v 1.3 2.7 -1
v 0.7 2.2 -0.7
v 0.7 2.3 -0.7
v 0.8 2.2 -0.7
v 0.8 2.3 -0.7
v 1.1 2.4 -0.7
v 1.1 2.5 -0.7
v 1.2 2.4 -0.7
v 1.2 2.5 -0.7
v 0.7 2.6 -0.8
v 0.7 2.7 -0.8
v 0.8 2 -0.8
v 0.8 2.2 -0.8
v 0.8 2.3 -0.8
v 0.8 2.4 -0.8
v 0.8 2.5 -0.8
v 0.8 2.6 -0.8
v 0.8 2.9 -0.8
v 0.8 3 -0.8
v 0.9 2 -0.8
v 0.9 2.3 -0.8
v 0.9 2.4 -0.8
v 0.9 2.5 -0.8
v 0.9 2.6 -0.8
v 0.9 2.8 -0.8
v 0.9 2.9 -0.8
v 1 2.5 -0.8
v 1 2.6 -0.8
v 1 2.7 -0.8
v 1 2.8 -0.8
v 1 2.9 -0.8
v 1.1 2.3 -0.8
v 1.1 2.4 -0.8
v 1.1 2.5 -0.8
v 1.1 2.6 -0.8
v 1.1 2.7 -0.8
v 1.1 2.9 -0.8
v 1.1 3 -0.8
v 1.2 2.6 -0.8
v 1.2 2.7 -0.8
v 0.6 2.6 -0.9
v 0.6 2.7 -0.9
v 0.7 2.3 -0.9
v 0.7 2.4 -0.9
v 0.7 2.5 -0.9
v 0.7 2.6 -0.9
v 0.7 2.7 -0.9
v 0.8 2.3 -0.9
v 0.8 2.4 -0.9
v 0.8 2.5 -0.9
v 0.8 2.6 -0.9
v 0.8 2.7 -0.9
v 0.8 2.9 -0.9
v 0.9 2.8 -0.9
v 0.9 2.9 -0.9
v 1 2 -0.9
v 1 2.3 -0.9
v 1 2.7 -0.9
v 1 2.8 -0.9
v 1 2.9 -0.9
v 1.1 2 -0.9
v 1.1 2.3 -0.9
v 1.1 2.5 -0.9
v 1.1 2.6 -0.9
v 1.1 2.7 -0.9
v 1.1 2.9 -0.9
v 1.2 2.5 -0.9
v 1.2 2.6 -0.9
v 1.2 2.7 -0.9
v 1.3 2.6 -0.9
v 1.3 2.7 -0.9
v 0.7 2.4 -1
v 0.7 2.5 -1
v 0.8 2.4 -1
v 0.8 2.5 -1
v 0.7 2.2 -0.9
v 0.7 2.3 -0.9
v 0.8 2 -0.9
v 0.8 2.2 -0.9
v 0.8 2.3 -0.9
v 0.9 2 -0.9
v 0.9 2.3 -0.9
v 1.1 2.4 -0.9
v 1.1 2.5 -0.9
v 1.2 2.4 -0.9
v 1.2 2.5 -0.9
v 0.6 2.6 -1
v 0.6 2.7 -1
v 0.7 2.5 -1
v 0.7 2.6 -1
v 0.7 2.7 -1
v 0.8 2.5 -1
v 0.8 2.6 -1
v 1 2 -1
v 1 2.3 -1
v 1.1 2 -1
v 1.1 2.3 -1
v 1.1 2.5 -1
v 1.1 2.6 -1
v 1.2 2.5 -1
v 1.2 2.6 -1
v 1.2 2.7 -1
v 1.3 2.6 -1
v 1.3 2.7 -1
v 0.7 2.3 -1.1
v 0.7 2.5 -1.1
v 0.7 2.6 -1.1
v 0.7 2.7 -1.1
v 0.8 2.4 -1.1
v 0.8 2.5 -1.1
v 0.8 2.6 -1.1
v 0.8 2.7 -1.1
v 0.8 3 -1.1
v 0.9 2.4 -1.1
v 0.9 2.5 -1.1
v 0.9 2.6 -1.1
v 1 2.5 -1.1
v 1 2.6 -1.1
v 1 2.7 -1.1
v 1.1 2.3 -1.1
v 1.1 2.6 -1.1
v 1.1 2.7 -1.1
v 1.1 3 -1.1
v 1.2 2.6 -1.1
v 1.2 2.7 -1.1
v 0.8 2 -0.8
v 0.9 2 -0.8
v 0.8 2 -0.9
v 0.9 2 -0.9
v 1 2 -0.9
v 1.1 2 -0.9
v 1 2 -1
v 1.1 2 -1
v 0.7 2.2 -0.7
v 0.8 2.2 -0.7
v 0.8 2.2 -0.8
v 0.7 2.2 -0.9
v 0.8 2.2 -0.9
v 0.9 2.3 -0.8
v 1.1 2.3 -0.8
v 0.7 2.3 -0.9
v 0.8 2.3 -0.9
v 0.9 2.3 -0.9
v 1 2.3 -0.9
v 1.1 2.3 -0.9
v 0.7 2.3 -1
v 0.8 2.3 -1
v 1 2.3 -1
v 1.1 2.3 -1
v 0.7 2.3 -1.1
v 1.1 2.3 -1.1
v 1.1 2.4 -0.7
v 1.2 2.4 -0.7
v 1.1 2.4 -0.8
v 1.1 2.4 -0.9
v 1.2 2.4 -0.9
v 0.7 2.5 -0.9
v 0.8 2.5 -0.9
v 1.1 2.5 -0.9
v 1.2 2.5 -0.9
v 0.7 2.5 -1
v 0.8 2.5 -1
v 1.1 2.5 -1
v 1.2 2.5 -1
v 0.7 2.6 -0.8
v 0.8 2.6 -0.8
v 1.1 2.6 -0.8
v 1.2 2.6 -0.8
v 0.6 2.6 -0.9
v 0.7 2.6 -0.9
v 0.8 2.6 -0.9
v 1.1 2.6 -0.9
v 1.2 2.6 -0.9
v 1.3 2.6 -0.9
v 0.6 2.6 -1
v 0.7 2.6 -1
v 0.8 2.6 -1
v 1.1 2.6 -1
v 1.2 2.6 -1
v 1.3 2.6 -1
v 0.7 2.6 -1.1
v 0.8 2.6 -1.1
v 1.1 2.6 -1.1
v 1.2 2.6 -1.1
v 0.9 2.8 -0.8
v 1 2.8 -0.8
v 0.9 2.8 -0.9
v 1 2.8 -0.9
v 0.8 2.9 -0.8
v 0.9 2.9 -0.8
v 1 2.9 -0.8
v 1.1 2.9 -0.8
v 0.8 2.9 -0.9
v 0.9 2.9 -0.9
v 1 2.9 -0.9
v 1.1 2.9 -0.9
v 0.7 2.3 -0.7
v 0.8 2.3 -0.7
v 0.8 2.3 -0.8
v 0.7 2.3 -0.9
v 0.8 2.3 -0.9
v 0.7 2.4 -0.9
v 0.8 2.4 -0.9
v 0.7 2.4 -1
v 0.8 2.4 -1
v 1.1 2.5 -0.7
v 1.2 2.5 -0.7
v 1.1 2.5 -0.8
v 1.1 2.5 -0.9
v 1.2 2.5 -0.9
v 0.7 2.5 -1
v 0.8 2.5 -1
v 0.7 2.5 -1.1
v 0.8 2.5 -1.1
v 0.7 2.7 -0.8
v 1 2.7 -0.8
v 1.1 2.7 -0.8
v 1.2 2.7 -0.8
v 0.6 2.7 -0.9
v 0.7 2.7 -0.9
v 0.8 2.7 -0.9
v 1 2.7 -0.9
v 1.1 2.7 -0.9
v 1.2 2.7 -0.9
v 1.3 2.7 -0.9
v 0.6 2.7 -1
v 0.7 2.7 -1
v 0.8 2.7 -1
v 1.1 2.7 -1
v 1.2 2.7 -1
v 1.3 2.7 -1
v 0.7 2.7 -1.1
v 0.8 2.7 -1.1
v 1.1 2.7 -1.1
v 1.2 2.7 -1.1
v 0.8 3 -0.8
v 1.1 3 -0.8
v 0.8 3 -1.1
v 1.1 3 -1.1

# faces
f 3/3/1 2/3/1 1/3/1
f 4/3/1 2/3/1 3/3/1
f 7/1/1 6/1/1 5/1/1
f 8/1/1 6/1/1 7/1/1
f 11/1/1 9/1/1 8/1/1
f 12/3/1 10/3/1 9/3/1
f 12/1/1 9/1/1 11/1/1
f 14/3/1 10/3/1 12/3/1
f 15/3/1 10/3/1 14/3/1
f 17/3/1 14/3/1 13/3/1
f 18/3/1 14/3/1 17/3/1
f 20/3/1 17/3/1 16/3/1
f 21/3/1 17/3/1 20/3/1
f 22/3/1 19/3/1 18/3/1
f 23/3/1 19/3/1 22/3/1
f 26/3/1 25/3/1 24/3/1
f 27/3/1 25/3/1 26/3/1
f 30/3/1 29/3/1 28/3/1
f 31/3/1 29/3/1 30/3/1
f 33/2/1 31/2/1 30/2/1
f 33/2/1 32/2/1 31/2/1
f 34/2/1 32/2/1 33/2/1
f 35/2/1 32/2/1 34/2/1
f 37/3/1 34/3/1 33/3/1
f 38/3/1 34/3/1 37/3/1
f 39/3/1 36/3/1 35/3/1
f 40/3/1 36/3/1 39/3/1
f 45/4/1 42/4/1 41/4/1
f 45/4/1 43/4/1 42/4/1
f 46/4/1 45/4/1 44/4/1
f 47/4/1 43/4/1 45/4/1
f 47/4/1 45/4/1 46/4/1
f 50/4/1 49/4/1 48/4/1
f 51/4/1 49/4/1 50/4/1
f 54/3/1 53/3/1 52/3/1
f 55/3/1 53/3/1 54/3/1
f 58/3/1 57/3/1 56/3/1
f 59/3/1 57/3/1 58/3/1
f 60/1/2 61/1/2 62/1/2
f 62/1/2 61/1/2 63/1/2
f 64/3/2 65/3/2 66/3/2
f 66/3/2 65/3/2 67/3/2
f 68/4/2 69/4/2 70/4/2
f 70/4/2 69/4/2 71/4/2
f 72/3/2 73/3/2 75/3/2
f 75/3/2 73/3/2 76/3/2
f 74/3/2 75/3/2 78/3/2
f 76/3/2 77/3/2 78/3/2
f 75/3/2 76/3/2 78/3/2
f 78/3/2 77/3/2 79/3/2
f 79/3/2 77/3/2 81/3/2
f 81/3/2 77/3/2 82/3/2
f 80/3/2 81/3/2 83/3/2
f 83/3/2 81/3/2 84/3/2
f 82/3/2 77/3/2 85/3/2
f 85/3/2 77/3/2 86/3/2
f 87/4/2 88/4/2 91/4/2
f 88/4/2 89/4/2 91/4/2
f 90/4/2 91/4/2 92/4/2
f 91/4/2 89/4/2 93/4/2
f 92/4/2 91/4/2 93/4/2
f 94/3/2 95/3/2 96/3/2
f 96/3/2 95/3/2 97/3/2
f 97/3/2 98/3/2 100/3/2
f 100/3/2 98/3/2 101/3/2
f 99/3/2 100/3/2 103/3/2
f 103/3/2 100/3/2 104/3/2
f 101/3/2 102/3/2 105/3/2
f 105/3/2 102/3/2 106/3/2
f 107/3/2 108/3/2 109/3/2
f 109/3/2 108/3/2 110/3/2
f 113/1/3 112/1/3 111/1/3
f 114/1/3 112/1/3 113/1/3
f 117/3/3 116/3/3 115/3/3
f 118/3/3 116/3/3 117/3/3
f 126/3/3 120/3/3 119/3/3
f 129/3/3 122/3/3 121/3/3
f 129/3/3 123/3/3 122/3/3
f 129/3/3 124/3/3 123/3/3
f 130/3/3 124/3/3 129/3/3
f 131/2/3 125/2/3 124/2/3
f 131/3/3 124/3/3 130/3/3
f 132/3/3 126/3/3 125/3/3
f 132/2/3 125/2/3 131/2/3
f 133/3/3 120/3/3 126/3/3
f 133/3/3 126/3/3 132/3/3
f 135/4/3 128/4/3 127/4/3
f 136/3/3 131/3/3 130/3/3
f 136/3/3 132/3/3 131/3/3
f 136/2/3 133/2/3 132/2/3
f 137/3/3 120/3/3 133/3/3
f 137/2/3 133/2/3 136/2/3
f 138/3/3 120/3/3 137/3/3
f 139/4/3 135/4/3 134/4/3
f 140/4/3 128/4/3 135/4/3
f 140/4/3 135/4/3 139/4/3
f 141/3/3 136/3/3 130/3/3
f 141/3/3 137/3/3 136/3/3
f 142/3/3 137/3/3 141/3/3
f 143/3/3 137/3/3 142/3/3
f 144/2/3 138/2/3 137/2/3
f 144/3/3 137/3/3 143/3/3
f 145/2/3 138/2/3 144/2/3
f 146/4/3 128/4/3 140/4/3
f 147/4/3 128/4/3 146/4/3
f 148/3/3 145/3/3 144/3/3
f 149/3/3 145/3/3 148/3/3
f 155/3/3 151/3/3 150/3/3
f 156/3/3 151/3/3 155/3/3
f 157/1/3 153/1/3 152/1/3
f 158/1/3 153/1/3 157/1/3
f 159/3/3 155/3/3 154/3/3
f 160/3/3 155/3/3 159/3/3
f 163/4/3 162/4/3 161/4/3
f 164/4/3 162/4/3 163/4/3
f 167/4/3 163/4/3 161/4/3
f 168/4/3 163/4/3 167/4/3
f 170/3/3 166/3/3 165/3/3
f 171/3/3 166/3/3 170/3/3
f 174/4/3 169/4/3 168/4/3
f 174/4/3 168/4/3 167/4/3
f 175/4/3 169/4/3 174/4/3
f 176/3/3 173/3/3 172/3/3
f 177/3/3 173/3/3 176/3/3
f 179/3/3 178/3/3 177/3/3
f 180/3/3 178/3/3 179/3/3
f 183/3/3 182/3/3 181/3/3
f 184/3/3 182/3/3 183/3/3
f 185/1/4 186/1/4 188/1/4
f 188/1/4 186/1/4 189/1/4
f 187/3/4 188/3/4 190/3/4
f 188/3/4 189/3/4 190/3/4
f 190/3/4 189/3/4 191/3/4
f 192/3/4 193/3/4 194/3/4
f 194/3/4 193/3/4 195/3/4
f 196/3/4 197/3/4 199/3/4
f 199/3/4 197/3/4 200/3/4
f 198/3/4 199/3/4 201/3/4
f 201/3/4 199/3/4 202/3/4
f 203/3/4 204/3/4 205/3/4
f 205/3/4 204/3/4 206/3/4
f 207/3/4 208/3/4 209/3/4
f 209/3/4 208/3/4 210/3/4
f 210/3/4 211/3/4 212/3/4
f 212/3/4 211/3/4 213/3/4
f 214/3/4 215/3/4 218/3/4
f 218/3/4 215/3/4 219/3/4
f 216/3/4 217/3/4 220/3/4
f 220/3/4 217/3/4 221/3/4
f 218/2/4 219/2/4 223/2/4
f 214/3/4 218/3/4 223/3/4
f 220/3/4 221/3/4 224/3/4
f 223/2/4 219/2/4 224/2/4
f 219/3/4 220/3/4 224/3/4
f 224/3/4 221/3/4 225/3/4
f 223/3/4 224/3/4 226/3/4
f 224/2/4 225/2/4 226/2/4
f 225/3/4 221/3/4 227/3/4
f 226/2/4 225/2/4 227/2/4
f 221/4/4 222/4/4 228/4/4
f 227/3/4 221/3/4 228/3/4
f 226/3/4 227/3/4 229/3/4
f 214/3/4 223/3/4 229/3/4
f 223/3/4 226/3/4 229/3/4
f 227/2/4 228/2/4 230/2/4
f 229/3/4 227/3/4 230/3/4
f 228/4/4 222/4/4 231/4/4
f 230/2/4 228/2/4 231/2/4
f 231/4/4 222/4/4 232/4/4
f 230/3/4 231/3/4 233/3/4
f 233/3/4 231/3/4 234/3/4
f 237/3/5 236/3/5 235/3/5
f 238/3/5 236/3/5 237/3/5
f 241/3/5 240/3/5 239/3/5
f 242/3/5 240/3/5 241/3/5
f 245/1/5 244/1/5 243/1/5
f 246/1/5 245/1/5 243/1/5
f 247/1/5 245/1/5 246/1/5
f 252/3/5 249/3/5 248/3/5
f 253/3/5 249/3/5 252/3/5
f 254/3/5 249/3/5 253/3/5
f 255/1/5 251/1/5 250/1/5
f 256/3/5 252/3/5 251/3/5
f 256/1/5 251/1/5 255/1/5
f 256/3/5 253/3/5 252/3/5
f 257/3/5 253/3/5 256/3/5
f 259/3/5 256/3/5 255/3/5
f 259/3/5 258/3/5 257/3/5
f 259/3/5 257/3/5 256/3/5
f 260/3/5 258/3/5 259/3/5
f 263/3/5 262/3/5 261/3/5
f 264/3/5 262/3/5 263/3/5
f 265/3/5 262/3/5 264/3/5
f 270/3/5 267/3/5 266/3/5
f 271/3/5 267/3/5 270/3/5
f 272/3/5 269/3/5 268/3/5
f 273/3/5 269/3/5 272/3/5
f 279/3/5 275/3/5 274/3/5
f 280/3/5 275/3/5 279/3/5
f 281/3/5 277/3/5 276/3/5
f 282/3/5 277/3/5 281/3/5
f 284/3/5 279/3/5 278/3/5
f 285/3/5 279/3/5 284/3/5
f 288/3/5 283/3/5 282/3/5
f 289/3/5 283/3/5 288/3/5
f 290/3/5 286/3/5 285/3/5
f 291/3/5 286/3/5 290/3/5
f 292/3/5 288/3/5 287/3/5
f 293/3/5 288/3/5 292/3/5
f 296/4/5 295/4/5 294/4/5
f 297/4/5 295/4/5 296/4/5
f 302/4/5 299/4/5 298/4/5
f 303/4/5 299/4/5 302/4/5
f 304/4/5 301/4/5 300/4/5
f 305/4/5 301/4/5 304/4/5
f 306/1/6 307/1/6 308/1/6
f 306/1/6 308/1/6 309/1/6
f 309/1/6 308/1/6 310/1/6
f 311/1/6 312/1/6 313/1/6
f 313/1/6 312/1/6 314/1/6
f 315/3/6 316/3/6 317/3/6
f 317/3/6 316/3/6 318/3/6
f 318/3/6 316/3/6 319/3/6
f 320/3/6 321/3/6 322/3/6
f 322/3/6 321/3/6 323/3/6
f 324/3/6 325/3/6 329/3/6
f 329/3/6 325/3/6 330/3/6
f 325/2/6 326/2/6 331/2/6
f 330/3/6 325/3/6 331/3/6
f 326/3/6 327/3/6 332/3/6
f 331/2/6 326/2/6 332/2/6
f 332/3/6 327/3/6 333/3/6
f 328/3/6 329/3/6 335/3/6
f 329/2/6 330/2/6 336/2/6
f 335/3/6 329/3/6 336/3/6
f 336/2/6 330/2/6 337/2/6
f 332/2/6 333/2/6 338/2/6
f 333/3/6 334/3/6 339/3/6
f 338/2/6 333/2/6 339/2/6
f 339/3/6 334/3/6 340/3/6
f 336/3/6 337/3/6 341/3/6
f 341/3/6 337/3/6 342/3/6
f 338/3/6 339/3/6 343/3/6
f 343/3/6 339/3/6 344/3/6
f 345/4/6 346/4/6 347/4/6
f 347/4/6 346/4/6 348/4/6
