# MagicaVoxel @ Ephtracy

# group
o 

# material
mtllib 2.mtl
usemtl palette

# normals
vn -1 0 0
vn 1 0 0
vn 0 0 1
vn 0 0 -1
vn 0 -1 0
vn 0 1 0

# texcoords
vt 0.970703 0.5
vt 0.986328 0.5
vt 0.990234 0.5
vt 0.994141 0.5

# verts
v 0.6 2.6 -0.9
v 0.6 2.6 -1
v 0.6 2.7 -0.9
v 0.6 2.7 -1
v 0.7 2.3 -0.6
v 0.7 2.3 -0.8
v 0.7 2.3 -0.9
v 0.7 2.4 -0.5
v 0.7 2.4 -0.6
v 0.7 2.4 -0.8
v 0.7 2.4 -0.9
v 0.7 2.4 -1
v 0.7 2.5 -0.5
v 0.7 2.5 -0.6
v 0.7 2.6 -0.8
v 0.7 2.6 -0.9
v 0.7 2.6 -1
v 0.7 2.6 -1.1
v 0.7 2.7 -0.8
v 0.7 2.7 -0.9
v 0.7 2.7 -1
v 0.7 2.7 -1.1
v 0.8 2 -0.9
v 0.8 2 -1
v 0.8 2.3 -0.9
v 0.8 2.3 -1
v 0.8 2.3 -1.1
v 0.8 2.4 -0.8
v 0.8 2.4 -0.9
v 0.8 2.4 -1
v 0.8 2.4 -1.1
v 0.8 2.5 -0.8
v 0.8 2.5 -0.9
v 0.8 2.5 -1
v 0.8 2.5 -1.1
v 0.8 2.6 -0.8
v 0.8 2.6 -0.9
v 0.8 2.6 -1
v 0.8 2.6 -1.1
v 0.8 2.7 -0.9
v 0.8 2.7 -1
v 0.8 2.7 -1.1
v 0.8 2.9 -0.8
v 0.8 2.9 -0.9
v 0.8 3 -0.8
v 0.8 3 -1.1
v 0.9 2.8 -0.8
v 0.9 2.8 -0.9
v 0.9 2.9 -0.8
v 0.9 2.9 -0.9
v 1 2.1 -0.8
v 1 2.1 -0.9
v 1 2.2 -0.9
v 1 2.2 -1
v 1 2.3 -0.8
v 1 2.3 -1
v 0.8 2.3 -0.6
v 0.8 2.3 -0.8
v 0.8 2.4 -0.5
v 0.8 2.4 -0.6
v 0.8 2.4 -0.8
v 0.8 2.5 -0.5
v 0.8 2.5 -0.6
v 0.9 2 -0.9
v 0.9 2 -1
v 0.9 2.3 -0.9
v 0.9 2.3 -1
v 1 2.8 -0.8
v 1 2.8 -0.9
v 1 2.9 -0.8
v 1 2.9 -0.9
v 1.1 2.1 -0.8
v 1.1 2.1 -0.9
v 1.1 2.2 -0.9
v 1.1 2.2 -1
v 1.1 2.3 -0.9
v 1.1 2.3 -1
v 1.1 2.3 -1.1
v 1.1 2.4 -0.9
v 1.1 2.4 -1
v 1.1 2.4 -1.1
v 1.1 2.5 -0.9
v 1.1 2.5 -1
v 1.1 2.5 -1.1
v 1.1 2.6 -0.8
v 1.1 2.6 -0.9
v 1.1 2.6 -1
v 1.1 2.6 -1.1
v 1.1 2.7 -0.9
v 1.1 2.7 -1
v 1.1 2.7 -1.1
v 1.1 2.9 -0.8
v 1.1 2.9 -0.9
v 1.1 3 -0.8
v 1.1 3 -1.1
v 1.2 2.3 -0.9
v 1.2 2.3 -1
v 1.2 2.4 -0.9
v 1.2 2.4 -1
v 1.2 2.4 -1.1
v 1.2 2.5 -0.9
v 1.2 2.5 -1
v 1.2 2.5 -1.1
v 1.2 2.6 -0.8
v 1.2 2.6 -0.9
v 1.2 2.6 -1
v 1.2 2.6 -1.1
v 1.2 2.7 -0.8
v 1.2 2.7 -0.9
v 1.2 2.7 -1
v 1.2 2.7 -1.1
v 1.3 2.6 -0.9
v 1.3 2.6 -1
v 1.3 2.7 -0.9
v 1.3 2.7 -1
v 0.7 2.4 -0.5
v 0.7 2.5 -0.5
v 0.8 2.4 -0.5
v 0.8 2.5 -0.5
v 0.7 2.3 -0.6
v 0.7 2.4 -0.6
v 0.8 2.3 -0.6
v 0.8 2.4 -0.6
v 0.7 2.6 -0.8
v 0.7 2.7 -0.8
v 0.8 2.3 -0.8
v 0.8 2.4 -0.8
v 0.8 2.5 -0.8
v 0.8 2.6 -0.8
v 0.8 2.9 -0.8
v 0.8 3 -0.8
v 0.9 2.4 -0.8
v 0.9 2.5 -0.8
v 0.9 2.6 -0.8
v 0.9 2.8 -0.8
v 0.9 2.9 -0.8
v 1 2.1 -0.8
v 1 2.3 -0.8
v 1 2.5 -0.8
v 1 2.6 -0.8
v 1 2.7 -0.8
v 1 2.8 -0.8
v 1 2.9 -0.8
v 1.1 2.1 -0.8
v 1.1 2.6 -0.8
v 1.1 2.7 -0.8
v 1.1 2.9 -0.8
v 1.1 3 -0.8
v 1.2 2.6 -0.8
v 1.2 2.7 -0.8
v 0.6 2.6 -0.9
v 0.6 2.7 -0.9
v 0.7 2.4 -0.9
v 0.7 2.6 -0.9
v 0.7 2.7 -0.9
v 0.8 2 -0.9
v 0.8 2.3 -0.9
v 0.8 2.4 -0.9
v 0.8 2.5 -0.9
v 0.8 2.6 -0.9
v 0.8 2.7 -0.9
v 0.8 2.9 -0.9
v 0.9 2 -0.9
v 0.9 2.3 -0.9
v 0.9 2.8 -0.9
v 0.9 2.9 -0.9
v 1 2.7 -0.9
v 1 2.8 -0.9
v 1 2.9 -0.9
v 1.1 2.3 -0.9
v 1.1 2.4 -0.9
v 1.1 2.5 -0.9
v 1.1 2.6 -0.9
v 1.1 2.7 -0.9
v 1.1 2.9 -0.9
v 1.2 2.3 -0.9
v 1.2 2.4 -0.9
v 1.2 2.5 -0.9
v 1.2 2.6 -0.9
v 1.2 2.7 -0.9
v 1.3 2.6 -0.9
v 1.3 2.7 -0.9
v 1.1 2.4 -1
v 1.1 2.5 -1
v 1.2 2.4 -1
v 1.2 2.5 -1
v 0.7 2.4 -0.6
v 0.7 2.5 -0.6
v 0.8 2.4 -0.6
v 0.8 2.5 -0.6
v 0.7 2.3 -0.9
v 0.7 2.4 -0.9
v 0.8 2.3 -0.9
v 0.8 2.4 -0.9
v 1 2.1 -0.9
v 1 2.2 -0.9
v 1.1 2.1 -0.9
v 1.1 2.2 -0.9
v 0.6 2.6 -1
v 0.6 2.7 -1
v 0.7 2.4 -1
v 0.7 2.6 -1
v 0.7 2.7 -1
v 0.8 2 -1
v 0.8 2.3 -1
v 0.8 2.4 -1
v 0.8 2.5 -1
v 0.8 2.6 -1
v 0.9 2 -1
v 0.9 2.3 -1
v 1 2.2 -1
v 1 2.3 -1
v 1.1 2.2 -1
v 1.1 2.3 -1
v 1.1 2.4 -1
v 1.1 2.5 -1
v 1.1 2.6 -1
v 1.2 2.3 -1
v 1.2 2.4 -1
v 1.2 2.5 -1
v 1.2 2.6 -1
v 1.2 2.7 -1
v 1.3 2.6 -1
v 1.3 2.7 -1
v 0.7 2.6 -1.1
v 0.7 2.7 -1.1
v 0.8 2.3 -1.1
v 0.8 2.4 -1.1
v 0.8 2.5 -1.1
v 0.8 2.6 -1.1
v 0.8 2.7 -1.1
v 0.8 3 -1.1
v 0.9 2.4 -1.1
v 0.9 2.5 -1.1
v 0.9 2.6 -1.1
v 1 2.5 -1.1
v 1 2.6 -1.1
v 1 2.7 -1.1
v 1.1 2.3 -1.1
v 1.1 2.4 -1.1
v 1.1 2.5 -1.1
v 1.1 2.6 -1.1
v 1.1 2.7 -1.1
v 1.1 3 -1.1
v 1.2 2.4 -1.1
v 1.2 2.5 -1.1
v 1.2 2.6 -1.1
v 1.2 2.7 -1.1
v 0.8 2 -0.9
v 0.9 2 -0.9
v 0.8 2 -1
v 0.9 2 -1
v 1 2.1 -0.8
v 1.1 2.1 -0.8
v 1 2.1 -0.9
v 1.1 2.1 -0.9
v 1 2.2 -0.9
v 1.1 2.2 -0.9
v 1 2.2 -1
v 1.1 2.2 -1
v 0.7 2.3 -0.6
v 0.8 2.3 -0.6
v 0.7 2.3 -0.8
v 0.8 2.3 -0.8
v 1 2.3 -0.8
v 0.7 2.3 -0.9
v 0.8 2.3 -0.9
v 0.9 2.3 -0.9
v 1.1 2.3 -0.9
v 1.2 2.3 -0.9
v 0.8 2.3 -1
v 0.9 2.3 -1
v 1 2.3 -1
v 1.1 2.3 -1
v 1.2 2.3 -1
v 0.8 2.3 -1.1
v 1.1 2.3 -1.1
v 0.7 2.4 -0.5
v 0.8 2.4 -0.5
v 0.7 2.4 -0.6
v 0.8 2.4 -0.6
v 0.7 2.4 -0.9
v 0.8 2.4 -0.9
v 0.7 2.4 -1
v 0.8 2.4 -1
v 1.1 2.4 -1
v 1.2 2.4 -1
v 1.1 2.4 -1.1
v 1.2 2.4 -1.1
v 1.1 2.5 -0.9
v 1.2 2.5 -0.9
v 1.1 2.5 -1
v 1.2 2.5 -1
v 0.7 2.6 -0.8
v 0.8 2.6 -0.8
v 1.1 2.6 -0.8
v 1.2 2.6 -0.8
v 0.6 2.6 -0.9
v 0.7 2.6 -0.9
v 0.8 2.6 -0.9
v 1.1 2.6 -0.9
v 1.2 2.6 -0.9
v 1.3 2.6 -0.9
v 0.6 2.6 -1
v 0.7 2.6 -1
v 0.8 2.6 -1
v 1.1 2.6 -1
v 1.2 2.6 -1
v 1.3 2.6 -1
v 0.7 2.6 -1.1
v 0.8 2.6 -1.1
v 1.1 2.6 -1.1
v 1.2 2.6 -1.1
v 0.9 2.8 -0.8
v 1 2.8 -0.8
v 0.9 2.8 -0.9
v 1 2.8 -0.9
v 0.8 2.9 -0.8
v 0.9 2.9 -0.8
v 1 2.9 -0.8
v 1.1 2.9 -0.8
v 0.8 2.9 -0.9
v 0.9 2.9 -0.9
v 1 2.9 -0.9
v 1.1 2.9 -0.9
v 0.7 2.4 -0.6
v 0.8 2.4 -0.6
v 0.7 2.4 -0.8
v 0.8 2.4 -0.8
v 0.7 2.4 -0.9
v 0.8 2.4 -0.9
v 1.1 2.4 -0.9
v 1.2 2.4 -0.9
v 1.1 2.4 -1
v 1.2 2.4 -1
v 0.7 2.5 -0.5
v 0.8 2.5 -0.5
v 0.7 2.5 -0.6
v 0.8 2.5 -0.6
v 1.1 2.5 -1
v 1.2 2.5 -1
v 1.1 2.5 -1.1
v 1.2 2.5 -1.1
v 0.7 2.7 -0.8
v 1 2.7 -0.8
v 1.1 2.7 -0.8
v 1.2 2.7 -0.8
v 0.6 2.7 -0.9
v 0.7 2.7 -0.9
v 0.8 2.7 -0.9
v 1 2.7 -0.9
v 1.1 2.7 -0.9
v 1.2 2.7 -0.9
v 1.3 2.7 -0.9
v 0.6 2.7 -1
v 0.7 2.7 -1
v 0.8 2.7 -1
v 1.1 2.7 -1
v 1.2 2.7 -1
v 1.3 2.7 -1
v 0.7 2.7 -1.1
v 0.8 2.7 -1.1
v 1.1 2.7 -1.1
v 1.2 2.7 -1.1
v 0.8 3 -0.8
v 1.1 3 -0.8
v 0.8 3 -1.1
v 1.1 3 -1.1

# faces
f 3/3/1 2/3/1 1/3/1
f 4/3/1 2/3/1 3/3/1
f 9/1/1 6/1/1 5/1/1
f 10/3/1 7/3/1 6/3/1
f 10/1/1 6/1/1 9/1/1
f 11/3/1 7/3/1 10/3/1
f 13/1/1 9/1/1 8/1/1
f 14/1/1 9/1/1 13/1/1
f 16/3/1 12/3/1 11/3/1
f 17/3/1 12/3/1 16/3/1
f 19/3/1 16/3/1 15/3/1
f 20/3/1 16/3/1 19/3/1
f 21/3/1 18/3/1 17/3/1
f 22/3/1 18/3/1 21/3/1
f 25/3/1 24/3/1 23/3/1
f 26/3/1 24/3/1 25/3/1
f 29/3/1 26/3/1 25/3/1
f 29/3/1 27/3/1 26/3/1
f 30/3/1 27/3/1 29/3/1
f 31/3/1 27/3/1 30/3/1
f 32/2/1 29/2/1 28/2/1
f 33/2/1 29/2/1 32/2/1
f 34/2/1 31/2/1 30/2/1
f 35/2/1 31/2/1 34/2/1
f 36/3/1 33/3/1 32/3/1
f 37/3/1 33/3/1 36/3/1
f 38/3/1 35/3/1 34/3/1
f 39/3/1 35/3/1 38/3/1
f 44/4/1 41/4/1 40/4/1
f 44/4/1 42/4/1 41/4/1
f 45/4/1 44/4/1 43/4/1
f 46/4/1 42/4/1 44/4/1
f 46/4/1 44/4/1 45/4/1
f 49/4/1 48/4/1 47/4/1
f 50/4/1 48/4/1 49/4/1
f 53/3/1 52/3/1 51/3/1
f 55/3/1 53/3/1 51/3/1
f 55/3/1 54/3/1 53/3/1
f 56/3/1 54/3/1 55/3/1
f 57/1/2 58/1/2 60/1/2
f 60/1/2 58/1/2 61/1/2
f 59/1/2 60/1/2 62/1/2
f 62/1/2 60/1/2 63/1/2
f 64/3/2 65/3/2 66/3/2
f 66/3/2 65/3/2 67/3/2
f 68/4/2 69/4/2 70/4/2
f 70/4/2 69/4/2 71/4/2
f 72/3/2 73/3/2 74/3/2
f 72/3/2 74/3/2 76/3/2
f 74/3/2 75/3/2 76/3/2
f 76/3/2 75/3/2 77/3/2
f 72/3/2 76/3/2 79/3/2
f 77/3/2 78/3/2 80/3/2
f 80/3/2 78/3/2 81/3/2
f 72/3/2 79/3/2 82/3/2
f 79/3/2 80/3/2 82/3/2
f 82/3/2 80/3/2 83/3/2
f 72/3/2 82/3/2 85/3/2
f 85/3/2 82/3/2 86/3/2
f 83/3/2 84/3/2 87/3/2
f 87/3/2 84/3/2 88/3/2
f 89/4/2 90/4/2 93/4/2
f 90/4/2 91/4/2 93/4/2
f 92/4/2 93/4/2 94/4/2
f 93/4/2 91/4/2 95/4/2
f 94/4/2 93/4/2 95/4/2
f 96/3/2 97/3/2 98/3/2
f 98/3/2 97/3/2 99/3/2
f 99/3/2 100/3/2 102/3/2
f 102/3/2 100/3/2 103/3/2
f 101/3/2 102/3/2 105/3/2
f 105/3/2 102/3/2 106/3/2
f 104/3/2 105/3/2 108/3/2
f 108/3/2 105/3/2 109/3/2
f 106/3/2 107/3/2 110/3/2
f 110/3/2 107/3/2 111/3/2
f 112/3/2 113/3/2 114/3/2
f 114/3/2 113/3/2 115/3/2
f 118/1/3 117/1/3 116/1/3
f 119/1/3 117/1/3 118/1/3
f 122/1/3 121/1/3 120/1/3
f 123/1/3 121/1/3 122/1/3
f 129/3/3 125/3/3 124/3/3
f 132/2/3 128/2/3 127/2/3
f 132/3/3 127/3/3 126/3/3
f 133/3/3 129/3/3 128/3/3
f 133/2/3 128/2/3 132/2/3
f 134/3/3 125/3/3 129/3/3
f 134/3/3 129/3/3 133/3/3
f 136/4/3 131/4/3 130/4/3
f 138/3/3 132/3/3 126/3/3
f 138/3/3 133/3/3 132/3/3
f 139/2/3 134/2/3 133/2/3
f 139/3/3 133/3/3 138/3/3
f 140/3/3 125/3/3 134/3/3
f 140/2/3 134/2/3 139/2/3
f 141/3/3 125/3/3 140/3/3
f 142/4/3 136/4/3 135/4/3
f 143/4/3 131/4/3 136/4/3
f 143/4/3 136/4/3 142/4/3
f 144/3/3 139/3/3 138/3/3
f 144/3/3 138/3/3 137/3/3
f 144/3/3 140/3/3 139/3/3
f 145/2/3 141/2/3 140/2/3
f 145/3/3 140/3/3 144/3/3
f 146/2/3 141/2/3 145/2/3
f 147/4/3 131/4/3 143/4/3
f 148/4/3 131/4/3 147/4/3
f 149/3/3 146/3/3 145/3/3
f 150/3/3 146/3/3 149/3/3
f 154/3/3 152/3/3 151/3/3
f 155/3/3 152/3/3 154/3/3
f 158/3/3 154/3/3 153/3/3
f 159/3/3 154/3/3 158/3/3
f 160/3/3 154/3/3 159/3/3
f 163/3/3 157/3/3 156/3/3
f 164/3/3 157/3/3 163/3/3
f 165/4/3 162/4/3 161/4/3
f 166/4/3 162/4/3 165/4/3
f 167/4/3 165/4/3 161/4/3
f 168/4/3 165/4/3 167/4/3
f 174/4/3 168/4/3 167/4/3
f 174/4/3 169/4/3 168/4/3
f 175/4/3 169/4/3 174/4/3
f 176/3/3 171/3/3 170/3/3
f 177/3/3 171/3/3 176/3/3
f 178/3/3 173/3/3 172/3/3
f 179/3/3 173/3/3 178/3/3
f 181/3/3 180/3/3 179/3/3
f 182/3/3 180/3/3 181/3/3
f 185/3/3 184/3/3 183/3/3
f 186/3/3 184/3/3 185/3/3
f 187/1/4 188/1/4 189/1/4
f 189/1/4 188/1/4 190/1/4
f 191/3/4 192/3/4 193/3/4
f 193/3/4 192/3/4 194/3/4
f 195/3/4 196/3/4 197/3/4
f 197/3/4 196/3/4 198/3/4
f 199/3/4 200/3/4 202/3/4
f 202/3/4 200/3/4 203/3/4
f 201/3/4 202/3/4 206/3/4
f 206/3/4 202/3/4 207/3/4
f 207/3/4 202/3/4 208/3/4
f 204/3/4 205/3/4 209/3/4
f 209/3/4 205/3/4 210/3/4
f 211/3/4 212/3/4 213/3/4
f 213/3/4 212/3/4 214/3/4
f 214/3/4 215/3/4 218/3/4
f 218/3/4 215/3/4 219/3/4
f 216/3/4 217/3/4 220/3/4
f 220/3/4 217/3/4 221/3/4
f 221/3/4 222/3/4 223/3/4
f 223/3/4 222/3/4 224/3/4
f 225/3/4 226/3/4 230/3/4
f 230/3/4 226/3/4 231/3/4
f 228/2/4 229/2/4 233/2/4
f 227/3/4 228/3/4 233/3/4
f 230/3/4 231/3/4 234/3/4
f 233/2/4 229/2/4 234/2/4
f 229/3/4 230/3/4 234/3/4
f 234/3/4 231/3/4 235/3/4
f 233/3/4 234/3/4 236/3/4
f 234/2/4 235/2/4 236/2/4
f 235/3/4 231/3/4 237/3/4
f 236/2/4 235/2/4 237/2/4
f 231/4/4 232/4/4 238/4/4
f 237/3/4 231/3/4 238/3/4
f 236/3/4 237/3/4 239/3/4
f 227/3/4 233/3/4 239/3/4
f 233/3/4 236/3/4 239/3/4
f 239/3/4 237/3/4 240/3/4
f 240/3/4 237/3/4 241/3/4
f 237/2/4 238/2/4 242/2/4
f 241/3/4 237/3/4 242/3/4
f 238/4/4 232/4/4 243/4/4
f 242/2/4 238/2/4 243/2/4
f 243/4/4 232/4/4 244/4/4
f 240/3/4 241/3/4 245/3/4
f 245/3/4 241/3/4 246/3/4
f 242/3/4 243/3/4 247/3/4
f 247/3/4 243/3/4 248/3/4
f 251/3/5 250/3/5 249/3/5
f 252/3/5 250/3/5 251/3/5
f 255/3/5 254/3/5 253/3/5
f 256/3/5 254/3/5 255/3/5
f 259/3/5 258/3/5 257/3/5
f 260/3/5 258/3/5 259/3/5
f 263/1/5 262/1/5 261/1/5
f 264/1/5 262/1/5 263/1/5
f 266/3/5 264/3/5 263/3/5
f 266/3/5 265/3/5 264/3/5
f 267/3/5 265/3/5 266/3/5
f 268/3/5 265/3/5 267/3/5
f 272/3/5 265/3/5 268/3/5
f 273/3/5 265/3/5 272/3/5
f 274/3/5 270/3/5 269/3/5
f 275/3/5 270/3/5 274/3/5
f 276/3/5 273/3/5 272/3/5
f 276/3/5 272/3/5 271/3/5
f 276/3/5 274/3/5 273/3/5
f 277/3/5 274/3/5 276/3/5
f 280/1/5 279/1/5 278/1/5
f 281/1/5 279/1/5 280/1/5
f 284/3/5 283/3/5 282/3/5
f 285/3/5 283/3/5 284/3/5
f 288/3/5 287/3/5 286/3/5
f 289/3/5 287/3/5 288/3/5
f 292/3/5 291/3/5 290/3/5
f 293/3/5 291/3/5 292/3/5
f 299/3/5 295/3/5 294/3/5
f 300/3/5 295/3/5 299/3/5
f 301/3/5 297/3/5 296/3/5
f 302/3/5 297/3/5 301/3/5
f 304/3/5 299/3/5 298/3/5
f 305/3/5 299/3/5 304/3/5
f 308/3/5 303/3/5 302/3/5
f 309/3/5 303/3/5 308/3/5
f 310/3/5 306/3/5 305/3/5
f 311/3/5 306/3/5 310/3/5
f 312/3/5 308/3/5 307/3/5
f 313/3/5 308/3/5 312/3/5
f 316/4/5 315/4/5 314/4/5
f 317/4/5 315/4/5 316/4/5
f 322/4/5 319/4/5 318/4/5
f 323/4/5 319/4/5 322/4/5
f 324/4/5 321/4/5 320/4/5
f 325/4/5 321/4/5 324/4/5
f 326/1/6 327/1/6 328/1/6
f 328/1/6 327/1/6 329/1/6
f 328/3/6 329/3/6 330/3/6
f 330/3/6 329/3/6 331/3/6
f 332/3/6 333/3/6 334/3/6
f 334/3/6 333/3/6 335/3/6
f 336/1/6 337/1/6 338/1/6
f 338/1/6 337/1/6 339/1/6
f 340/3/6 341/3/6 342/3/6
f 342/3/6 341/3/6 343/3/6
f 344/3/6 345/3/6 349/3/6
f 349/3/6 345/3/6 350/3/6
f 345/2/6 346/2/6 351/2/6
f 350/3/6 345/3/6 351/3/6
f 346/3/6 347/3/6 352/3/6
f 351/2/6 346/2/6 352/2/6
f 352/3/6 347/3/6 353/3/6
f 348/3/6 349/3/6 355/3/6
f 349/2/6 350/2/6 356/2/6
f 355/3/6 349/3/6 356/3/6
f 356/2/6 350/2/6 357/2/6
f 352/2/6 353/2/6 358/2/6
f 353/3/6 354/3/6 359/3/6
f 358/2/6 353/2/6 359/2/6
f 359/3/6 354/3/6 360/3/6
f 356/3/6 357/3/6 361/3/6
f 361/3/6 357/3/6 362/3/6
f 358/3/6 359/3/6 363/3/6
f 363/3/6 359/3/6 364/3/6
f 365/4/6 366/4/6 367/4/6
f 367/4/6 366/4/6 368/4/6
