# MagicaVoxel @ Ephtracy

# group
o 

# material
mtllib 0.mtl
usemtl palette

# normals
vn -1 0 0
vn 1 0 0
vn 0 0 1
vn 0 0 -1
vn 0 -1 0
vn 0 1 0

# texcoords
vt 0.0605469 0.5
vt 0.537109 0.5
vt 0.916016 0.5
vt 0.970703 0.5
vt 0.986328 0.5

# verts
v 0.7 2.1 -0.8
v 0.7 2.1 -1.1
v 0.7 2.2 -0.7
v 0.7 2.2 -0.8
v 0.7 2.2 -1.1
v 0.7 2.2 -1.2
v 0.7 2.3 -0.7
v 0.7 2.3 -0.8
v 0.7 2.3 -0.9
v 0.7 2.3 -1
v 0.7 2.3 -1.1
v 0.7 2.3 -1.2
v 0.7 2.4 -0.8
v 0.7 2.4 -0.9
v 0.7 2.4 -1
v 0.7 2.4 -1.1
v 0.7 2.7 -0.9
v 0.7 2.7 -1
v 0.7 2.9 -0.7
v 0.7 2.9 -1.2
v 0.7 3 -0.7
v 0.7 3 -1.2
v 0.8 2 -0.9
v 0.8 2 -1
v 0.8 2.1 -0.9
v 0.8 2.1 -1
v 0.8 2.2 -0.9
v 0.8 2.2 -1
v 0.8 2.3 -0.9
v 0.8 2.3 -1
v 0.8 2.4 -0.8
v 0.8 2.4 -0.9
v 0.8 2.4 -1
v 0.8 2.4 -1.1
v 0.8 2.5 -0.8
v 0.8 2.5 -0.9
v 0.8 2.5 -1
v 0.8 2.5 -1.1
v 0.8 2.7 -0.8
v 0.8 2.7 -0.9
v 0.8 2.7 -1
v 0.8 2.7 -1.1
v 0.8 2.8 -0.8
v 0.8 2.8 -0.9
v 0.8 2.9 -0.8
v 0.8 2.9 -0.9
v 0.8 2.9 -1.1
v 0.8 3 -0.8
v 0.8 3 -1.1
v 0.8 3.1 -0.8
v 0.8 3.1 -1.1
v 0.9 2.3 -1.1
v 0.9 2.3 -1.2
v 0.9 2.4 -1.1
v 0.9 2.5 -1.1
v 0.9 2.7 -1.1
v 0.9 2.7 -1.2
v 1 2 -0.9
v 1 2 -1
v 1 2.3 -0.9
v 1 2.3 -1
v 0.8 2.1 -0.8
v 0.8 2.1 -0.9
v 0.8 2.1 -1
v 0.8 2.1 -1.1
v 0.8 2.2 -0.7
v 0.8 2.2 -0.8
v 0.8 2.2 -0.9
v 0.8 2.2 -1
v 0.8 2.2 -1.1
v 0.8 2.2 -1.2
v 0.8 2.3 -0.7
v 0.8 2.3 -0.8
v 0.8 2.3 -1.1
v 0.8 2.3 -1.2
v 0.9 2 -0.9
v 0.9 2 -1
v 0.9 2.3 -0.9
v 0.9 2.3 -1
v 1.1 2 -0.9
v 1.1 2 -1
v 1.1 2.3 -0.8
v 1.1 2.3 -0.9
v 1.1 2.3 -1
v 1.1 2.3 -1.1
v 1.1 2.3 -1.2
v 1.1 2.6 -0.8
v 1.1 2.6 -0.9
v 1.1 2.6 -1
v 1.1 2.6 -1.1
v 1.1 2.7 -0.8
v 1.1 2.7 -0.9
v 1.1 2.7 -1
v 1.1 2.7 -1.1
v 1.1 2.7 -1.2
v 1.1 2.8 -0.8
v 1.1 2.8 -0.9
v 1.1 2.9 -0.8
v 1.1 2.9 -0.9
v 1.1 2.9 -1.1
v 1.1 3 -0.8
v 1.1 3 -1.1
v 1.1 3.1 -0.8
v 1.1 3.1 -1.1
v 1.2 2.3 -0.9
v 1.2 2.3 -1
v 1.2 2.7 -0.9
v 1.2 2.7 -1
v 1.2 2.9 -0.7
v 1.2 2.9 -1.2
v 1.2 3 -0.7
v 1.2 3 -1.2
v 0.7 2.2 -0.7
v 0.7 2.3 -0.7
v 0.7 2.9 -0.7
v 0.7 3 -0.7
v 0.8 2.2 -0.7
v 0.8 2.3 -0.7
v 1.2 2.9 -0.7
v 1.2 3 -0.7
v 0.7 2.1 -0.8
v 0.7 2.2 -0.8
v 0.7 2.3 -0.8
v 0.7 2.4 -0.8
v 0.8 2.1 -0.8
v 0.8 2.2 -0.8
v 0.8 2.3 -0.8
v 0.8 2.4 -0.8
v 0.8 2.5 -0.8
v 0.8 2.7 -0.8
v 0.8 2.8 -0.8
v 0.8 2.9 -0.8
v 0.8 3 -0.8
v 0.8 3.1 -0.8
v 0.9 2.4 -0.8
v 0.9 2.5 -0.8
v 0.9 2.6 -0.8
v 0.9 2.8 -0.8
v 0.9 2.9 -0.8
v 1 2.5 -0.8
v 1 2.6 -0.8
v 1 2.7 -0.8
v 1 2.8 -0.8
v 1 2.9 -0.8
v 1.1 2.3 -0.8
v 1.1 2.6 -0.8
v 1.1 2.7 -0.8
v 1.1 2.8 -0.8
v 1.1 2.9 -0.8
v 1.1 3 -0.8
v 1.1 3.1 -0.8
v 0.7 2.4 -0.9
v 0.7 2.7 -0.9
v 0.8 2 -0.9
v 0.8 2.1 -0.9
v 0.8 2.2 -0.9
v 0.8 2.3 -0.9
v 0.8 2.4 -0.9
v 0.8 2.5 -0.9
v 0.8 2.7 -0.9
v 0.9 2 -0.9
v 0.9 2.3 -0.9
v 1 2 -0.9
v 1 2.3 -0.9
v 1.1 2 -0.9
v 1.1 2.3 -0.9
v 1.1 2.6 -0.9
v 1.1 2.7 -0.9
v 1.2 2.3 -0.9
v 1.2 2.7 -0.9
v 0.7 2.2 -1.1
v 0.7 2.3 -1.1
v 0.8 2.2 -1.1
v 0.8 2.3 -1.1
v 0.7 2.2 -0.8
v 0.7 2.3 -0.8
v 0.8 2.2 -0.8
v 0.8 2.3 -0.8
v 0.7 2.4 -1
v 0.7 2.7 -1
v 0.8 2 -1
v 0.8 2.1 -1
v 0.8 2.2 -1
v 0.8 2.3 -1
v 0.8 2.4 -1
v 0.8 2.5 -1
v 0.8 2.7 -1
v 0.9 2 -1
v 0.9 2.3 -1
v 1 2 -1
v 1 2.3 -1
v 1.1 2 -1
v 1.1 2.3 -1
v 1.1 2.6 -1
v 1.1 2.7 -1
v 1.2 2.3 -1
v 1.2 2.7 -1
v 0.7 2.1 -1.1
v 0.7 2.2 -1.1
v 0.7 2.3 -1.1
v 0.7 2.4 -1.1
v 0.8 2.1 -1.1
v 0.8 2.2 -1.1
v 0.8 2.3 -1.1
v 0.8 2.4 -1.1
v 0.8 2.5 -1.1
v 0.8 2.7 -1.1
v 0.8 2.9 -1.1
v 0.8 3 -1.1
v 0.8 3.1 -1.1
v 0.9 2.3 -1.1
v 0.9 2.4 -1.1
v 0.9 2.5 -1.1
v 0.9 2.7 -1.1
v 1.1 2.7 -1.1
v 1.1 2.9 -1.1
v 1.1 3 -1.1
v 1.1 3.1 -1.1
v 0.7 2.2 -1.2
v 0.7 2.3 -1.2
v 0.7 2.9 -1.2
v 0.7 3 -1.2
v 0.8 2.2 -1.2
v 0.8 2.3 -1.2
v 0.9 2.3 -1.2
v 0.9 2.7 -1.2
v 1.1 2.3 -1.2
v 1.1 2.7 -1.2
v 1.2 2.9 -1.2
v 1.2 3 -1.2
v 0.8 2 -0.9
v 0.9 2 -0.9
v 1 2 -0.9
v 1.1 2 -0.9
v 0.8 2 -1
v 0.9 2 -1
v 1 2 -1
v 1.1 2 -1
v 0.7 2.1 -0.8
v 0.8 2.1 -0.8
v 0.8 2.1 -0.9
v 0.8 2.1 -1
v 0.7 2.1 -1.1
v 0.8 2.1 -1.1
v 0.7 2.2 -0.7
v 0.8 2.2 -0.7
v 0.7 2.2 -0.8
v 0.8 2.2 -0.8
v 0.7 2.2 -1.1
v 0.8 2.2 -1.1
v 0.7 2.2 -1.2
v 0.8 2.2 -1.2
v 0.7 2.3 -0.8
v 0.8 2.3 -0.8
v 1.1 2.3 -0.8
v 0.7 2.3 -0.9
v 0.8 2.3 -0.9
v 0.9 2.3 -0.9
v 1 2.3 -0.9
v 1.1 2.3 -0.9
v 1.2 2.3 -0.9
v 0.7 2.3 -1
v 0.8 2.3 -1
v 0.9 2.3 -1
v 1 2.3 -1
v 1.1 2.3 -1
v 1.2 2.3 -1
v 0.7 2.3 -1.1
v 0.8 2.3 -1.1
v 0.9 2.3 -1.1
v 1.1 2.3 -1.1
v 0.9 2.3 -1.2
v 1.1 2.3 -1.2
v 0.7 2.9 -0.7
v 1.2 2.9 -0.7
v 0.8 2.9 -0.8
v 0.9 2.9 -0.8
v 1 2.9 -0.8
v 1.1 2.9 -0.8
v 0.8 2.9 -0.9
v 1.1 2.9 -0.9
v 0.8 2.9 -1.1
v 1.1 2.9 -1.1
v 0.7 2.9 -1.2
v 1.2 2.9 -1.2
v 0.7 2.2 -0.8
v 0.8 2.2 -0.8
v 0.8 2.2 -0.9
v 0.8 2.2 -1
v 0.7 2.2 -1.1
v 0.8 2.2 -1.1
v 0.7 2.3 -0.7
v 0.8 2.3 -0.7
v 0.7 2.3 -0.8
v 0.8 2.3 -0.8
v 0.7 2.3 -1.1
v 0.8 2.3 -1.1
v 0.7 2.3 -1.2
v 0.8 2.3 -1.2
v 0.7 2.4 -0.8
v 0.8 2.4 -0.8
v 0.7 2.4 -0.9
v 0.8 2.4 -0.9
v 0.7 2.4 -1
v 0.8 2.4 -1
v 0.7 2.4 -1.1
v 0.8 2.4 -1.1
v 0.7 2.7 -0.9
v 0.8 2.7 -0.9
v 1.1 2.7 -0.9
v 1.2 2.7 -0.9
v 0.7 2.7 -1
v 0.8 2.7 -1
v 1.1 2.7 -1
v 1.2 2.7 -1
v 0.9 2.7 -1.1
v 1.1 2.7 -1.1
v 0.9 2.7 -1.2
v 1.1 2.7 -1.2
v 0.7 3 -0.7
v 1.2 3 -0.7
v 0.8 3 -0.8
v 1.1 3 -0.8
v 0.8 3 -1.1
v 1.1 3 -1.1
v 0.7 3 -1.2
v 1.2 3 -1.2
v 0.8 3.1 -0.8
v 1.1 3.1 -0.8
v 0.8 3.1 -1.1
v 1.1 3.1 -1.1

# faces
f 4/2/1 2/2/1 1/2/1
f 5/2/1 2/2/1 4/2/1
f 7/2/1 4/2/1 3/2/1
f 8/2/1 4/2/1 7/2/1
f 11/2/1 6/2/1 5/2/1
f 12/2/1 6/2/1 11/2/1
f 13/4/1 9/4/1 8/4/1
f 14/3/1 10/3/1 9/3/1
f 14/4/1 9/4/1 13/4/1
f 15/4/1 11/4/1 10/4/1
f 15/3/1 10/3/1 14/3/1
f 16/4/1 11/4/1 15/4/1
f 17/3/1 15/3/1 14/3/1
f 18/3/1 15/3/1 17/3/1
f 21/3/1 20/3/1 19/3/1
f 22/3/1 20/3/1 21/3/1
f 25/3/1 24/3/1 23/3/1
f 26/3/1 24/3/1 25/3/1
f 29/3/1 28/3/1 27/3/1
f 30/3/1 28/3/1 29/3/1
f 35/5/1 32/5/1 31/5/1
f 36/5/1 32/5/1 35/5/1
f 37/5/1 34/5/1 33/5/1
f 38/5/1 34/5/1 37/5/1
f 39/3/1 36/3/1 35/3/1
f 40/3/1 36/3/1 39/3/1
f 41/3/1 38/3/1 37/3/1
f 42/3/1 38/3/1 41/3/1
f 43/1/1 40/1/1 39/1/1
f 43/1/1 41/1/1 40/1/1
f 43/1/1 42/1/1 41/1/1
f 44/1/1 42/1/1 43/1/1
f 45/3/1 44/3/1 43/3/1
f 46/1/1 42/1/1 44/1/1
f 46/3/1 44/3/1 45/3/1
f 47/1/1 42/1/1 46/1/1
f 50/5/1 49/5/1 48/5/1
f 51/5/1 49/5/1 50/5/1
f 54/2/1 53/2/1 52/2/1
f 55/2/1 53/2/1 54/2/1
f 56/2/1 53/2/1 55/2/1
f 57/2/1 53/2/1 56/2/1
f 60/3/1 59/3/1 58/3/1
f 61/3/1 59/3/1 60/3/1
f 62/2/2 63/2/2 67/2/2
f 67/2/2 63/2/2 68/2/2
f 64/2/2 65/2/2 69/2/2
f 69/2/2 65/2/2 70/2/2
f 66/2/2 67/2/2 72/2/2
f 72/2/2 67/2/2 73/2/2
f 70/2/2 71/2/2 74/2/2
f 74/2/2 71/2/2 75/2/2
f 76/3/2 77/3/2 78/3/2
f 78/3/2 77/3/2 79/3/2
f 80/3/2 81/3/2 83/3/2
f 83/3/2 81/3/2 84/3/2
f 82/3/2 83/3/2 87/3/2
f 87/3/2 83/3/2 88/3/2
f 84/3/2 85/3/2 89/3/2
f 85/2/2 86/2/2 90/2/2
f 89/3/2 85/3/2 90/3/2
f 87/5/2 88/5/2 91/5/2
f 91/5/2 88/5/2 92/5/2
f 89/5/2 90/5/2 93/5/2
f 90/2/2 86/2/2 94/2/2
f 93/5/2 90/5/2 94/5/2
f 94/2/2 86/2/2 95/2/2
f 92/1/2 93/1/2 96/1/2
f 91/1/2 92/1/2 96/1/2
f 93/1/2 94/1/2 96/1/2
f 96/1/2 94/1/2 97/1/2
f 96/3/2 97/3/2 98/3/2
f 97/1/2 94/1/2 99/1/2
f 98/3/2 97/3/2 99/3/2
f 99/1/2 94/1/2 100/1/2
f 101/5/2 102/5/2 103/5/2
f 103/5/2 102/5/2 104/5/2
f 105/3/2 106/3/2 107/3/2
f 107/3/2 106/3/2 108/3/2
f 109/3/2 110/3/2 111/3/2
f 111/3/2 110/3/2 112/3/2
f 117/2/3 114/2/3 113/2/3
f 118/2/3 114/2/3 117/2/3
f 119/3/3 116/3/3 115/3/3
f 120/3/3 116/3/3 119/3/3
f 125/2/3 122/2/3 121/2/3
f 126/2/3 122/2/3 125/2/3
f 127/4/3 124/4/3 123/4/3
f 128/4/3 124/4/3 127/4/3
f 135/3/3 128/3/3 127/3/3
f 135/5/3 129/5/3 128/5/3
f 136/3/3 130/3/3 129/3/3
f 136/5/3 129/5/3 135/5/3
f 137/3/3 130/3/3 136/3/3
f 138/3/3 132/3/3 131/3/3
f 138/1/3 131/1/3 130/1/3
f 139/3/3 132/3/3 138/3/3
f 140/5/3 137/5/3 136/5/3
f 140/3/3 136/3/3 135/3/3
f 141/3/3 130/3/3 137/3/3
f 141/5/3 137/5/3 140/5/3
f 142/1/3 139/1/3 138/1/3
f 142/3/3 130/3/3 141/3/3
f 142/1/3 138/1/3 130/1/3
f 143/1/3 139/1/3 142/1/3
f 144/1/3 139/1/3 143/1/3
f 145/3/3 140/3/3 135/3/3
f 145/3/3 135/3/3 127/3/3
f 145/3/3 141/3/3 140/3/3
f 146/5/3 142/5/3 141/5/3
f 146/3/3 141/3/3 145/3/3
f 147/1/3 143/1/3 142/1/3
f 147/5/3 142/5/3 146/5/3
f 148/3/3 144/3/3 143/3/3
f 148/1/3 143/1/3 147/1/3
f 149/3/3 144/3/3 148/3/3
f 150/5/3 134/5/3 133/5/3
f 151/5/3 134/5/3 150/5/3
f 158/3/3 153/3/3 152/3/3
f 159/3/3 153/3/3 158/3/3
f 160/3/3 153/3/3 159/3/3
f 161/3/3 157/3/3 156/3/3
f 161/3/3 155/3/3 154/3/3
f 161/3/3 156/3/3 155/3/3
f 162/3/3 157/3/3 161/3/3
f 165/3/3 164/3/3 163/3/3
f 166/3/3 164/3/3 165/3/3
f 169/3/3 168/3/3 167/3/3
f 169/3/3 167/3/3 166/3/3
f 170/3/3 168/3/3 169/3/3
f 173/2/3 172/2/3 171/2/3
f 174/2/3 172/2/3 173/2/3
f 175/2/4 176/2/4 177/2/4
f 177/2/4 176/2/4 178/2/4
f 179/3/4 180/3/4 185/3/4
f 185/3/4 180/3/4 186/3/4
f 186/3/4 180/3/4 187/3/4
f 183/3/4 184/3/4 188/3/4
f 181/3/4 182/3/4 188/3/4
f 182/3/4 183/3/4 188/3/4
f 188/3/4 184/3/4 189/3/4
f 190/3/4 191/3/4 192/3/4
f 192/3/4 191/3/4 193/3/4
f 194/3/4 195/3/4 196/3/4
f 193/3/4 194/3/4 196/3/4
f 196/3/4 195/3/4 197/3/4
f 198/2/4 199/2/4 202/2/4
f 202/2/4 199/2/4 203/2/4
f 200/4/4 201/4/4 204/4/4
f 204/4/4 201/4/4 205/4/4
f 204/3/4 205/3/4 211/3/4
f 205/5/4 206/5/4 212/5/4
f 211/3/4 205/3/4 212/3/4
f 206/3/4 207/3/4 213/3/4
f 212/5/4 206/5/4 213/5/4
f 207/1/4 208/1/4 214/1/4
f 213/3/4 207/3/4 214/3/4
f 214/1/4 208/1/4 215/1/4
f 215/1/4 208/1/4 216/1/4
f 209/5/4 210/5/4 217/5/4
f 217/5/4 210/5/4 218/5/4
f 219/2/4 220/2/4 223/2/4
f 223/2/4 220/2/4 224/2/4
f 225/2/4 226/2/4 227/2/4
f 227/2/4 226/2/4 228/2/4
f 221/3/4 222/3/4 229/3/4
f 229/3/4 222/3/4 230/3/4
f 235/3/5 232/3/5 231/3/5
f 236/3/5 232/3/5 235/3/5
f 237/3/5 234/3/5 233/3/5
f 238/3/5 234/3/5 237/3/5
f 241/2/5 240/2/5 239/2/5
f 242/2/5 241/2/5 239/2/5
f 243/2/5 242/2/5 239/2/5
f 244/2/5 242/2/5 243/2/5
f 247/2/5 246/2/5 245/2/5
f 248/2/5 246/2/5 247/2/5
f 251/2/5 250/2/5 249/2/5
f 252/2/5 250/2/5 251/2/5
f 256/4/5 254/4/5 253/4/5
f 257/3/5 255/3/5 254/3/5
f 257/4/5 254/4/5 256/4/5
f 258/3/5 255/3/5 257/3/5
f 259/3/5 255/3/5 258/3/5
f 260/3/5 255/3/5 259/3/5
f 262/3/5 257/3/5 256/3/5
f 263/3/5 257/3/5 262/3/5
f 264/3/5 259/3/5 258/3/5
f 265/3/5 259/3/5 264/3/5
f 266/3/5 261/3/5 260/3/5
f 267/3/5 261/3/5 266/3/5
f 268/4/5 263/4/5 262/4/5
f 269/3/5 265/3/5 264/3/5
f 269/4/5 263/4/5 268/4/5
f 269/3/5 264/3/5 263/3/5
f 269/3/5 266/3/5 265/3/5
f 270/3/5 266/3/5 269/3/5
f 271/3/5 266/3/5 270/3/5
f 272/2/5 271/2/5 270/2/5
f 273/2/5 271/2/5 272/2/5
f 276/3/5 275/3/5 274/3/5
f 277/3/5 275/3/5 276/3/5
f 278/3/5 275/3/5 277/3/5
f 279/3/5 275/3/5 278/3/5
f 280/3/5 276/3/5 274/3/5
f 281/3/5 275/3/5 279/3/5
f 282/3/5 280/3/5 274/3/5
f 283/3/5 275/3/5 281/3/5
f 284/3/5 282/3/5 274/3/5
f 284/3/5 283/3/5 282/3/5
f 285/3/5 275/3/5 283/3/5
f 285/3/5 283/3/5 284/3/5
f 286/2/6 287/2/6 288/2/6
f 286/2/6 288/2/6 289/2/6
f 286/2/6 289/2/6 290/2/6
f 290/2/6 289/2/6 291/2/6
f 292/2/6 293/2/6 294/2/6
f 294/2/6 293/2/6 295/2/6
f 296/2/6 297/2/6 298/2/6
f 298/2/6 297/2/6 299/2/6
f 300/4/6 301/4/6 302/4/6
f 302/4/6 301/4/6 303/4/6
f 304/4/6 305/4/6 306/4/6
f 306/4/6 305/4/6 307/4/6
f 308/3/6 309/3/6 312/3/6
f 312/3/6 309/3/6 313/3/6
f 310/3/6 311/3/6 314/3/6
f 314/3/6 311/3/6 315/3/6
f 316/2/6 317/2/6 318/2/6
f 318/2/6 317/2/6 319/2/6
f 320/3/6 321/3/6 322/3/6
f 322/3/6 321/3/6 323/3/6
f 320/3/6 322/3/6 324/3/6
f 323/3/6 321/3/6 325/3/6
f 320/3/6 324/3/6 326/3/6
f 324/3/6 325/3/6 326/3/6
f 325/3/6 321/3/6 327/3/6
f 326/3/6 325/3/6 327/3/6
f 328/5/6 329/5/6 330/5/6
f 330/5/6 329/5/6 331/5/6
