# MagicaVoxel @ Ephtracy

# group
o 

# material
mtllib 0.mtl
usemtl palette

# normals
vn -1 0 0
vn 1 0 0
vn 0 0 1
vn 0 0 -1
vn 0 -1 0
vn 0 1 0

# texcoords
vt 0.0605469 0.5
vt 0.537109 0.5
vt 0.689453 0.5
vt 0.697266 0.5
vt 0.705078 0.5
vt 0.986328 0.5

# verts
v 0.7 2.3 -0.4
v 0.7 2.3 -0.5
v 0.7 2.3 -0.9
v 0.7 2.3 -1
v 0.7 2.3 -1.3
v 0.7 2.4 -0.4
v 0.7 2.4 -0.5
v 0.7 2.4 -0.9
v 0.7 2.4 -1
v 0.7 2.4 -1.3
v 0.7 2.7 -0.9
v 0.7 2.7 -1
v 0.7 3 -0.7
v 0.7 3 -1.2
v 0.7 3.1 -0.7
v 0.7 3.1 -1.2
v 0.8 2.1 -0.8
v 0.8 2.1 -0.9
v 0.8 2.2 -0.9
v 0.8 2.2 -1
v 0.8 2.3 -0.8
v 0.8 2.3 -0.9
v 0.8 2.3 -1
v 0.8 2.4 -0.8
v 0.8 2.4 -0.9
v 0.8 2.4 -1
v 0.8 2.4 -1.1
v 0.8 2.5 -0.8
v 0.8 2.5 -0.9
v 0.8 2.5 -1
v 0.8 2.5 -1.1
v 0.8 2.7 -0.8
v 0.8 2.7 -0.9
v 0.8 2.7 -1
v 0.8 2.7 -1.1
v 0.8 2.8 -0.8
v 0.8 2.8 -0.9
v 0.8 2.9 -0.8
v 0.8 2.9 -0.9
v 0.8 3 -0.8
v 0.8 3 -1.1
v 0.8 3.1 -0.8
v 0.8 3.1 -1.1
v 0.8 3.2 -0.8
v 0.8 3.2 -1.1
v 0.9 3.2 -0.9
v 0.9 3.2 -1.1
v 0.9 3.3 -0.9
v 0.9 3.3 -1
v 0.9 3.3 -1.1
v 0.9 3.3 -1.2
v 0.9 3.4 -1
v 0.9 3.4 -1.2
v 1 2 -0.9
v 1 2 -1
v 1 2.3 -0.9
v 1 2.3 -1
v 0.8 2.3 -0.4
v 0.8 2.3 -0.5
v 0.8 2.3 -0.8
v 0.8 2.3 -1.1
v 0.8 2.3 -1.3
v 0.8 2.4 -0.4
v 0.8 2.4 -0.5
v 0.8 2.4 -0.8
v 0.8 2.4 -1.1
v 0.8 2.4 -1.3
v 0.9 2.1 -0.8
v 0.9 2.1 -0.9
v 0.9 2.2 -0.9
v 0.9 2.2 -1
v 0.9 2.3 -0.8
v 0.9 2.3 -1
v 1 3.2 -0.9
v 1 3.2 -1.1
v 1 3.3 -0.9
v 1 3.3 -1
v 1 3.3 -1.1
v 1 3.3 -1.2
v 1 3.4 -1
v 1 3.4 -1.2
v 1.1 2 -0.9
v 1.1 2 -1
v 1.1 2.3 -0.8
v 1.1 2.3 -0.9
v 1.1 2.3 -1
v 1.1 2.3 -1.1
v 1.1 2.4 -0.9
v 1.1 2.4 -1
v 1.1 2.4 -1.1
v 1.1 2.6 -0.8
v 1.1 2.6 -0.9
v 1.1 2.6 -1
v 1.1 2.6 -1.1
v 1.1 2.7 -0.8
v 1.1 2.7 -0.9
v 1.1 2.7 -1
v 1.1 2.7 -1.1
v 1.1 2.8 -0.8
v 1.1 2.8 -0.9
v 1.1 2.9 -0.8
v 1.1 2.9 -0.9
v 1.1 3 -0.8
v 1.1 3 -1.1
v 1.1 3.1 -0.8
v 1.1 3.1 -1.1
v 1.1 3.2 -0.8
v 1.1 3.2 -1.1
v 1.2 2.3 -0.9
v 1.2 2.3 -1
v 1.2 2.4 -0.9
v 1.2 2.4 -1
v 1.2 2.4 -1.1
v 1.2 2.6 -0.9
v 1.2 2.6 -1
v 1.2 2.6 -1.1
v 1.2 2.7 -0.9
v 1.2 2.7 -1
v 1.2 3 -0.7
v 1.2 3 -1.2
v 1.2 3.1 -0.7
v 1.2 3.1 -1.2
v 0.7 2.3 -0.4
v 0.7 2.4 -0.4
v 0.8 2.3 -0.4
v 0.8 2.4 -0.4
v 0.7 3 -0.7
v 0.7 3.1 -0.7
v 1.2 3 -0.7
v 1.2 3.1 -0.7
v 0.8 2.1 -0.8
v 0.8 2.3 -0.8
v 0.8 2.4 -0.8
v 0.8 2.5 -0.8
v 0.8 2.7 -0.8
v 0.8 2.8 -0.8
v 0.8 2.9 -0.8
v 0.8 3 -0.8
v 0.8 3.1 -0.8
v 0.8 3.2 -0.8
v 0.9 2.1 -0.8
v 0.9 2.3 -0.8
v 0.9 2.4 -0.8
v 0.9 2.5 -0.8
v 0.9 2.6 -0.8
v 0.9 2.8 -0.8
v 0.9 2.9 -0.8
v 1 2.5 -0.8
v 1 2.6 -0.8
v 1 2.7 -0.8
v 1 2.8 -0.8
v 1 2.9 -0.8
v 1.1 2.3 -0.8
v 1.1 2.6 -0.8
v 1.1 2.7 -0.8
v 1.1 2.8 -0.8
v 1.1 2.9 -0.8
v 1.1 3 -0.8
v 1.1 3.1 -0.8
v 1.1 3.2 -0.8
v 0.7 2.4 -0.9
v 0.7 2.7 -0.9
v 0.8 2.4 -0.9
v 0.8 2.5 -0.9
v 0.8 2.7 -0.9
v 0.9 3.2 -0.9
v 0.9 3.3 -0.9
v 1 2 -0.9
v 1 2.3 -0.9
v 1 3.2 -0.9
v 1 3.3 -0.9
v 1.1 2 -0.9
v 1.1 2.3 -0.9
v 1.1 2.4 -0.9
v 1.1 2.6 -0.9
v 1.1 2.7 -0.9
v 1.2 2.3 -0.9
v 1.2 2.4 -0.9
v 1.2 2.6 -0.9
v 1.2 2.7 -0.9
v 0.9 3.3 -1
v 0.9 3.4 -1
v 1 3.3 -1
v 1 3.4 -1
v 1.1 2.4 -1
v 1.1 2.6 -1
v 1.2 2.4 -1
v 1.2 2.6 -1
v 0.8 2.1 -0.9
v 0.8 2.2 -0.9
v 0.9 2.1 -0.9
v 0.9 2.2 -0.9
v 0.7 2.4 -1
v 0.7 2.7 -1
v 0.8 2.2 -1
v 0.8 2.3 -1
v 0.8 2.4 -1
v 0.8 2.5 -1
v 0.8 2.7 -1
v 0.9 2.2 -1
v 0.9 2.3 -1
v 1 2 -1
v 1 2.3 -1
v 1.1 2 -1
v 1.1 2.3 -1
v 1.1 2.4 -1
v 1.1 2.6 -1
v 1.1 2.7 -1
v 1.2 2.3 -1
v 1.2 2.4 -1
v 1.2 2.6 -1
v 1.2 2.7 -1
v 0.8 2.3 -1.1
v 0.8 2.4 -1.1
v 0.8 2.5 -1.1
v 0.8 2.7 -1.1
v 0.8 3 -1.1
v 0.8 3.1 -1.1
v 0.8 3.2 -1.1
v 0.9 2.4 -1.1
v 0.9 2.5 -1.1
v 0.9 2.6 -1.1
v 0.9 3.1 -1.1
v 0.9 3.2 -1.1
v 0.9 3.3 -1.1
v 1 2.5 -1.1
v 1 2.6 -1.1
v 1 2.7 -1.1
v 1 3.1 -1.1
v 1 3.2 -1.1
v 1 3.3 -1.1
v 1.1 2.3 -1.1
v 1.1 2.4 -1.1
v 1.1 2.6 -1.1
v 1.1 2.7 -1.1
v 1.1 3 -1.1
v 1.1 3.1 -1.1
v 1.1 3.2 -1.1
v 1.2 2.4 -1.1
v 1.2 2.6 -1.1
v 0.7 3 -1.2
v 0.7 3.1 -1.2
v 0.9 3.3 -1.2
v 0.9 3.4 -1.2
v 1 3.3 -1.2
v 1 3.4 -1.2
v 1.2 3 -1.2
v 1.2 3.1 -1.2
v 0.7 2.3 -1.3
v 0.7 2.4 -1.3
v 0.8 2.3 -1.3
v 0.8 2.4 -1.3
v 1 2 -0.9
v 1.1 2 -0.9
v 1 2 -1
v 1.1 2 -1
v 0.8 2.1 -0.8
v 0.9 2.1 -0.8
v 0.8 2.1 -0.9
v 0.9 2.1 -0.9
v 0.8 2.2 -0.9
v 0.9 2.2 -0.9
v 0.8 2.2 -1
v 0.9 2.2 -1
v 0.7 2.3 -0.4
v 0.8 2.3 -0.4
v 0.7 2.3 -0.5
v 0.8 2.3 -0.5
v 0.8 2.3 -0.8
v 0.9 2.3 -0.8
v 1.1 2.3 -0.8
v 0.7 2.3 -0.9
v 0.8 2.3 -0.9
v 1 2.3 -0.9
v 1.1 2.3 -0.9
v 1.2 2.3 -0.9
v 0.7 2.3 -1
v 0.8 2.3 -1
v 0.9 2.3 -1
v 1 2.3 -1
v 1.1 2.3 -1
v 1.2 2.3 -1
v 0.8 2.3 -1.1
v 1.1 2.3 -1.1
v 0.7 2.3 -1.3
v 0.8 2.3 -1.3
v 1.1 2.4 -1
v 1.2 2.4 -1
v 1.1 2.4 -1.1
v 1.2 2.4 -1.1
v 1.1 2.6 -0.9
v 1.2 2.6 -0.9
v 1.1 2.6 -1
v 1.2 2.6 -1
v 0.7 3 -0.7
v 1.2 3 -0.7
v 0.8 3 -0.8
v 1.1 3 -0.8
v 0.8 3 -1.1
v 1.1 3 -1.1
v 0.7 3 -1.2
v 1.2 3 -1.2
v 0.9 3.3 -1.1
v 1 3.3 -1.1
v 0.9 3.3 -1.2
v 1 3.3 -1.2
v 0.7 2.4 -0.4
v 0.8 2.4 -0.4
v 0.7 2.4 -0.5
v 0.8 2.4 -0.5
v 0.8 2.4 -0.8
v 0.7 2.4 -0.9
v 0.8 2.4 -0.9
v 1.1 2.4 -0.9
v 1.2 2.4 -0.9
v 0.7 2.4 -1
v 0.8 2.4 -1
v 1.1 2.4 -1
v 1.2 2.4 -1
v 0.8 2.4 -1.1
v 0.7 2.4 -1.3
v 0.8 2.4 -1.3
v 1.1 2.6 -1
v 1.2 2.6 -1
v 1.1 2.6 -1.1
v 1.2 2.6 -1.1
v 0.7 2.7 -0.9
v 0.8 2.7 -0.9
v 1.1 2.7 -0.9
v 1.2 2.7 -0.9
v 0.7 2.7 -1
v 0.8 2.7 -1
v 1.1 2.7 -1
v 1.2 2.7 -1
v 0.7 3.1 -0.7
v 1.2 3.1 -0.7
v 0.8 3.1 -0.8
v 1.1 3.1 -0.8
v 0.8 3.1 -1.1
v 0.9 3.1 -1.1
v 1 3.1 -1.1
v 1.1 3.1 -1.1
v 0.7 3.1 -1.2
v 1.2 3.1 -1.2
v 0.8 3.2 -0.8
v 1.1 3.2 -0.8
v 0.9 3.2 -0.9
v 1 3.2 -0.9
v 0.8 3.2 -1.1
v 0.9 3.2 -1.1
v 1 3.2 -1.1
v 1.1 3.2 -1.1
v 0.9 3.3 -0.9
v 1 3.3 -0.9
v 0.9 3.3 -1
v 1 3.3 -1
v 0.9 3.4 -1
v 1 3.4 -1
v 0.9 3.4 -1.2
v 1 3.4 -1.2

# faces
f 6/5/1 2/5/1 1/5/1
f 7/2/1 3/2/1 2/2/1
f 7/5/1 2/5/1 6/5/1
f 8/4/1 4/4/1 3/4/1
f 8/2/1 3/2/1 7/2/1
f 9/2/1 5/2/1 4/2/1
f 9/4/1 4/4/1 8/4/1
f 10/2/1 5/2/1 9/2/1
f 11/4/1 9/4/1 8/4/1
f 12/4/1 9/4/1 11/4/1
f 15/4/1 14/4/1 13/4/1
f 16/4/1 14/4/1 15/4/1
f 19/4/1 18/4/1 17/4/1
f 21/4/1 19/4/1 17/4/1
f 21/4/1 20/4/1 19/4/1
f 22/4/1 20/4/1 21/4/1
f 23/4/1 20/4/1 22/4/1
f 28/6/1 25/6/1 24/6/1
f 29/6/1 25/6/1 28/6/1
f 30/6/1 27/6/1 26/6/1
f 31/6/1 27/6/1 30/6/1
f 32/4/1 29/4/1 28/4/1
f 33/4/1 29/4/1 32/4/1
f 34/4/1 31/4/1 30/4/1
f 35/4/1 31/4/1 34/4/1
f 36/1/1 33/1/1 32/1/1
f 36/1/1 34/1/1 33/1/1
f 36/1/1 35/1/1 34/1/1
f 37/1/1 35/1/1 36/1/1
f 38/3/1 37/3/1 36/3/1
f 39/1/1 35/1/1 37/1/1
f 39/3/1 37/3/1 38/3/1
f 40/1/1 39/1/1 38/1/1
f 41/1/1 35/1/1 39/1/1
f 41/1/1 39/1/1 40/1/1
f 44/6/1 43/6/1 42/6/1
f 45/6/1 43/6/1 44/6/1
f 48/4/1 47/4/1 46/4/1
f 49/4/1 47/4/1 48/4/1
f 50/4/1 47/4/1 49/4/1
f 52/4/1 51/4/1 50/4/1
f 52/4/1 50/4/1 49/4/1
f 53/4/1 51/4/1 52/4/1
f 56/4/1 55/4/1 54/4/1
f 57/4/1 55/4/1 56/4/1
f 58/5/2 59/5/2 63/5/2
f 59/2/2 60/2/2 64/2/2
f 63/5/2 59/5/2 64/5/2
f 64/2/2 60/2/2 65/2/2
f 61/2/2 62/2/2 66/2/2
f 66/2/2 62/2/2 67/2/2
f 68/4/2 69/4/2 70/4/2
f 68/4/2 70/4/2 72/4/2
f 70/4/2 71/4/2 72/4/2
f 72/4/2 71/4/2 73/4/2
f 74/4/2 75/4/2 76/4/2
f 76/4/2 75/4/2 77/4/2
f 77/4/2 75/4/2 78/4/2
f 78/4/2 79/4/2 80/4/2
f 77/4/2 78/4/2 80/4/2
f 80/4/2 79/4/2 81/4/2
f 82/4/2 83/4/2 85/4/2
f 85/4/2 83/4/2 86/4/2
f 84/4/2 85/4/2 88/4/2
f 86/4/2 87/4/2 89/4/2
f 89/4/2 87/4/2 90/4/2
f 84/4/2 88/4/2 91/4/2
f 88/4/2 89/4/2 91/4/2
f 91/4/2 89/4/2 92/4/2
f 92/4/2 89/4/2 93/4/2
f 91/6/2 92/6/2 95/6/2
f 95/6/2 92/6/2 96/6/2
f 93/6/2 94/6/2 97/6/2
f 97/6/2 94/6/2 98/6/2
f 95/1/2 96/1/2 99/1/2
f 96/1/2 97/1/2 99/1/2
f 97/1/2 98/1/2 99/1/2
f 99/1/2 98/1/2 100/1/2
f 99/3/2 100/3/2 101/3/2
f 100/1/2 98/1/2 102/1/2
f 101/3/2 100/3/2 102/3/2
f 101/1/2 102/1/2 103/1/2
f 102/1/2 98/1/2 104/1/2
f 103/1/2 102/1/2 104/1/2
f 105/6/2 106/6/2 107/6/2
f 107/6/2 106/6/2 108/6/2
f 109/4/2 110/4/2 111/4/2
f 111/4/2 110/4/2 112/4/2
f 112/4/2 113/4/2 115/4/2
f 115/4/2 113/4/2 116/4/2
f 114/4/2 115/4/2 117/4/2
f 117/4/2 115/4/2 118/4/2
f 119/4/2 120/4/2 121/4/2
f 121/4/2 120/4/2 122/4/2
f 125/5/3 124/5/3 123/5/3
f 126/5/3 124/5/3 125/5/3
f 129/4/3 128/4/3 127/4/3
f 130/4/3 128/4/3 129/4/3
f 141/4/3 132/4/3 131/4/3
f 141/4/3 133/4/3 132/4/3
f 142/4/3 133/4/3 141/4/3
f 143/6/3 134/6/3 133/6/3
f 143/4/3 133/4/3 142/4/3
f 144/4/3 135/4/3 134/4/3
f 144/6/3 134/6/3 143/6/3
f 145/4/3 135/4/3 144/4/3
f 146/1/3 136/1/3 135/1/3
f 146/3/3 137/3/3 136/3/3
f 147/1/3 138/1/3 137/1/3
f 147/3/3 137/3/3 146/3/3
f 148/4/3 143/4/3 142/4/3
f 148/6/3 145/6/3 144/6/3
f 148/4/3 144/4/3 143/4/3
f 149/4/3 135/4/3 145/4/3
f 149/6/3 145/6/3 148/6/3
f 150/1/3 146/1/3 135/1/3
f 150/4/3 135/4/3 149/4/3
f 150/1/3 147/1/3 146/1/3
f 151/1/3 147/1/3 150/1/3
f 152/1/3 138/1/3 147/1/3
f 152/1/3 147/1/3 151/1/3
f 153/4/3 149/4/3 148/4/3
f 153/4/3 148/4/3 142/4/3
f 154/6/3 150/6/3 149/6/3
f 154/4/3 149/4/3 153/4/3
f 155/1/3 151/1/3 150/1/3
f 155/6/3 150/6/3 154/6/3
f 156/3/3 152/3/3 151/3/3
f 156/1/3 151/1/3 155/1/3
f 157/1/3 138/1/3 152/1/3
f 157/3/3 152/3/3 156/3/3
f 158/1/3 138/1/3 157/1/3
f 159/6/3 140/6/3 139/6/3
f 160/6/3 140/6/3 159/6/3
f 163/4/3 162/4/3 161/4/3
f 164/4/3 162/4/3 163/4/3
f 165/4/3 162/4/3 164/4/3
f 170/4/3 167/4/3 166/4/3
f 171/4/3 167/4/3 170/4/3
f 172/4/3 169/4/3 168/4/3
f 173/4/3 169/4/3 172/4/3
f 177/4/3 174/4/3 173/4/3
f 178/4/3 174/4/3 177/4/3
f 179/4/3 176/4/3 175/4/3
f 180/4/3 176/4/3 179/4/3
f 183/4/3 182/4/3 181/4/3
f 184/4/3 182/4/3 183/4/3
f 187/4/3 186/4/3 185/4/3
f 188/4/3 186/4/3 187/4/3
f 189/4/4 190/4/4 191/4/4
f 191/4/4 190/4/4 192/4/4
f 193/4/4 194/4/4 197/4/4
f 197/4/4 194/4/4 198/4/4
f 198/4/4 194/4/4 199/4/4
f 195/4/4 196/4/4 200/4/4
f 200/4/4 196/4/4 201/4/4
f 202/4/4 203/4/4 204/4/4
f 204/4/4 203/4/4 205/4/4
f 205/4/4 206/4/4 209/4/4
f 209/4/4 206/4/4 210/4/4
f 207/4/4 208/4/4 211/4/4
f 211/4/4 208/4/4 212/4/4
f 213/4/4 214/4/4 220/4/4
f 214/6/4 215/6/4 220/6/4
f 215/4/4 216/4/4 221/4/4
f 220/6/4 215/6/4 221/6/4
f 221/4/4 216/4/4 222/4/4
f 218/6/4 219/6/4 223/6/4
f 223/6/4 219/6/4 224/6/4
f 220/4/4 221/4/4 226/4/4
f 221/6/4 222/6/4 226/6/4
f 222/4/4 216/4/4 227/4/4
f 226/6/4 222/6/4 227/6/4
f 216/1/4 217/1/4 228/1/4
f 227/4/4 216/4/4 228/4/4
f 224/4/4 225/4/4 229/4/4
f 223/4/4 224/4/4 229/4/4
f 229/4/4 225/4/4 230/4/4
f 230/4/4 225/4/4 231/4/4
f 220/4/4 226/4/4 232/4/4
f 226/4/4 227/4/4 232/4/4
f 213/4/4 220/4/4 232/4/4
f 232/4/4 227/4/4 233/4/4
f 227/6/4 228/6/4 234/6/4
f 233/4/4 227/4/4 234/4/4
f 228/1/4 217/1/4 235/1/4
f 234/6/4 228/6/4 235/6/4
f 235/1/4 217/1/4 236/1/4
f 229/6/4 230/6/4 237/6/4
f 237/6/4 230/6/4 238/6/4
f 233/4/4 234/4/4 239/4/4
f 239/4/4 234/4/4 240/4/4
f 243/4/4 244/4/4 245/4/4
f 245/4/4 244/4/4 246/4/4
f 241/4/4 242/4/4 247/4/4
f 247/4/4 242/4/4 248/4/4
f 249/2/4 250/2/4 251/2/4
f 251/2/4 250/2/4 252/2/4
f 255/4/5 254/4/5 253/4/5
f 256/4/5 254/4/5 255/4/5
f 259/4/5 258/4/5 257/4/5
f 260/4/5 258/4/5 259/4/5
f 263/4/5 262/4/5 261/4/5
f 264/4/5 262/4/5 263/4/5
f 267/5/5 266/5/5 265/5/5
f 268/5/5 266/5/5 267/5/5
f 269/2/5 268/2/5 267/2/5
f 272/2/5 269/2/5 267/2/5
f 273/2/5 269/2/5 272/2/5
f 274/4/5 271/4/5 270/4/5
f 275/4/5 271/4/5 274/4/5
f 277/4/5 273/4/5 272/4/5
f 278/4/5 273/4/5 277/4/5
f 279/4/5 274/4/5 270/4/5
f 280/4/5 274/4/5 279/4/5
f 281/4/5 276/4/5 275/4/5
f 282/4/5 276/4/5 281/4/5
f 283/4/5 280/4/5 279/4/5
f 283/2/5 278/2/5 277/2/5
f 283/4/5 281/4/5 280/4/5
f 283/4/5 279/4/5 278/4/5
f 284/4/5 281/4/5 283/4/5
f 285/2/5 283/2/5 277/2/5
f 286/2/5 283/2/5 285/2/5
f 289/4/5 288/4/5 287/4/5
f 290/4/5 288/4/5 289/4/5
f 293/4/5 292/4/5 291/4/5
f 294/4/5 292/4/5 293/4/5
f 297/4/5 296/4/5 295/4/5
f 298/4/5 296/4/5 297/4/5
f 299/4/5 297/4/5 295/4/5
f 300/4/5 296/4/5 298/4/5
f 301/4/5 299/4/5 295/4/5
f 301/4/5 300/4/5 299/4/5
f 302/4/5 296/4/5 300/4/5
f 302/4/5 300/4/5 301/4/5
f 305/4/5 304/4/5 303/4/5
f 306/4/5 304/4/5 305/4/5
f 307/5/6 308/5/6 309/5/6
f 309/5/6 308/5/6 310/5/6
f 309/2/6 310/2/6 311/2/6
f 309/2/6 311/2/6 312/2/6
f 312/2/6 311/2/6 313/2/6
f 314/4/6 315/4/6 318/4/6
f 318/4/6 315/4/6 319/4/6
f 316/2/6 317/2/6 320/2/6
f 316/2/6 320/2/6 321/2/6
f 321/2/6 320/2/6 322/2/6
f 323/4/6 324/4/6 325/4/6
f 325/4/6 324/4/6 326/4/6
f 327/4/6 328/4/6 331/4/6
f 331/4/6 328/4/6 332/4/6
f 329/4/6 330/4/6 333/4/6
f 333/4/6 330/4/6 334/4/6
f 335/4/6 336/4/6 337/4/6
f 337/4/6 336/4/6 338/4/6
f 335/4/6 337/4/6 339/4/6
f 338/4/6 336/4/6 342/4/6
f 340/4/6 341/4/6 343/4/6
f 341/4/6 342/4/6 343/4/6
f 335/4/6 339/4/6 343/4/6
f 339/4/6 340/4/6 343/4/6
f 342/4/6 336/4/6 344/4/6
f 343/4/6 342/4/6 344/4/6
f 345/6/6 346/6/6 347/6/6
f 347/6/6 346/6/6 348/6/6
f 345/6/6 347/6/6 349/6/6
f 349/6/6 347/6/6 350/6/6
f 348/6/6 346/6/6 351/6/6
f 351/6/6 346/6/6 352/6/6
f 353/4/6 354/4/6 355/4/6
f 355/4/6 354/4/6 356/4/6
f 357/4/6 358/4/6 359/4/6
f 359/4/6 358/4/6 360/4/6
