# MagicaVoxel @ Ephtracy

# group
o 

# material
mtllib 2.mtl
usemtl palette

# normals
vn -1 0 0
vn 1 0 0
vn 0 0 1
vn 0 0 -1
vn 0 -1 0
vn 0 1 0

# texcoords
vt 0.970703 0.5
vt 0.986328 0.5
vt 0.994141 0.5

# verts
v 0.6 2.6 -0.9
v 0.6 2.6 -1
v 0.6 2.7 -0.9
v 0.6 2.7 -1
v 0.7 2.4 -0.7
v 0.7 2.4 -0.9
v 0.7 2.5 -0.7
v 0.7 2.5 -0.9
v 0.7 2.5 -1
v 0.7 2.6 -0.8
v 0.7 2.6 -0.9
v 0.7 2.6 -1
v 0.7 2.6 -1.1
v 0.7 2.7 -0.8
v 0.7 2.7 -0.9
v 0.7 2.7 -1
v 0.7 2.7 -1.1
v 0.7 2.8 -0.9
v 0.7 2.8 -1
v 0.8 2 -0.9
v 0.8 2 -1
v 0.8 2.3 -0.8
v 0.8 2.3 -0.9
v 0.8 2.3 -1
v 0.8 2.3 -1.1
v 0.8 2.4 -0.8
v 0.8 2.4 -0.9
v 0.8 2.4 -1.1
v 0.8 2.5 -0.6
v 0.8 2.5 -0.7
v 0.8 2.5 -0.8
v 0.8 2.5 -0.9
v 0.8 2.5 -1
v 0.8 2.5 -1.1
v 0.8 2.6 -0.6
v 0.8 2.6 -0.7
v 0.8 2.6 -0.8
v 0.8 2.6 -0.9
v 0.8 2.6 -1
v 0.8 2.6 -1.1
v 0.8 2.7 -1
v 0.8 2.7 -1.1
v 0.8 2.8 -0.9
v 0.8 2.8 -1
v 0.8 2.9 -0.8
v 0.8 2.9 -0.9
v 0.8 3 -0.8
v 0.8 3 -1.1
v 0.9 2.6 -0.5
v 0.9 2.6 -0.6
v 0.9 2.7 -0.5
v 0.9 2.7 -0.6
v 0.9 2.8 -0.8
v 0.9 2.8 -0.9
v 0.9 2.9 -0.8
v 0.9 2.9 -0.9
v 1 2 -0.9
v 1 2 -1
v 1 2.3 -0.9
v 1 2.3 -1
v 1 2.7 -0.4
v 1 2.7 -0.5
v 1 2.8 -0.4
v 1 2.8 -0.5
v 1.1 2.8 -0.3
v 1.1 2.8 -0.4
v 1.1 2.9 -0.3
v 1.1 2.9 -0.4
v 0.8 2.4 -0.7
v 0.8 2.4 -0.8
v 0.8 2.5 -0.7
v 0.8 2.5 -0.8
v 0.9 2 -0.9
v 0.9 2 -1
v 0.9 2.3 -0.9
v 0.9 2.3 -1
v 0.9 2.5 -0.6
v 0.9 2.5 -0.7
v 0.9 2.6 -0.6
v 0.9 2.6 -0.7
v 1 2.6 -0.5
v 1 2.6 -0.6
v 1 2.7 -0.5
v 1 2.7 -0.6
v 1 2.8 -0.8
v 1 2.8 -0.9
v 1 2.9 -0.8
v 1 2.9 -0.9
v 1.1 2 -0.9
v 1.1 2 -1
v 1.1 2.3 -0.8
v 1.1 2.3 -0.9
v 1.1 2.3 -1
v 1.1 2.3 -1.1
v 1.1 2.6 -0.8
v 1.1 2.6 -0.9
v 1.1 2.6 -1
v 1.1 2.6 -1.1
v 1.1 2.7 -0.4
v 1.1 2.7 -0.5
v 1.1 2.7 -1
v 1.1 2.7 -1.1
v 1.1 2.8 -0.4
v 1.1 2.8 -0.5
v 1.1 2.8 -0.9
v 1.1 2.8 -1
v 1.1 2.9 -0.8
v 1.1 2.9 -0.9
v 1.1 3 -0.8
v 1.1 3 -1.1
v 1.2 2.3 -0.9
v 1.2 2.3 -1
v 1.2 2.6 -0.8
v 1.2 2.6 -0.9
v 1.2 2.6 -1
v 1.2 2.6 -1.1
v 1.2 2.7 -0.8
v 1.2 2.7 -0.9
v 1.2 2.7 -1
v 1.2 2.7 -1.1
v 1.2 2.8 -0.3
v 1.2 2.8 -0.4
v 1.2 2.8 -0.9
v 1.2 2.8 -1
v 1.2 2.9 -0.3
v 1.2 2.9 -0.4
v 1.3 2.6 -0.9
v 1.3 2.6 -1
v 1.3 2.7 -0.9
v 1.3 2.7 -1
v 1.1 2.8 -0.3
v 1.1 2.9 -0.3
v 1.2 2.8 -0.3
v 1.2 2.9 -0.3
v 1 2.7 -0.4
v 1 2.8 -0.4
v 1.1 2.7 -0.4
v 1.1 2.8 -0.4
v 0.9 2.6 -0.5
v 0.9 2.7 -0.5
v 1 2.6 -0.5
v 1 2.7 -0.5
v 0.8 2.5 -0.6
v 0.8 2.6 -0.6
v 0.9 2.5 -0.6
v 0.9 2.6 -0.6
v 0.7 2.4 -0.7
v 0.7 2.5 -0.7
v 0.8 2.4 -0.7
v 0.8 2.5 -0.7
v 0.7 2.6 -0.8
v 0.7 2.7 -0.8
v 0.8 2.3 -0.8
v 0.8 2.4 -0.8
v 0.8 2.5 -0.8
v 0.8 2.6 -0.8
v 0.8 2.9 -0.8
v 0.8 3 -0.8
v 0.9 2.4 -0.8
v 0.9 2.5 -0.8
v 0.9 2.6 -0.8
v 0.9 2.8 -0.8
v 0.9 2.9 -0.8
v 1 2.5 -0.8
v 1 2.6 -0.8
v 1 2.7 -0.8
v 1 2.8 -0.8
v 1 2.9 -0.8
v 1.1 2.3 -0.8
v 1.1 2.6 -0.8
v 1.1 2.7 -0.8
v 1.1 2.9 -0.8
v 1.1 3 -0.8
v 1.2 2.6 -0.8
v 1.2 2.7 -0.8
v 0.6 2.6 -0.9
v 0.6 2.7 -0.9
v 0.7 2.5 -0.9
v 0.7 2.6 -0.9
v 0.7 2.7 -0.9
v 0.7 2.8 -0.9
v 0.8 2 -0.9
v 0.8 2.3 -0.9
v 0.8 2.5 -0.9
v 0.8 2.6 -0.9
v 0.8 2.7 -0.9
v 0.8 2.8 -0.9
v 0.8 2.9 -0.9
v 0.9 2 -0.9
v 0.9 2.3 -0.9
v 0.9 2.8 -0.9
v 0.9 2.9 -0.9
v 1 2 -0.9
v 1 2.3 -0.9
v 1 2.7 -0.9
v 1 2.8 -0.9
v 1 2.9 -0.9
v 1.1 2 -0.9
v 1.1 2.3 -0.9
v 1.1 2.6 -0.9
v 1.1 2.7 -0.9
v 1.1 2.8 -0.9
v 1.1 2.9 -0.9
v 1.2 2.3 -0.9
v 1.2 2.6 -0.9
v 1.2 2.7 -0.9
v 1.2 2.8 -0.9
v 1.3 2.6 -0.9
v 1.3 2.7 -0.9
v 1.1 2.8 -0.4
v 1.1 2.9 -0.4
v 1.2 2.8 -0.4
v 1.2 2.9 -0.4
v 1 2.7 -0.5
v 1 2.8 -0.5
v 1.1 2.7 -0.5
v 1.1 2.8 -0.5
v 0.9 2.6 -0.6
v 0.9 2.7 -0.6
v 1 2.6 -0.6
v 1 2.7 -0.6
v 0.8 2.5 -0.7
v 0.8 2.6 -0.7
v 0.9 2.5 -0.7
v 0.9 2.6 -0.7
v 0.7 2.4 -0.9
v 0.7 2.5 -0.9
v 0.8 2.4 -0.9
v 0.8 2.5 -0.9
v 0.6 2.6 -1
v 0.6 2.7 -1
v 0.7 2.5 -1
v 0.7 2.6 -1
v 0.7 2.7 -1
v 0.7 2.8 -1
v 0.8 2 -1
v 0.8 2.3 -1
v 0.8 2.5 -1
v 0.8 2.6 -1
v 0.8 2.7 -1
v 0.8 2.8 -1
v 0.9 2 -1
v 0.9 2.3 -1
v 1 2 -1
v 1 2.3 -1
v 1.1 2 -1
v 1.1 2.3 -1
v 1.1 2.6 -1
v 1.1 2.7 -1
v 1.1 2.8 -1
v 1.2 2.3 -1
v 1.2 2.6 -1
v 1.2 2.7 -1
v 1.2 2.8 -1
v 1.3 2.6 -1
v 1.3 2.7 -1
v 0.7 2.6 -1.1
v 0.7 2.7 -1.1
v 0.8 2.3 -1.1
v 0.8 2.4 -1.1
v 0.8 2.5 -1.1
v 0.8 2.6 -1.1
v 0.8 2.7 -1.1
v 0.8 3 -1.1
v 0.9 2.4 -1.1
v 0.9 2.5 -1.1
v 0.9 2.6 -1.1
v 1 2.5 -1.1
v 1 2.6 -1.1
v 1 2.7 -1.1
v 1.1 2.3 -1.1
v 1.1 2.6 -1.1
v 1.1 2.7 -1.1
v 1.1 3 -1.1
v 1.2 2.6 -1.1
v 1.2 2.7 -1.1
v 0.8 2 -0.9
v 0.9 2 -0.9
v 1 2 -0.9
v 1.1 2 -0.9
v 0.8 2 -1
v 0.9 2 -1
v 1 2 -1
v 1.1 2 -1
v 0.8 2.3 -0.8
v 1.1 2.3 -0.8
v 0.8 2.3 -0.9
v 0.9 2.3 -0.9
v 1 2.3 -0.9
v 1.1 2.3 -0.9
v 1.2 2.3 -0.9
v 0.8 2.3 -1
v 0.9 2.3 -1
v 1 2.3 -1
v 1.1 2.3 -1
v 1.2 2.3 -1
v 0.8 2.3 -1.1
v 1.1 2.3 -1.1
v 0.7 2.4 -0.7
v 0.8 2.4 -0.7
v 0.8 2.4 -0.8
v 0.7 2.4 -0.9
v 0.8 2.4 -0.9
v 0.8 2.5 -0.6
v 0.9 2.5 -0.6
v 0.8 2.5 -0.7
v 0.9 2.5 -0.7
v 0.7 2.5 -0.9
v 0.8 2.5 -0.9
v 0.7 2.5 -1
v 0.8 2.5 -1
v 0.9 2.6 -0.5
v 1 2.6 -0.5
v 0.9 2.6 -0.6
v 1 2.6 -0.6
v 0.7 2.6 -0.8
v 0.8 2.6 -0.8
v 1.1 2.6 -0.8
v 1.2 2.6 -0.8
v 0.6 2.6 -0.9
v 0.7 2.6 -0.9
v 0.8 2.6 -0.9
v 1.1 2.6 -0.9
v 1.2 2.6 -0.9
v 1.3 2.6 -0.9
v 0.6 2.6 -1
v 0.7 2.6 -1
v 0.8 2.6 -1
v 1.1 2.6 -1
v 1.2 2.6 -1
v 1.3 2.6 -1
v 0.7 2.6 -1.1
v 0.8 2.6 -1.1
v 1.1 2.6 -1.1
v 1.2 2.6 -1.1
v 1 2.7 -0.4
v 1.1 2.7 -0.4
v 1 2.7 -0.5
v 1.1 2.7 -0.5
v 1.1 2.8 -0.3
v 1.2 2.8 -0.3
v 1.1 2.8 -0.4
v 1.2 2.8 -0.4
v 0.9 2.8 -0.8
v 1 2.8 -0.8
v 0.9 2.8 -0.9
v 1 2.8 -0.9
v 0.8 2.9 -0.8
v 0.9 2.9 -0.8
v 1 2.9 -0.8
v 1.1 2.9 -0.8
v 0.8 2.9 -0.9
v 0.9 2.9 -0.9
v 1 2.9 -0.9
v 1.1 2.9 -0.9
v 0.7 2.5 -0.7
v 0.8 2.5 -0.7
v 0.8 2.5 -0.8
v 0.7 2.5 -0.9
v 0.8 2.5 -0.9
v 0.8 2.6 -0.6
v 0.9 2.6 -0.6
v 0.8 2.6 -0.7
v 0.9 2.6 -0.7
v 0.9 2.7 -0.5
v 1 2.7 -0.5
v 0.9 2.7 -0.6
v 1 2.7 -0.6
v 0.7 2.7 -0.8
v 1 2.7 -0.8
v 1.1 2.7 -0.8
v 1.2 2.7 -0.8
v 0.6 2.7 -0.9
v 0.7 2.7 -0.9
v 0.8 2.7 -0.9
v 1 2.7 -0.9
v 1.1 2.7 -0.9
v 1.2 2.7 -0.9
v 1.3 2.7 -0.9
v 0.6 2.7 -1
v 0.7 2.7 -1
v 0.8 2.7 -1
v 1.1 2.7 -1
v 1.2 2.7 -1
v 1.3 2.7 -1
v 0.7 2.7 -1.1
v 0.8 2.7 -1.1
v 1.1 2.7 -1.1
v 1.2 2.7 -1.1
v 1 2.8 -0.4
v 1.1 2.8 -0.4
v 1 2.8 -0.5
v 1.1 2.8 -0.5
v 0.7 2.8 -0.9
v 0.8 2.8 -0.9
v 1.1 2.8 -0.9
v 1.2 2.8 -0.9
v 0.7 2.8 -1
v 0.8 2.8 -1
v 1.1 2.8 -1
v 1.2 2.8 -1
v 1.1 2.9 -0.3
v 1.2 2.9 -0.3
v 1.1 2.9 -0.4
v 1.2 2.9 -0.4
v 0.8 3 -0.8
v 1.1 3 -0.8
v 0.8 3 -1.1
v 1.1 3 -1.1

# faces
f 3/3/1 2/3/1 1/3/1
f 4/3/1 2/3/1 3/3/1
f 7/3/1 6/3/1 5/3/1
f 8/3/1 6/3/1 7/3/1
f 11/3/1 9/3/1 8/3/1
f 12/3/1 9/3/1 11/3/1
f 14/3/1 11/3/1 10/3/1
f 15/3/1 11/3/1 14/3/1
f 16/3/1 13/3/1 12/3/1
f 17/3/1 13/3/1 16/3/1
f 18/2/1 16/2/1 15/2/1
f 19/2/1 16/2/1 18/2/1
f 23/3/1 21/3/1 20/3/1
f 24/3/1 21/3/1 23/3/1
f 26/3/1 23/3/1 22/3/1
f 26/3/1 25/3/1 24/3/1
f 26/3/1 24/3/1 23/3/1
f 27/3/1 25/3/1 26/3/1
f 28/3/1 25/3/1 27/3/1
f 32/2/1 28/2/1 27/2/1
f 33/2/1 28/2/1 32/2/1
f 34/2/1 28/2/1 33/2/1
f 35/1/1 30/1/1 29/1/1
f 36/1/1 30/1/1 35/1/1
f 37/3/1 32/3/1 31/3/1
f 38/3/1 32/3/1 37/3/1
f 39/3/1 34/3/1 33/3/1
f 40/3/1 34/3/1 39/3/1
f 44/1/1 42/1/1 41/1/1
f 46/1/1 44/1/1 43/1/1
f 47/1/1 46/1/1 45/1/1
f 48/1/1 42/1/1 44/1/1
f 48/1/1 46/1/1 47/1/1
f 48/1/1 44/1/1 46/1/1
f 51/1/1 50/1/1 49/1/1
f 52/1/1 50/1/1 51/1/1
f 55/1/1 54/1/1 53/1/1
f 56/1/1 54/1/1 55/1/1
f 59/3/1 58/3/1 57/3/1
f 60/3/1 58/3/1 59/3/1
f 63/1/1 62/1/1 61/1/1
f 64/1/1 62/1/1 63/1/1
f 67/1/1 66/1/1 65/1/1
f 68/1/1 66/1/1 67/1/1
f 69/3/2 70/3/2 71/3/2
f 71/3/2 70/3/2 72/3/2
f 73/3/2 74/3/2 75/3/2
f 75/3/2 74/3/2 76/3/2
f 77/1/2 78/1/2 79/1/2
f 79/1/2 78/1/2 80/1/2
f 81/1/2 82/1/2 83/1/2
f 83/1/2 82/1/2 84/1/2
f 85/1/2 86/1/2 87/1/2
f 87/1/2 86/1/2 88/1/2
f 89/3/2 90/3/2 92/3/2
f 92/3/2 90/3/2 93/3/2
f 91/3/2 92/3/2 95/3/2
f 95/3/2 92/3/2 96/3/2
f 93/3/2 94/3/2 97/3/2
f 97/3/2 94/3/2 98/3/2
f 99/1/2 100/1/2 103/1/2
f 103/1/2 100/1/2 104/1/2
f 101/1/2 102/1/2 106/1/2
f 105/1/2 106/1/2 108/1/2
f 107/1/2 108/1/2 109/1/2
f 106/1/2 102/1/2 110/1/2
f 109/1/2 108/1/2 110/1/2
f 108/1/2 106/1/2 110/1/2
f 111/3/2 112/3/2 114/3/2
f 114/3/2 112/3/2 115/3/2
f 113/3/2 114/3/2 117/3/2
f 117/3/2 114/3/2 118/3/2
f 115/3/2 116/3/2 119/3/2
f 119/3/2 116/3/2 120/3/2
f 118/2/2 119/2/2 123/2/2
f 123/2/2 119/2/2 124/2/2
f 121/1/2 122/1/2 125/1/2
f 125/1/2 122/1/2 126/1/2
f 127/3/2 128/3/2 129/3/2
f 129/3/2 128/3/2 130/3/2
f 133/1/3 132/1/3 131/1/3
f 134/1/3 132/1/3 133/1/3
f 137/1/3 136/1/3 135/1/3
f 138/1/3 136/1/3 137/1/3
f 141/1/3 140/1/3 139/1/3
f 142/1/3 140/1/3 141/1/3
f 145/1/3 144/1/3 143/1/3
f 146/1/3 144/1/3 145/1/3
f 149/3/3 148/3/3 147/3/3
f 150/3/3 148/3/3 149/3/3
f 156/3/3 152/3/3 151/3/3
f 159/2/3 155/2/3 154/2/3
f 159/3/3 154/3/3 153/3/3
f 160/3/3 156/3/3 155/3/3
f 160/2/3 155/2/3 159/2/3
f 161/3/3 152/3/3 156/3/3
f 161/3/3 156/3/3 160/3/3
f 163/1/3 158/1/3 157/1/3
f 164/3/3 160/3/3 159/3/3
f 164/2/3 161/2/3 160/2/3
f 165/3/3 152/3/3 161/3/3
f 165/2/3 161/2/3 164/2/3
f 166/3/3 152/3/3 165/3/3
f 167/1/3 163/1/3 162/1/3
f 168/1/3 158/1/3 163/1/3
f 168/1/3 163/1/3 167/1/3
f 169/3/3 164/3/3 159/3/3
f 169/3/3 159/3/3 153/3/3
f 169/3/3 165/3/3 164/3/3
f 170/2/3 166/2/3 165/2/3
f 170/3/3 165/3/3 169/3/3
f 171/2/3 166/2/3 170/2/3
f 172/1/3 158/1/3 168/1/3
f 173/1/3 158/1/3 172/1/3
f 174/3/3 171/3/3 170/3/3
f 175/3/3 171/3/3 174/3/3
f 179/3/3 177/3/3 176/3/3
f 180/3/3 177/3/3 179/3/3
f 184/3/3 179/3/3 178/3/3
f 185/3/3 179/3/3 184/3/3
f 186/2/3 181/2/3 180/2/3
f 187/2/3 181/2/3 186/2/3
f 189/3/3 183/3/3 182/3/3
f 190/3/3 183/3/3 189/3/3
f 191/1/3 188/1/3 187/1/3
f 191/1/3 187/1/3 186/1/3
f 192/1/3 188/1/3 191/1/3
f 195/1/3 191/1/3 186/1/3
f 196/1/3 191/1/3 195/1/3
f 198/3/3 194/3/3 193/3/3
f 199/3/3 194/3/3 198/3/3
f 201/1/3 197/1/3 196/1/3
f 201/1/3 196/1/3 195/1/3
f 202/1/3 197/1/3 201/1/3
f 203/1/3 197/1/3 202/1/3
f 204/3/3 200/3/3 199/3/3
f 205/3/3 200/3/3 204/3/3
f 206/2/3 202/2/3 201/2/3
f 207/2/3 202/2/3 206/2/3
f 208/3/3 206/3/3 205/3/3
f 209/3/3 206/3/3 208/3/3
f 210/1/4 211/1/4 212/1/4
f 212/1/4 211/1/4 213/1/4
f 214/1/4 215/1/4 216/1/4
f 216/1/4 215/1/4 217/1/4
f 218/1/4 219/1/4 220/1/4
f 220/1/4 219/1/4 221/1/4
f 222/1/4 223/1/4 224/1/4
f 224/1/4 223/1/4 225/1/4
f 226/3/4 227/3/4 228/3/4
f 228/3/4 227/3/4 229/3/4
f 230/3/4 231/3/4 233/3/4
f 233/3/4 231/3/4 234/3/4
f 232/3/4 233/3/4 238/3/4
f 238/3/4 233/3/4 239/3/4
f 234/2/4 235/2/4 240/2/4
f 240/2/4 235/2/4 241/2/4
f 236/3/4 237/3/4 242/3/4
f 242/3/4 237/3/4 243/3/4
f 244/3/4 245/3/4 246/3/4
f 246/3/4 245/3/4 247/3/4
f 247/3/4 248/3/4 251/3/4
f 251/3/4 248/3/4 252/3/4
f 249/2/4 250/2/4 253/2/4
f 253/2/4 250/2/4 254/2/4
f 252/3/4 253/3/4 255/3/4
f 255/3/4 253/3/4 256/3/4
f 257/3/4 258/3/4 262/3/4
f 262/3/4 258/3/4 263/3/4
f 260/2/4 261/2/4 265/2/4
f 259/3/4 260/3/4 265/3/4
f 262/3/4 263/3/4 266/3/4
f 265/2/4 261/2/4 266/2/4
f 261/3/4 262/3/4 266/3/4
f 266/3/4 263/3/4 267/3/4
f 265/3/4 266/3/4 268/3/4
f 266/2/4 267/2/4 268/2/4
f 267/3/4 263/3/4 269/3/4
f 268/2/4 267/2/4 269/2/4
f 263/1/4 264/1/4 270/1/4
f 269/3/4 263/3/4 270/3/4
f 268/3/4 269/3/4 271/3/4
f 259/3/4 265/3/4 271/3/4
f 265/3/4 268/3/4 271/3/4
f 269/2/4 270/2/4 272/2/4
f 271/3/4 269/3/4 272/3/4
f 270/1/4 264/1/4 273/1/4
f 272/2/4 270/2/4 273/2/4
f 273/1/4 264/1/4 274/1/4
f 272/3/4 273/3/4 275/3/4
f 275/3/4 273/3/4 276/3/4
f 281/3/5 278/3/5 277/3/5
f 282/3/5 278/3/5 281/3/5
f 283/3/5 280/3/5 279/3/5
f 284/3/5 280/3/5 283/3/5
f 287/3/5 286/3/5 285/3/5
f 288/3/5 286/3/5 287/3/5
f 289/3/5 286/3/5 288/3/5
f 290/3/5 286/3/5 289/3/5
f 293/3/5 289/3/5 288/3/5
f 294/3/5 289/3/5 293/3/5
f 295/3/5 291/3/5 290/3/5
f 296/3/5 291/3/5 295/3/5
f 297/3/5 294/3/5 293/3/5
f 297/3/5 293/3/5 292/3/5
f 297/3/5 295/3/5 294/3/5
f 298/3/5 295/3/5 297/3/5
f 301/3/5 300/3/5 299/3/5
f 302/3/5 301/3/5 299/3/5
f 303/3/5 301/3/5 302/3/5
f 306/1/5 305/1/5 304/1/5
f 307/1/5 305/1/5 306/1/5
f 310/3/5 309/3/5 308/3/5
f 311/3/5 309/3/5 310/3/5
f 314/1/5 313/1/5 312/1/5
f 315/1/5 313/1/5 314/1/5
f 321/3/5 317/3/5 316/3/5
f 322/3/5 317/3/5 321/3/5
f 323/3/5 319/3/5 318/3/5
f 324/3/5 319/3/5 323/3/5
f 326/3/5 321/3/5 320/3/5
f 327/3/5 321/3/5 326/3/5
f 330/3/5 325/3/5 324/3/5
f 331/3/5 325/3/5 330/3/5
f 332/3/5 328/3/5 327/3/5
f 333/3/5 328/3/5 332/3/5
f 334/3/5 330/3/5 329/3/5
f 335/3/5 330/3/5 334/3/5
f 338/1/5 337/1/5 336/1/5
f 339/1/5 337/1/5 338/1/5
f 342/1/5 341/1/5 340/1/5
f 343/1/5 341/1/5 342/1/5
f 346/1/5 345/1/5 344/1/5
f 347/1/5 345/1/5 346/1/5
f 352/1/5 349/1/5 348/1/5
f 353/1/5 349/1/5 352/1/5
f 354/1/5 351/1/5 350/1/5
f 355/1/5 351/1/5 354/1/5
f 356/3/6 357/3/6 358/3/6
f 356/3/6 358/3/6 359/3/6
f 359/3/6 358/3/6 360/3/6
f 361/1/6 362/1/6 363/1/6
f 363/1/6 362/1/6 364/1/6
f 365/1/6 366/1/6 367/1/6
f 367/1/6 366/1/6 368/1/6
f 369/3/6 370/3/6 374/3/6
f 374/3/6 370/3/6 375/3/6
f 370/2/6 371/2/6 376/2/6
f 375/3/6 370/3/6 376/3/6
f 371/3/6 372/3/6 377/3/6
f 376/2/6 371/2/6 377/2/6
f 377/3/6 372/3/6 378/3/6
f 373/3/6 374/3/6 380/3/6
f 380/3/6 374/3/6 381/3/6
f 378/3/6 379/3/6 384/3/6
f 384/3/6 379/3/6 385/3/6
f 381/3/6 382/3/6 386/3/6
f 386/3/6 382/3/6 387/3/6
f 383/3/6 384/3/6 388/3/6
f 388/3/6 384/3/6 389/3/6
f 390/1/6 391/1/6 392/1/6
f 392/1/6 391/1/6 393/1/6
f 394/2/6 395/2/6 398/2/6
f 398/2/6 395/2/6 399/2/6
f 396/2/6 397/2/6 400/2/6
f 400/2/6 397/2/6 401/2/6
f 402/1/6 403/1/6 404/1/6
f 404/1/6 403/1/6 405/1/6
f 406/1/6 407/1/6 408/1/6
f 408/1/6 407/1/6 409/1/6
