# MagicaVoxel @ Ephtracy

# group
o 

# material
mtllib 2.mtl
usemtl palette

# normals
vn -1 0 0
vn 1 0 0
vn 0 0 1
vn 0 0 -1
vn 0 -1 0
vn 0 1 0

# texcoords
vt 0.970703 0.5
vt 0.986328 0.5
vt 0.994141 0.5

# verts
v 0.6 2.6 -0.9
v 0.6 2.6 -1
v 0.6 2.7 -0.9
v 0.6 2.7 -1
v 0.7 2.3 -0.6
v 0.7 2.3 -0.8
v 0.7 2.3 -0.9
v 0.7 2.4 -0.4
v 0.7 2.4 -0.6
v 0.7 2.4 -0.8
v 0.7 2.4 -0.9
v 0.7 2.4 -1
v 0.7 2.5 -0.4
v 0.7 2.5 -0.6
v 0.7 2.6 -0.8
v 0.7 2.6 -0.9
v 0.7 2.6 -1
v 0.7 2.6 -1.1
v 0.7 2.7 -0.8
v 0.7 2.7 -0.9
v 0.7 2.7 -1
v 0.7 2.7 -1.1
v 0.7 2.8 -0.9
v 0.7 2.8 -1
v 0.8 2 -0.9
v 0.8 2 -1
v 0.8 2.3 -0.9
v 0.8 2.3 -1
v 0.8 2.3 -1.1
v 0.8 2.4 -0.8
v 0.8 2.4 -0.9
v 0.8 2.4 -1
v 0.8 2.4 -1.1
v 0.8 2.5 -0.8
v 0.8 2.5 -0.9
v 0.8 2.5 -1
v 0.8 2.5 -1.1
v 0.8 2.6 -0.8
v 0.8 2.6 -0.9
v 0.8 2.6 -1
v 0.8 2.6 -1.1
v 0.8 2.7 -1
v 0.8 2.7 -1.1
v 0.8 2.8 -0.9
v 0.8 2.8 -1
v 0.8 2.9 -0.8
v 0.8 2.9 -0.9
v 0.8 3 -0.8
v 0.8 3 -1.1
v 0.9 2.8 -0.8
v 0.9 2.8 -0.9
v 0.9 2.9 -0.8
v 0.9 2.9 -0.9
v 1 2.1 -0.8
v 1 2.1 -0.9
v 1 2.2 -0.9
v 1 2.2 -1
v 1 2.3 -0.8
v 1 2.3 -1
v 0.8 2.3 -0.6
v 0.8 2.3 -0.8
v 0.8 2.4 -0.4
v 0.8 2.4 -0.6
v 0.8 2.4 -0.8
v 0.8 2.5 -0.4
v 0.8 2.5 -0.6
v 0.9 2 -0.9
v 0.9 2 -1
v 0.9 2.3 -0.9
v 0.9 2.3 -1
v 1 2.8 -0.8
v 1 2.8 -0.9
v 1 2.9 -0.8
v 1 2.9 -0.9
v 1.1 2.1 -0.8
v 1.1 2.1 -0.9
v 1.1 2.2 -0.9
v 1.1 2.2 -1
v 1.1 2.3 -0.9
v 1.1 2.3 -1
v 1.1 2.3 -1.1
v 1.1 2.4 -0.9
v 1.1 2.4 -1
v 1.1 2.4 -1.1
v 1.1 2.5 -0.9
v 1.1 2.5 -1
v 1.1 2.5 -1.1
v 1.1 2.6 -0.8
v 1.1 2.6 -0.9
v 1.1 2.6 -1
v 1.1 2.6 -1.1
v 1.1 2.7 -1
v 1.1 2.7 -1.1
v 1.1 2.8 -0.9
v 1.1 2.8 -1
v 1.1 2.9 -0.8
v 1.1 2.9 -0.9
v 1.1 3 -0.8
v 1.1 3 -1.1
v 1.2 2.3 -0.9
v 1.2 2.3 -1
v 1.2 2.4 -0.9
v 1.2 2.4 -1
v 1.2 2.4 -1.1
v 1.2 2.5 -0.9
v 1.2 2.5 -1
v 1.2 2.5 -1.1
v 1.2 2.6 -0.8
v 1.2 2.6 -0.9
v 1.2 2.6 -1
v 1.2 2.6 -1.1
v 1.2 2.7 -0.8
v 1.2 2.7 -0.9
v 1.2 2.7 -1
v 1.2 2.7 -1.1
v 1.2 2.8 -0.9
v 1.2 2.8 -1
v 1.3 2.6 -0.9
v 1.3 2.6 -1
v 1.3 2.7 -0.9
v 1.3 2.7 -1
v 0.7 2.4 -0.4
v 0.7 2.5 -0.4
v 0.8 2.4 -0.4
v 0.8 2.5 -0.4
v 0.7 2.3 -0.6
v 0.7 2.4 -0.6
v 0.8 2.3 -0.6
v 0.8 2.4 -0.6
v 0.7 2.6 -0.8
v 0.7 2.7 -0.8
v 0.8 2.3 -0.8
v 0.8 2.4 -0.8
v 0.8 2.5 -0.8
v 0.8 2.6 -0.8
v 0.8 2.9 -0.8
v 0.8 3 -0.8
v 0.9 2.4 -0.8
v 0.9 2.5 -0.8
v 0.9 2.6 -0.8
v 0.9 2.8 -0.8
v 0.9 2.9 -0.8
v 1 2.1 -0.8
v 1 2.3 -0.8
v 1 2.5 -0.8
v 1 2.6 -0.8
v 1 2.7 -0.8
v 1 2.8 -0.8
v 1 2.9 -0.8
v 1.1 2.1 -0.8
v 1.1 2.6 -0.8
v 1.1 2.7 -0.8
v 1.1 2.9 -0.8
v 1.1 3 -0.8
v 1.2 2.6 -0.8
v 1.2 2.7 -0.8
v 0.6 2.6 -0.9
v 0.6 2.7 -0.9
v 0.7 2.4 -0.9
v 0.7 2.6 -0.9
v 0.7 2.7 -0.9
v 0.7 2.8 -0.9
v 0.8 2 -0.9
v 0.8 2.3 -0.9
v 0.8 2.4 -0.9
v 0.8 2.5 -0.9
v 0.8 2.6 -0.9
v 0.8 2.7 -0.9
v 0.8 2.8 -0.9
v 0.8 2.9 -0.9
v 0.9 2 -0.9
v 0.9 2.3 -0.9
v 0.9 2.8 -0.9
v 0.9 2.9 -0.9
v 1 2.7 -0.9
v 1 2.8 -0.9
v 1 2.9 -0.9
v 1.1 2.3 -0.9
v 1.1 2.4 -0.9
v 1.1 2.5 -0.9
v 1.1 2.6 -0.9
v 1.1 2.7 -0.9
v 1.1 2.8 -0.9
v 1.1 2.9 -0.9
v 1.2 2.3 -0.9
v 1.2 2.4 -0.9
v 1.2 2.5 -0.9
v 1.2 2.6 -0.9
v 1.2 2.7 -0.9
v 1.2 2.8 -0.9
v 1.3 2.6 -0.9
v 1.3 2.7 -0.9
v 1.1 2.4 -1
v 1.1 2.5 -1
v 1.2 2.4 -1
v 1.2 2.5 -1
v 0.7 2.4 -0.6
v 0.7 2.5 -0.6
v 0.8 2.4 -0.6
v 0.8 2.5 -0.6
v 0.7 2.3 -0.9
v 0.7 2.4 -0.9
v 0.8 2.3 -0.9
v 0.8 2.4 -0.9
v 1 2.1 -0.9
v 1 2.2 -0.9
v 1.1 2.1 -0.9
v 1.1 2.2 -0.9
v 0.6 2.6 -1
v 0.6 2.7 -1
v 0.7 2.4 -1
v 0.7 2.6 -1
v 0.7 2.7 -1
v 0.7 2.8 -1
v 0.8 2 -1
v 0.8 2.3 -1
v 0.8 2.4 -1
v 0.8 2.5 -1
v 0.8 2.6 -1
v 0.8 2.7 -1
v 0.8 2.8 -1
v 0.9 2 -1
v 0.9 2.3 -1
v 1 2.2 -1
v 1 2.3 -1
v 1.1 2.2 -1
v 1.1 2.3 -1
v 1.1 2.4 -1
v 1.1 2.5 -1
v 1.1 2.6 -1
v 1.1 2.7 -1
v 1.1 2.8 -1
v 1.2 2.3 -1
v 1.2 2.4 -1
v 1.2 2.5 -1
v 1.2 2.6 -1
v 1.2 2.7 -1
v 1.2 2.8 -1
v 1.3 2.6 -1
v 1.3 2.7 -1
v 0.7 2.6 -1.1
v 0.7 2.7 -1.1
v 0.8 2.3 -1.1
v 0.8 2.4 -1.1
v 0.8 2.5 -1.1
v 0.8 2.6 -1.1
v 0.8 2.7 -1.1
v 0.8 3 -1.1
v 0.9 2.4 -1.1
v 0.9 2.5 -1.1
v 0.9 2.6 -1.1
v 1 2.5 -1.1
v 1 2.6 -1.1
v 1 2.7 -1.1
v 1.1 2.3 -1.1
v 1.1 2.4 -1.1
v 1.1 2.5 -1.1
v 1.1 2.6 -1.1
v 1.1 2.7 -1.1
v 1.1 3 -1.1
v 1.2 2.4 -1.1
v 1.2 2.5 -1.1
v 1.2 2.6 -1.1
v 1.2 2.7 -1.1
v 0.8 2 -0.9
v 0.9 2 -0.9
v 0.8 2 -1
v 0.9 2 -1
v 1 2.1 -0.8
v 1.1 2.1 -0.8
v 1 2.1 -0.9
v 1.1 2.1 -0.9
v 1 2.2 -0.9
v 1.1 2.2 -0.9
v 1 2.2 -1
v 1.1 2.2 -1
v 0.7 2.3 -0.6
v 0.8 2.3 -0.6
v 0.7 2.3 -0.8
v 0.8 2.3 -0.8
v 1 2.3 -0.8
v 0.7 2.3 -0.9
v 0.8 2.3 -0.9
v 0.9 2.3 -0.9
v 1.1 2.3 -0.9
v 1.2 2.3 -0.9
v 0.8 2.3 -1
v 0.9 2.3 -1
v 1 2.3 -1
v 1.1 2.3 -1
v 1.2 2.3 -1
v 0.8 2.3 -1.1
v 1.1 2.3 -1.1
v 0.7 2.4 -0.4
v 0.8 2.4 -0.4
v 0.7 2.4 -0.6
v 0.8 2.4 -0.6
v 0.7 2.4 -0.9
v 0.8 2.4 -0.9
v 0.7 2.4 -1
v 0.8 2.4 -1
v 1.1 2.4 -1
v 1.2 2.4 -1
v 1.1 2.4 -1.1
v 1.2 2.4 -1.1
v 1.1 2.5 -0.9
v 1.2 2.5 -0.9
v 1.1 2.5 -1
v 1.2 2.5 -1
v 0.7 2.6 -0.8
v 0.8 2.6 -0.8
v 1.1 2.6 -0.8
v 1.2 2.6 -0.8
v 0.6 2.6 -0.9
v 0.7 2.6 -0.9
v 0.8 2.6 -0.9
v 1.1 2.6 -0.9
v 1.2 2.6 -0.9
v 1.3 2.6 -0.9
v 0.6 2.6 -1
v 0.7 2.6 -1
v 0.8 2.6 -1
v 1.1 2.6 -1
v 1.2 2.6 -1
v 1.3 2.6 -1
v 0.7 2.6 -1.1
v 0.8 2.6 -1.1
v 1.1 2.6 -1.1
v 1.2 2.6 -1.1
v 0.9 2.8 -0.8
v 1 2.8 -0.8
v 0.9 2.8 -0.9
v 1 2.8 -0.9
v 0.8 2.9 -0.8
v 0.9 2.9 -0.8
v 1 2.9 -0.8
v 1.1 2.9 -0.8
v 0.8 2.9 -0.9
v 0.9 2.9 -0.9
v 1 2.9 -0.9
v 1.1 2.9 -0.9
v 0.7 2.4 -0.6
v 0.8 2.4 -0.6
v 0.7 2.4 -0.8
v 0.8 2.4 -0.8
v 0.7 2.4 -0.9
v 0.8 2.4 -0.9
v 1.1 2.4 -0.9
v 1.2 2.4 -0.9
v 1.1 2.4 -1
v 1.2 2.4 -1
v 0.7 2.5 -0.4
v 0.8 2.5 -0.4
v 0.7 2.5 -0.6
v 0.8 2.5 -0.6
v 1.1 2.5 -1
v 1.2 2.5 -1
v 1.1 2.5 -1.1
v 1.2 2.5 -1.1
v 0.7 2.7 -0.8
v 1 2.7 -0.8
v 1.1 2.7 -0.8
v 1.2 2.7 -0.8
v 0.6 2.7 -0.9
v 0.7 2.7 -0.9
v 0.8 2.7 -0.9
v 1 2.7 -0.9
v 1.1 2.7 -0.9
v 1.2 2.7 -0.9
v 1.3 2.7 -0.9
v 0.6 2.7 -1
v 0.7 2.7 -1
v 0.8 2.7 -1
v 1.1 2.7 -1
v 1.2 2.7 -1
v 1.3 2.7 -1
v 0.7 2.7 -1.1
v 0.8 2.7 -1.1
v 1.1 2.7 -1.1
v 1.2 2.7 -1.1
v 0.7 2.8 -0.9
v 0.8 2.8 -0.9
v 1.1 2.8 -0.9
v 1.2 2.8 -0.9
v 0.7 2.8 -1
v 0.8 2.8 -1
v 1.1 2.8 -1
v 1.2 2.8 -1
v 0.8 3 -0.8
v 1.1 3 -0.8
v 0.8 3 -1.1
v 1.1 3 -1.1

# faces
f 3/3/1 2/3/1 1/3/1
f 4/3/1 2/3/1 3/3/1
f 9/1/1 6/1/1 5/1/1
f 10/3/1 7/3/1 6/3/1
f 10/1/1 6/1/1 9/1/1
f 11/3/1 7/3/1 10/3/1
f 13/1/1 9/1/1 8/1/1
f 14/1/1 9/1/1 13/1/1
f 16/3/1 12/3/1 11/3/1
f 17/3/1 12/3/1 16/3/1
f 19/3/1 16/3/1 15/3/1
f 20/3/1 16/3/1 19/3/1
f 21/3/1 18/3/1 17/3/1
f 22/3/1 18/3/1 21/3/1
f 23/2/1 21/2/1 20/2/1
f 24/2/1 21/2/1 23/2/1
f 27/3/1 26/3/1 25/3/1
f 28/3/1 26/3/1 27/3/1
f 31/3/1 28/3/1 27/3/1
f 31/3/1 29/3/1 28/3/1
f 32/3/1 29/3/1 31/3/1
f 33/3/1 29/3/1 32/3/1
f 34/2/1 31/2/1 30/2/1
f 35/2/1 31/2/1 34/2/1
f 36/2/1 33/2/1 32/2/1
f 37/2/1 33/2/1 36/2/1
f 38/3/1 35/3/1 34/3/1
f 39/3/1 35/3/1 38/3/1
f 40/3/1 37/3/1 36/3/1
f 41/3/1 37/3/1 40/3/1
f 45/1/1 43/1/1 42/1/1
f 47/1/1 45/1/1 44/1/1
f 48/1/1 47/1/1 46/1/1
f 49/1/1 43/1/1 45/1/1
f 49/1/1 47/1/1 48/1/1
f 49/1/1 45/1/1 47/1/1
f 52/1/1 51/1/1 50/1/1
f 53/1/1 51/1/1 52/1/1
f 56/3/1 55/3/1 54/3/1
f 58/3/1 56/3/1 54/3/1
f 58/3/1 57/3/1 56/3/1
f 59/3/1 57/3/1 58/3/1
f 60/1/2 61/1/2 63/1/2
f 63/1/2 61/1/2 64/1/2
f 62/1/2 63/1/2 65/1/2
f 65/1/2 63/1/2 66/1/2
f 67/3/2 68/3/2 69/3/2
f 69/3/2 68/3/2 70/3/2
f 71/1/2 72/1/2 73/1/2
f 73/1/2 72/1/2 74/1/2
f 75/3/2 76/3/2 77/3/2
f 75/3/2 77/3/2 79/3/2
f 77/3/2 78/3/2 79/3/2
f 79/3/2 78/3/2 80/3/2
f 75/3/2 79/3/2 82/3/2
f 80/3/2 81/3/2 83/3/2
f 83/3/2 81/3/2 84/3/2
f 75/3/2 82/3/2 85/3/2
f 82/3/2 83/3/2 85/3/2
f 85/3/2 83/3/2 86/3/2
f 75/3/2 85/3/2 88/3/2
f 88/3/2 85/3/2 89/3/2
f 86/3/2 87/3/2 90/3/2
f 90/3/2 87/3/2 91/3/2
f 92/1/2 93/1/2 95/1/2
f 94/1/2 95/1/2 97/1/2
f 96/1/2 97/1/2 98/1/2
f 95/1/2 93/1/2 99/1/2
f 98/1/2 97/1/2 99/1/2
f 97/1/2 95/1/2 99/1/2
f 100/3/2 101/3/2 102/3/2
f 102/3/2 101/3/2 103/3/2
f 103/3/2 104/3/2 106/3/2
f 106/3/2 104/3/2 107/3/2
f 105/3/2 106/3/2 109/3/2
f 109/3/2 106/3/2 110/3/2
f 108/3/2 109/3/2 112/3/2
f 112/3/2 109/3/2 113/3/2
f 110/3/2 111/3/2 114/3/2
f 114/3/2 111/3/2 115/3/2
f 113/2/2 114/2/2 116/2/2
f 116/2/2 114/2/2 117/2/2
f 118/3/2 119/3/2 120/3/2
f 120/3/2 119/3/2 121/3/2
f 124/1/3 123/1/3 122/1/3
f 125/1/3 123/1/3 124/1/3
f 128/1/3 127/1/3 126/1/3
f 129/1/3 127/1/3 128/1/3
f 135/3/3 131/3/3 130/3/3
f 138/2/3 134/2/3 133/2/3
f 138/3/3 133/3/3 132/3/3
f 139/3/3 135/3/3 134/3/3
f 139/2/3 134/2/3 138/2/3
f 140/3/3 131/3/3 135/3/3
f 140/3/3 135/3/3 139/3/3
f 142/1/3 137/1/3 136/1/3
f 144/3/3 138/3/3 132/3/3
f 144/3/3 139/3/3 138/3/3
f 145/2/3 140/2/3 139/2/3
f 145/3/3 139/3/3 144/3/3
f 146/3/3 131/3/3 140/3/3
f 146/2/3 140/2/3 145/2/3
f 147/3/3 131/3/3 146/3/3
f 148/1/3 142/1/3 141/1/3
f 149/1/3 137/1/3 142/1/3
f 149/1/3 142/1/3 148/1/3
f 150/3/3 145/3/3 144/3/3
f 150/3/3 144/3/3 143/3/3
f 150/3/3 146/3/3 145/3/3
f 151/2/3 147/2/3 146/2/3
f 151/3/3 146/3/3 150/3/3
f 152/2/3 147/2/3 151/2/3
f 153/1/3 137/1/3 149/1/3
f 154/1/3 137/1/3 153/1/3
f 155/3/3 152/3/3 151/3/3
f 156/3/3 152/3/3 155/3/3
f 160/3/3 158/3/3 157/3/3
f 161/3/3 158/3/3 160/3/3
f 165/3/3 160/3/3 159/3/3
f 166/3/3 160/3/3 165/3/3
f 167/3/3 160/3/3 166/3/3
f 168/2/3 162/2/3 161/2/3
f 169/2/3 162/2/3 168/2/3
f 171/3/3 164/3/3 163/3/3
f 172/3/3 164/3/3 171/3/3
f 173/1/3 170/1/3 169/1/3
f 173/1/3 169/1/3 168/1/3
f 174/1/3 170/1/3 173/1/3
f 175/1/3 173/1/3 168/1/3
f 176/1/3 173/1/3 175/1/3
f 182/1/3 176/1/3 175/1/3
f 182/1/3 177/1/3 176/1/3
f 183/1/3 177/1/3 182/1/3
f 184/1/3 177/1/3 183/1/3
f 185/3/3 179/3/3 178/3/3
f 186/3/3 179/3/3 185/3/3
f 187/3/3 181/3/3 180/3/3
f 188/3/3 181/3/3 187/3/3
f 189/2/3 183/2/3 182/2/3
f 190/2/3 183/2/3 189/2/3
f 191/3/3 189/3/3 188/3/3
f 192/3/3 189/3/3 191/3/3
f 195/3/3 194/3/3 193/3/3
f 196/3/3 194/3/3 195/3/3
f 197/1/4 198/1/4 199/1/4
f 199/1/4 198/1/4 200/1/4
f 201/3/4 202/3/4 203/3/4
f 203/3/4 202/3/4 204/3/4
f 205/3/4 206/3/4 207/3/4
f 207/3/4 206/3/4 208/3/4
f 209/3/4 210/3/4 212/3/4
f 212/3/4 210/3/4 213/3/4
f 211/3/4 212/3/4 217/3/4
f 217/3/4 212/3/4 218/3/4
f 218/3/4 212/3/4 219/3/4
f 213/2/4 214/2/4 220/2/4
f 220/2/4 214/2/4 221/2/4
f 215/3/4 216/3/4 222/3/4
f 222/3/4 216/3/4 223/3/4
f 224/3/4 225/3/4 226/3/4
f 226/3/4 225/3/4 227/3/4
f 227/3/4 228/3/4 233/3/4
f 233/3/4 228/3/4 234/3/4
f 229/3/4 230/3/4 235/3/4
f 235/3/4 230/3/4 236/3/4
f 231/2/4 232/2/4 237/2/4
f 237/2/4 232/2/4 238/2/4
f 236/3/4 237/3/4 239/3/4
f 239/3/4 237/3/4 240/3/4
f 241/3/4 242/3/4 246/3/4
f 246/3/4 242/3/4 247/3/4
f 244/2/4 245/2/4 249/2/4
f 243/3/4 244/3/4 249/3/4
f 246/3/4 247/3/4 250/3/4
f 249/2/4 245/2/4 250/2/4
f 245/3/4 246/3/4 250/3/4
f 250/3/4 247/3/4 251/3/4
f 249/3/4 250/3/4 252/3/4
f 250/2/4 251/2/4 252/2/4
f 251/3/4 247/3/4 253/3/4
f 252/2/4 251/2/4 253/2/4
f 247/1/4 248/1/4 254/1/4
f 253/3/4 247/3/4 254/3/4
f 252/3/4 253/3/4 255/3/4
f 243/3/4 249/3/4 255/3/4
f 249/3/4 252/3/4 255/3/4
f 255/3/4 253/3/4 256/3/4
f 256/3/4 253/3/4 257/3/4
f 253/2/4 254/2/4 258/2/4
f 257/3/4 253/3/4 258/3/4
f 254/1/4 248/1/4 259/1/4
f 258/2/4 254/2/4 259/2/4
f 259/1/4 248/1/4 260/1/4
f 256/3/4 257/3/4 261/3/4
f 261/3/4 257/3/4 262/3/4
f 258/3/4 259/3/4 263/3/4
f 263/3/4 259/3/4 264/3/4
f 267/3/5 266/3/5 265/3/5
f 268/3/5 266/3/5 267/3/5
f 271/3/5 270/3/5 269/3/5
f 272/3/5 270/3/5 271/3/5
f 275/3/5 274/3/5 273/3/5
f 276/3/5 274/3/5 275/3/5
f 279/1/5 278/1/5 277/1/5
f 280/1/5 278/1/5 279/1/5
f 282/3/5 280/3/5 279/3/5
f 282/3/5 281/3/5 280/3/5
f 283/3/5 281/3/5 282/3/5
f 284/3/5 281/3/5 283/3/5
f 288/3/5 281/3/5 284/3/5
f 289/3/5 281/3/5 288/3/5
f 290/3/5 286/3/5 285/3/5
f 291/3/5 286/3/5 290/3/5
f 292/3/5 289/3/5 288/3/5
f 292/3/5 288/3/5 287/3/5
f 292/3/5 290/3/5 289/3/5
f 293/3/5 290/3/5 292/3/5
f 296/1/5 295/1/5 294/1/5
f 297/1/5 295/1/5 296/1/5
f 300/3/5 299/3/5 298/3/5
f 301/3/5 299/3/5 300/3/5
f 304/3/5 303/3/5 302/3/5
f 305/3/5 303/3/5 304/3/5
f 308/3/5 307/3/5 306/3/5
f 309/3/5 307/3/5 308/3/5
f 315/3/5 311/3/5 310/3/5
f 316/3/5 311/3/5 315/3/5
f 317/3/5 313/3/5 312/3/5
f 318/3/5 313/3/5 317/3/5
f 320/3/5 315/3/5 314/3/5
f 321/3/5 315/3/5 320/3/5
f 324/3/5 319/3/5 318/3/5
f 325/3/5 319/3/5 324/3/5
f 326/3/5 322/3/5 321/3/5
f 327/3/5 322/3/5 326/3/5
f 328/3/5 324/3/5 323/3/5
f 329/3/5 324/3/5 328/3/5
f 332/1/5 331/1/5 330/1/5
f 333/1/5 331/1/5 332/1/5
f 338/1/5 335/1/5 334/1/5
f 339/1/5 335/1/5 338/1/5
f 340/1/5 337/1/5 336/1/5
f 341/1/5 337/1/5 340/1/5
f 342/1/6 343/1/6 344/1/6
f 344/1/6 343/1/6 345/1/6
f 344/3/6 345/3/6 346/3/6
f 346/3/6 345/3/6 347/3/6
f 348/3/6 349/3/6 350/3/6
f 350/3/6 349/3/6 351/3/6
f 352/1/6 353/1/6 354/1/6
f 354/1/6 353/1/6 355/1/6
f 356/3/6 357/3/6 358/3/6
f 358/3/6 357/3/6 359/3/6
f 360/3/6 361/3/6 365/3/6
f 365/3/6 361/3/6 366/3/6
f 361/2/6 362/2/6 367/2/6
f 366/3/6 361/3/6 367/3/6
f 362/3/6 363/3/6 368/3/6
f 367/2/6 362/2/6 368/2/6
f 368/3/6 363/3/6 369/3/6
f 364/3/6 365/3/6 371/3/6
f 371/3/6 365/3/6 372/3/6
f 369/3/6 370/3/6 375/3/6
f 375/3/6 370/3/6 376/3/6
f 372/3/6 373/3/6 377/3/6
f 377/3/6 373/3/6 378/3/6
f 374/3/6 375/3/6 379/3/6
f 379/3/6 375/3/6 380/3/6
f 381/2/6 382/2/6 385/2/6
f 385/2/6 382/2/6 386/2/6
f 383/2/6 384/2/6 387/2/6
f 387/2/6 384/2/6 388/2/6
f 389/1/6 390/1/6 391/1/6
f 391/1/6 390/1/6 392/1/6
