# MagicaVoxel @ Ephtracy

# group
o 

# material
mtllib 0.mtl
usemtl palette

# normals
vn -1 0 0
vn 1 0 0
vn 0 0 1
vn 0 0 -1
vn 0 -1 0
vn 0 1 0

# texcoords
vt 0.970703 0.5
vt 0.986328 0.5
vt 0.990234 0.5
vt 0.994141 0.5

# verts
v 0.6 2.6 -0.9
v 0.6 2.6 -1
v 0.6 2.7 -0.9
v 0.6 2.7 -1
v 0.7 2.3 -0.6
v 0.7 2.3 -0.9
v 0.7 2.3 -1
v 0.7 2.4 -0.6
v 0.7 2.4 -0.9
v 0.7 2.6 -0.8
v 0.7 2.6 -0.9
v 0.7 2.6 -1
v 0.7 2.6 -1.1
v 0.7 2.7 -0.8
v 0.7 2.7 -0.9
v 0.7 2.7 -1
v 0.7 2.7 -1.1
v 0.8 2 -0.9
v 0.8 2 -1
v 0.8 2.3 -0.9
v 0.8 2.3 -1
v 0.8 2.3 -1.1
v 0.8 2.4 -0.8
v 0.8 2.4 -0.9
v 0.8 2.4 -1
v 0.8 2.4 -1.1
v 0.8 2.5 -0.8
v 0.8 2.5 -0.9
v 0.8 2.5 -1
v 0.8 2.5 -1.1
v 0.8 2.6 -0.8
v 0.8 2.6 -0.9
v 0.8 2.6 -1
v 0.8 2.6 -1.1
v 0.8 2.7 -0.9
v 0.8 2.7 -1
v 0.8 2.7 -1.1
v 0.8 2.9 -0.8
v 0.8 2.9 -0.9
v 0.8 3 -0.8
v 0.8 3 -1.1
v 0.9 2.8 -0.8
v 0.9 2.8 -0.9
v 0.9 2.9 -0.8
v 0.9 2.9 -0.9
v 1 2 -0.9
v 1 2 -1
v 1 2.3 -0.9
v 1 2.3 -1
v 0.8 2.3 -0.6
v 0.8 2.3 -0.8
v 0.8 2.4 -0.6
v 0.8 2.4 -0.8
v 0.9 2 -0.9
v 0.9 2 -1
v 0.9 2.3 -0.9
v 0.9 2.3 -1
v 1 2.8 -0.8
v 1 2.8 -0.9
v 1 2.9 -0.8
v 1 2.9 -0.9
v 1.1 2 -0.9
v 1.1 2 -1
v 1.1 2.3 -0.8
v 1.1 2.3 -0.9
v 1.1 2.3 -1
v 1.1 2.3 -1.1
v 1.1 2.6 -0.8
v 1.1 2.6 -0.9
v 1.1 2.6 -1
v 1.1 2.6 -1.1
v 1.1 2.7 -0.9
v 1.1 2.7 -1
v 1.1 2.7 -1.1
v 1.1 2.9 -0.8
v 1.1 2.9 -0.9
v 1.1 3 -0.8
v 1.1 3 -1.1
v 1.2 2.3 -0.9
v 1.2 2.3 -1
v 1.2 2.6 -0.8
v 1.2 2.6 -0.9
v 1.2 2.6 -1
v 1.2 2.6 -1.1
v 1.2 2.7 -0.8
v 1.2 2.7 -0.9
v 1.2 2.7 -1
v 1.2 2.7 -1.1
v 1.3 2.6 -0.9
v 1.3 2.6 -1
v 1.3 2.7 -0.9
v 1.3 2.7 -1
v 0.7 2.3 -0.6
v 0.7 2.4 -0.6
v 0.8 2.3 -0.6
v 0.8 2.4 -0.6
v 0.7 2.6 -0.8
v 0.7 2.7 -0.8
v 0.8 2.3 -0.8
v 0.8 2.4 -0.8
v 0.8 2.5 -0.8
v 0.8 2.6 -0.8
v 0.8 2.9 -0.8
v 0.8 3 -0.8
v 0.9 2.4 -0.8
v 0.9 2.5 -0.8
v 0.9 2.6 -0.8
v 0.9 2.8 -0.8
v 0.9 2.9 -0.8
v 1 2.5 -0.8
v 1 2.6 -0.8
v 1 2.7 -0.8
v 1 2.8 -0.8
v 1 2.9 -0.8
v 1.1 2.3 -0.8
v 1.1 2.6 -0.8
v 1.1 2.7 -0.8
v 1.1 2.9 -0.8
v 1.1 3 -0.8
v 1.2 2.6 -0.8
v 1.2 2.7 -0.8
v 0.6 2.6 -0.9
v 0.6 2.7 -0.9
v 0.7 2.4 -0.9
v 0.7 2.6 -0.9
v 0.7 2.7 -0.9
v 0.8 2 -0.9
v 0.8 2.3 -0.9
v 0.8 2.4 -0.9
v 0.8 2.5 -0.9
v 0.8 2.6 -0.9
v 0.8 2.7 -0.9
v 0.8 2.9 -0.9
v 0.9 2 -0.9
v 0.9 2.3 -0.9
v 0.9 2.8 -0.9
v 0.9 2.9 -0.9
v 1 2 -0.9
v 1 2.3 -0.9
v 1 2.7 -0.9
v 1 2.8 -0.9
v 1 2.9 -0.9
v 1.1 2 -0.9
v 1.1 2.3 -0.9
v 1.1 2.6 -0.9
v 1.1 2.7 -0.9
v 1.1 2.9 -0.9
v 1.2 2.3 -0.9
v 1.2 2.6 -0.9
v 1.2 2.7 -0.9
v 1.3 2.6 -0.9
v 1.3 2.7 -0.9
v 0.6 2.6 -1
v 0.6 2.7 -1
v 0.7 2.3 -1
v 0.7 2.6 -1
v 0.7 2.7 -1
v 0.8 2 -1
v 0.8 2.3 -1
v 0.8 2.4 -1
v 0.8 2.5 -1
v 0.8 2.6 -1
v 0.9 2 -1
v 0.9 2.3 -1
v 1 2 -1
v 1 2.3 -1
v 1.1 2 -1
v 1.1 2.3 -1
v 1.1 2.6 -1
v 1.2 2.3 -1
v 1.2 2.6 -1
v 1.2 2.7 -1
v 1.3 2.6 -1
v 1.3 2.7 -1
v 0.7 2.6 -1.1
v 0.7 2.7 -1.1
v 0.8 2.3 -1.1
v 0.8 2.4 -1.1
v 0.8 2.5 -1.1
v 0.8 2.6 -1.1
v 0.8 2.7 -1.1
v 0.8 3 -1.1
v 0.9 2.4 -1.1
v 0.9 2.5 -1.1
v 0.9 2.6 -1.1
v 1 2.5 -1.1
v 1 2.6 -1.1
v 1 2.7 -1.1
v 1.1 2.3 -1.1
v 1.1 2.6 -1.1
v 1.1 2.7 -1.1
v 1.1 3 -1.1
v 1.2 2.6 -1.1
v 1.2 2.7 -1.1
v 0.8 2 -0.9
v 0.9 2 -0.9
v 1 2 -0.9
v 1.1 2 -0.9
v 0.8 2 -1
v 0.9 2 -1
v 1 2 -1
v 1.1 2 -1
v 0.7 2.3 -0.6
v 0.8 2.3 -0.6
v 0.8 2.3 -0.8
v 1.1 2.3 -0.8
v 0.7 2.3 -0.9
v 0.8 2.3 -0.9
v 0.9 2.3 -0.9
v 1 2.3 -0.9
v 1.1 2.3 -0.9
v 1.2 2.3 -0.9
v 0.7 2.3 -1
v 0.8 2.3 -1
v 0.9 2.3 -1
v 1 2.3 -1
v 1.1 2.3 -1
v 1.2 2.3 -1
v 0.8 2.3 -1.1
v 1.1 2.3 -1.1
v 0.7 2.6 -0.8
v 0.8 2.6 -0.8
v 1.1 2.6 -0.8
v 1.2 2.6 -0.8
v 0.6 2.6 -0.9
v 0.7 2.6 -0.9
v 0.8 2.6 -0.9
v 1.1 2.6 -0.9
v 1.2 2.6 -0.9
v 1.3 2.6 -0.9
v 0.6 2.6 -1
v 0.7 2.6 -1
v 0.8 2.6 -1
v 1.1 2.6 -1
v 1.2 2.6 -1
v 1.3 2.6 -1
v 0.7 2.6 -1.1
v 0.8 2.6 -1.1
v 1.1 2.6 -1.1
v 1.2 2.6 -1.1
v 0.9 2.8 -0.8
v 1 2.8 -0.8
v 0.9 2.8 -0.9
v 1 2.8 -0.9
v 0.8 2.9 -0.8
v 0.9 2.9 -0.8
v 1 2.9 -0.8
v 1.1 2.9 -0.8
v 0.8 2.9 -0.9
v 0.9 2.9 -0.9
v 1 2.9 -0.9
v 1.1 2.9 -0.9
v 0.7 2.4 -0.6
v 0.8 2.4 -0.6
v 0.8 2.4 -0.8
v 0.7 2.4 -0.9
v 0.8 2.4 -0.9
v 0.7 2.7 -0.8
v 1 2.7 -0.8
v 1.1 2.7 -0.8
v 1.2 2.7 -0.8
v 0.6 2.7 -0.9
v 0.7 2.7 -0.9
v 0.8 2.7 -0.9
v 1 2.7 -0.9
v 1.1 2.7 -0.9
v 1.2 2.7 -0.9
v 1.3 2.7 -0.9
v 0.6 2.7 -1
v 0.7 2.7 -1
v 0.8 2.7 -1
v 1.1 2.7 -1
v 1.2 2.7 -1
v 1.3 2.7 -1
v 0.7 2.7 -1.1
v 0.8 2.7 -1.1
v 1.1 2.7 -1.1
v 1.2 2.7 -1.1
v 0.8 3 -0.8
v 1.1 3 -0.8
v 0.8 3 -1.1
v 1.1 3 -1.1

# faces
f 3/3/1 2/3/1 1/3/1
f 4/3/1 2/3/1 3/3/1
f 8/1/1 6/1/1 5/1/1
f 9/3/1 7/3/1 6/3/1
f 9/1/1 6/1/1 8/1/1
f 11/3/1 7/3/1 9/3/1
f 12/3/1 7/3/1 11/3/1
f 14/3/1 11/3/1 10/3/1
f 15/3/1 11/3/1 14/3/1
f 16/3/1 13/3/1 12/3/1
f 17/3/1 13/3/1 16/3/1
f 20/3/1 19/3/1 18/3/1
f 21/3/1 19/3/1 20/3/1
f 25/3/1 22/3/1 21/3/1
f 26/3/1 22/3/1 25/3/1
f 27/2/1 24/2/1 23/2/1
f 28/2/1 24/2/1 27/2/1
f 29/2/1 26/2/1 25/2/1
f 30/2/1 26/2/1 29/2/1
f 31/3/1 28/3/1 27/3/1
f 32/3/1 28/3/1 31/3/1
f 33/3/1 30/3/1 29/3/1
f 34/3/1 30/3/1 33/3/1
f 39/4/1 36/4/1 35/4/1
f 39/4/1 37/4/1 36/4/1
f 40/4/1 39/4/1 38/4/1
f 41/4/1 37/4/1 39/4/1
f 41/4/1 39/4/1 40/4/1
f 44/4/1 43/4/1 42/4/1
f 45/4/1 43/4/1 44/4/1
f 48/3/1 47/3/1 46/3/1
f 49/3/1 47/3/1 48/3/1
f 50/1/2 51/1/2 52/1/2
f 52/1/2 51/1/2 53/1/2
f 54/3/2 55/3/2 56/3/2
f 56/3/2 55/3/2 57/3/2
f 58/4/2 59/4/2 60/4/2
f 60/4/2 59/4/2 61/4/2
f 62/3/2 63/3/2 65/3/2
f 65/3/2 63/3/2 66/3/2
f 64/3/2 65/3/2 68/3/2
f 68/3/2 65/3/2 69/3/2
f 66/3/2 67/3/2 70/3/2
f 70/3/2 67/3/2 71/3/2
f 72/4/2 73/4/2 76/4/2
f 73/4/2 74/4/2 76/4/2
f 75/4/2 76/4/2 77/4/2
f 76/4/2 74/4/2 78/4/2
f 77/4/2 76/4/2 78/4/2
f 79/3/2 80/3/2 82/3/2
f 82/3/2 80/3/2 83/3/2
f 81/3/2 82/3/2 85/3/2
f 85/3/2 82/3/2 86/3/2
f 83/3/2 84/3/2 87/3/2
f 87/3/2 84/3/2 88/3/2
f 89/3/2 90/3/2 91/3/2
f 91/3/2 90/3/2 92/3/2
f 95/1/3 94/1/3 93/1/3
f 96/1/3 94/1/3 95/1/3
f 102/3/3 98/3/3 97/3/3
f 105/2/3 101/2/3 100/2/3
f 105/3/3 100/3/3 99/3/3
f 106/3/3 102/3/3 101/3/3
f 106/2/3 101/2/3 105/2/3
f 107/3/3 98/3/3 102/3/3
f 107/3/3 102/3/3 106/3/3
f 109/4/3 104/4/3 103/4/3
f 110/3/3 106/3/3 105/3/3
f 110/2/3 107/2/3 106/2/3
f 111/3/3 98/3/3 107/3/3
f 111/2/3 107/2/3 110/2/3
f 112/3/3 98/3/3 111/3/3
f 113/4/3 109/4/3 108/4/3
f 114/4/3 104/4/3 109/4/3
f 114/4/3 109/4/3 113/4/3
f 115/3/3 110/3/3 105/3/3
f 115/3/3 105/3/3 99/3/3
f 115/3/3 111/3/3 110/3/3
f 116/2/3 112/2/3 111/2/3
f 116/3/3 111/3/3 115/3/3
f 117/2/3 112/2/3 116/2/3
f 118/4/3 104/4/3 114/4/3
f 119/4/3 104/4/3 118/4/3
f 120/3/3 117/3/3 116/3/3
f 121/3/3 117/3/3 120/3/3
f 125/3/3 123/3/3 122/3/3
f 126/3/3 123/3/3 125/3/3
f 129/3/3 125/3/3 124/3/3
f 130/3/3 125/3/3 129/3/3
f 131/3/3 125/3/3 130/3/3
f 134/3/3 128/3/3 127/3/3
f 135/3/3 128/3/3 134/3/3
f 136/4/3 133/4/3 132/4/3
f 137/4/3 133/4/3 136/4/3
f 140/4/3 136/4/3 132/4/3
f 141/4/3 136/4/3 140/4/3
f 143/3/3 139/3/3 138/3/3
f 144/3/3 139/3/3 143/3/3
f 146/4/3 142/4/3 141/4/3
f 146/4/3 141/4/3 140/4/3
f 147/4/3 142/4/3 146/4/3
f 148/3/3 145/3/3 144/3/3
f 149/3/3 145/3/3 148/3/3
f 151/3/3 150/3/3 149/3/3
f 152/3/3 150/3/3 151/3/3
f 153/3/4 154/3/4 156/3/4
f 156/3/4 154/3/4 157/3/4
f 155/3/4 156/3/4 159/3/4
f 159/3/4 156/3/4 160/3/4
f 160/3/4 156/3/4 161/3/4
f 161/3/4 156/3/4 162/3/4
f 158/3/4 159/3/4 163/3/4
f 163/3/4 159/3/4 164/3/4
f 165/3/4 166/3/4 167/3/4
f 167/3/4 166/3/4 168/3/4
f 168/3/4 169/3/4 170/3/4
f 170/3/4 169/3/4 171/3/4
f 171/3/4 172/3/4 173/3/4
f 173/3/4 172/3/4 174/3/4
f 175/3/4 176/3/4 180/3/4
f 180/3/4 176/3/4 181/3/4
f 178/2/4 179/2/4 183/2/4
f 177/3/4 178/3/4 183/3/4
f 180/3/4 181/3/4 184/3/4
f 183/2/4 179/2/4 184/2/4
f 179/3/4 180/3/4 184/3/4
f 184/3/4 181/3/4 185/3/4
f 183/3/4 184/3/4 186/3/4
f 184/2/4 185/2/4 186/2/4
f 185/3/4 181/3/4 187/3/4
f 186/2/4 185/2/4 187/2/4
f 181/4/4 182/4/4 188/4/4
f 187/3/4 181/3/4 188/3/4
f 186/3/4 187/3/4 189/3/4
f 177/3/4 183/3/4 189/3/4
f 183/3/4 186/3/4 189/3/4
f 187/2/4 188/2/4 190/2/4
f 189/3/4 187/3/4 190/3/4
f 188/4/4 182/4/4 191/4/4
f 190/2/4 188/2/4 191/2/4
f 191/4/4 182/4/4 192/4/4
f 190/3/4 191/3/4 193/3/4
f 193/3/4 191/3/4 194/3/4
f 199/3/5 196/3/5 195/3/5
f 200/3/5 196/3/5 199/3/5
f 201/3/5 198/3/5 197/3/5
f 202/3/5 198/3/5 201/3/5
f 205/1/5 204/1/5 203/1/5
f 207/1/5 205/1/5 203/1/5
f 208/3/5 206/3/5 205/3/5
f 208/1/5 205/1/5 207/1/5
f 209/3/5 206/3/5 208/3/5
f 210/3/5 206/3/5 209/3/5
f 211/3/5 206/3/5 210/3/5
f 213/3/5 208/3/5 207/3/5
f 214/3/5 208/3/5 213/3/5
f 215/3/5 210/3/5 209/3/5
f 216/3/5 210/3/5 215/3/5
f 217/3/5 212/3/5 211/3/5
f 218/3/5 212/3/5 217/3/5
f 219/3/5 216/3/5 215/3/5
f 219/3/5 217/3/5 216/3/5
f 219/3/5 215/3/5 214/3/5
f 220/3/5 217/3/5 219/3/5
f 226/3/5 222/3/5 221/3/5
f 227/3/5 222/3/5 226/3/5
f 228/3/5 224/3/5 223/3/5
f 229/3/5 224/3/5 228/3/5
f 231/3/5 226/3/5 225/3/5
f 232/3/5 226/3/5 231/3/5
f 235/3/5 230/3/5 229/3/5
f 236/3/5 230/3/5 235/3/5
f 237/3/5 233/3/5 232/3/5
f 238/3/5 233/3/5 237/3/5
f 239/3/5 235/3/5 234/3/5
f 240/3/5 235/3/5 239/3/5
f 243/4/5 242/4/5 241/4/5
f 244/4/5 242/4/5 243/4/5
f 249/4/5 246/4/5 245/4/5
f 250/4/5 246/4/5 249/4/5
f 251/4/5 248/4/5 247/4/5
f 252/4/5 248/4/5 251/4/5
f 253/1/6 254/1/6 255/1/6
f 253/1/6 255/1/6 256/1/6
f 256/1/6 255/1/6 257/1/6
f 258/3/6 259/3/6 263/3/6
f 263/3/6 259/3/6 264/3/6
f 259/2/6 260/2/6 265/2/6
f 264/3/6 259/3/6 265/3/6
f 260/3/6 261/3/6 266/3/6
f 265/2/6 260/2/6 266/2/6
f 266/3/6 261/3/6 267/3/6
f 262/3/6 263/3/6 269/3/6
f 263/2/6 264/2/6 270/2/6
f 269/3/6 263/3/6 270/3/6
f 270/2/6 264/2/6 271/2/6
f 266/2/6 267/2/6 272/2/6
f 267/3/6 268/3/6 273/3/6
f 272/2/6 267/2/6 273/2/6
f 273/3/6 268/3/6 274/3/6
f 270/3/6 271/3/6 275/3/6
f 275/3/6 271/3/6 276/3/6
f 272/3/6 273/3/6 277/3/6
f 277/3/6 273/3/6 278/3/6
f 279/4/6 280/4/6 281/4/6
f 281/4/6 280/4/6 282/4/6
