# MagicaVoxel @ Ephtracy

# group
o 

# material
mtllib 2.mtl
usemtl palette

# normals
vn -1 0 0
vn 1 0 0
vn 0 0 1
vn 0 0 -1
vn 0 -1 0
vn 0 1 0

# texcoords
vt 0.970703 0.5
vt 0.986328 0.5
vt 0.990234 0.5
vt 0.994141 0.5

# verts
v 0.6 2.6 -0.9
v 0.6 2.6 -1
v 0.6 2.7 -0.9
v 0.6 2.7 -1
v 0.7 2.4 -0.7
v 0.7 2.4 -0.9
v 0.7 2.5 -0.7
v 0.7 2.5 -0.9
v 0.7 2.5 -1
v 0.7 2.6 -0.8
v 0.7 2.6 -0.9
v 0.7 2.6 -1
v 0.7 2.6 -1.1
v 0.7 2.7 -0.8
v 0.7 2.7 -0.9
v 0.7 2.7 -1
v 0.7 2.7 -1.1
v 0.8 2 -0.9
v 0.8 2 -1
v 0.8 2.3 -0.8
v 0.8 2.3 -0.9
v 0.8 2.3 -1
v 0.8 2.3 -1.1
v 0.8 2.4 -0.8
v 0.8 2.4 -0.9
v 0.8 2.4 -1.1
v 0.8 2.5 -0.6
v 0.8 2.5 -0.7
v 0.8 2.5 -0.8
v 0.8 2.5 -0.9
v 0.8 2.5 -1
v 0.8 2.5 -1.1
v 0.8 2.6 -0.6
v 0.8 2.6 -0.7
v 0.8 2.6 -0.8
v 0.8 2.6 -0.9
v 0.8 2.6 -1
v 0.8 2.6 -1.1
v 0.8 2.7 -0.9
v 0.8 2.7 -1
v 0.8 2.7 -1.1
v 0.8 2.9 -0.8
v 0.8 2.9 -0.9
v 0.8 3 -0.8
v 0.8 3 -1.1
v 0.9 2.6 -0.5
v 0.9 2.6 -0.6
v 0.9 2.7 -0.5
v 0.9 2.7 -0.6
v 0.9 2.8 -0.8
v 0.9 2.8 -0.9
v 0.9 2.9 -0.8
v 0.9 2.9 -0.9
v 1 2 -0.9
v 1 2 -1
v 1 2.3 -0.9
v 1 2.3 -1
v 1 2.7 -0.4
v 1 2.7 -0.5
v 1 2.8 -0.4
v 1 2.8 -0.5
v 0.8 2.4 -0.7
v 0.8 2.4 -0.8
v 0.8 2.5 -0.7
v 0.8 2.5 -0.8
v 0.9 2 -0.9
v 0.9 2 -1
v 0.9 2.3 -0.9
v 0.9 2.3 -1
v 0.9 2.5 -0.6
v 0.9 2.5 -0.7
v 0.9 2.6 -0.6
v 0.9 2.6 -0.7
v 1 2.6 -0.5
v 1 2.6 -0.6
v 1 2.7 -0.5
v 1 2.7 -0.6
v 1 2.8 -0.8
v 1 2.8 -0.9
v 1 2.9 -0.8
v 1 2.9 -0.9
v 1.1 2 -0.9
v 1.1 2 -1
v 1.1 2.3 -0.8
v 1.1 2.3 -0.9
v 1.1 2.3 -1
v 1.1 2.3 -1.1
v 1.1 2.6 -0.8
v 1.1 2.6 -0.9
v 1.1 2.6 -1
v 1.1 2.6 -1.1
v 1.1 2.7 -0.4
v 1.1 2.7 -0.5
v 1.1 2.7 -0.9
v 1.1 2.7 -1
v 1.1 2.7 -1.1
v 1.1 2.8 -0.4
v 1.1 2.8 -0.5
v 1.1 2.9 -0.8
v 1.1 2.9 -0.9
v 1.1 3 -0.8
v 1.1 3 -1.1
v 1.2 2.3 -0.9
v 1.2 2.3 -1
v 1.2 2.6 -0.8
v 1.2 2.6 -0.9
v 1.2 2.6 -1
v 1.2 2.6 -1.1
v 1.2 2.7 -0.8
v 1.2 2.7 -0.9
v 1.2 2.7 -1
v 1.2 2.7 -1.1
v 1.3 2.6 -0.9
v 1.3 2.6 -1
v 1.3 2.7 -0.9
v 1.3 2.7 -1
v 1 2.7 -0.4
v 1 2.8 -0.4
v 1.1 2.7 -0.4
v 1.1 2.8 -0.4
v 0.9 2.6 -0.5
v 0.9 2.7 -0.5
v 1 2.6 -0.5
v 1 2.7 -0.5
v 0.8 2.5 -0.6
v 0.8 2.6 -0.6
v 0.9 2.5 -0.6
v 0.9 2.6 -0.6
v 0.7 2.4 -0.7
v 0.7 2.5 -0.7
v 0.8 2.4 -0.7
v 0.8 2.5 -0.7
v 0.7 2.6 -0.8
v 0.7 2.7 -0.8
v 0.8 2.3 -0.8
v 0.8 2.4 -0.8
v 0.8 2.5 -0.8
v 0.8 2.6 -0.8
v 0.8 2.9 -0.8
v 0.8 3 -0.8
v 0.9 2.4 -0.8
v 0.9 2.5 -0.8
v 0.9 2.6 -0.8
v 0.9 2.8 -0.8
v 0.9 2.9 -0.8
v 1 2.5 -0.8
v 1 2.6 -0.8
v 1 2.7 -0.8
v 1 2.8 -0.8
v 1 2.9 -0.8
v 1.1 2.3 -0.8
v 1.1 2.6 -0.8
v 1.1 2.7 -0.8
v 1.1 2.9 -0.8
v 1.1 3 -0.8
v 1.2 2.6 -0.8
v 1.2 2.7 -0.8
v 0.6 2.6 -0.9
v 0.6 2.7 -0.9
v 0.7 2.5 -0.9
v 0.7 2.6 -0.9
v 0.7 2.7 -0.9
v 0.8 2 -0.9
v 0.8 2.3 -0.9
v 0.8 2.5 -0.9
v 0.8 2.6 -0.9
v 0.8 2.7 -0.9
v 0.8 2.9 -0.9
v 0.9 2 -0.9
v 0.9 2.3 -0.9
v 0.9 2.8 -0.9
v 0.9 2.9 -0.9
v 1 2 -0.9
v 1 2.3 -0.9
v 1 2.7 -0.9
v 1 2.8 -0.9
v 1 2.9 -0.9
v 1.1 2 -0.9
v 1.1 2.3 -0.9
v 1.1 2.6 -0.9
v 1.1 2.7 -0.9
v 1.1 2.9 -0.9
v 1.2 2.3 -0.9
v 1.2 2.6 -0.9
v 1.2 2.7 -0.9
v 1.3 2.6 -0.9
v 1.3 2.7 -0.9
v 1 2.7 -0.5
v 1 2.8 -0.5
v 1.1 2.7 -0.5
v 1.1 2.8 -0.5
v 0.9 2.6 -0.6
v 0.9 2.7 -0.6
v 1 2.6 -0.6
v 1 2.7 -0.6
v 0.8 2.5 -0.7
v 0.8 2.6 -0.7
v 0.9 2.5 -0.7
v 0.9 2.6 -0.7
v 0.7 2.4 -0.9
v 0.7 2.5 -0.9
v 0.8 2.4 -0.9
v 0.8 2.5 -0.9
v 0.6 2.6 -1
v 0.6 2.7 -1
v 0.7 2.5 -1
v 0.7 2.6 -1
v 0.7 2.7 -1
v 0.8 2 -1
v 0.8 2.3 -1
v 0.8 2.5 -1
v 0.8 2.6 -1
v 0.9 2 -1
v 0.9 2.3 -1
v 1 2 -1
v 1 2.3 -1
v 1.1 2 -1
v 1.1 2.3 -1
v 1.1 2.6 -1
v 1.2 2.3 -1
v 1.2 2.6 -1
v 1.2 2.7 -1
v 1.3 2.6 -1
v 1.3 2.7 -1
v 0.7 2.6 -1.1
v 0.7 2.7 -1.1
v 0.8 2.3 -1.1
v 0.8 2.4 -1.1
v 0.8 2.5 -1.1
v 0.8 2.6 -1.1
v 0.8 2.7 -1.1
v 0.8 3 -1.1
v 0.9 2.4 -1.1
v 0.9 2.5 -1.1
v 0.9 2.6 -1.1
v 1 2.5 -1.1
v 1 2.6 -1.1
v 1 2.7 -1.1
v 1.1 2.3 -1.1
v 1.1 2.6 -1.1
v 1.1 2.7 -1.1
v 1.1 3 -1.1
v 1.2 2.6 -1.1
v 1.2 2.7 -1.1
v 0.8 2 -0.9
v 0.9 2 -0.9
v 1 2 -0.9
v 1.1 2 -0.9
v 0.8 2 -1
v 0.9 2 -1
v 1 2 -1
v 1.1 2 -1
v 0.8 2.3 -0.8
v 1.1 2.3 -0.8
v 0.8 2.3 -0.9
v 0.9 2.3 -0.9
v 1 2.3 -0.9
v 1.1 2.3 -0.9
v 1.2 2.3 -0.9
v 0.8 2.3 -1
v 0.9 2.3 -1
v 1 2.3 -1
v 1.1 2.3 -1
v 1.2 2.3 -1
v 0.8 2.3 -1.1
v 1.1 2.3 -1.1
v 0.7 2.4 -0.7
v 0.8 2.4 -0.7
v 0.8 2.4 -0.8
v 0.7 2.4 -0.9
v 0.8 2.4 -0.9
v 0.8 2.5 -0.6
v 0.9 2.5 -0.6
v 0.8 2.5 -0.7
v 0.9 2.5 -0.7
v 0.7 2.5 -0.9
v 0.8 2.5 -0.9
v 0.7 2.5 -1
v 0.8 2.5 -1
v 0.9 2.6 -0.5
v 1 2.6 -0.5
v 0.9 2.6 -0.6
v 1 2.6 -0.6
v 0.7 2.6 -0.8
v 0.8 2.6 -0.8
v 1.1 2.6 -0.8
v 1.2 2.6 -0.8
v 0.6 2.6 -0.9
v 0.7 2.6 -0.9
v 0.8 2.6 -0.9
v 1.1 2.6 -0.9
v 1.2 2.6 -0.9
v 1.3 2.6 -0.9
v 0.6 2.6 -1
v 0.7 2.6 -1
v 0.8 2.6 -1
v 1.1 2.6 -1
v 1.2 2.6 -1
v 1.3 2.6 -1
v 0.7 2.6 -1.1
v 0.8 2.6 -1.1
v 1.1 2.6 -1.1
v 1.2 2.6 -1.1
v 1 2.7 -0.4
v 1.1 2.7 -0.4
v 1 2.7 -0.5
v 1.1 2.7 -0.5
v 0.9 2.8 -0.8
v 1 2.8 -0.8
v 0.9 2.8 -0.9
v 1 2.8 -0.9
v 0.8 2.9 -0.8
v 0.9 2.9 -0.8
v 1 2.9 -0.8
v 1.1 2.9 -0.8
v 0.8 2.9 -0.9
v 0.9 2.9 -0.9
v 1 2.9 -0.9
v 1.1 2.9 -0.9
v 0.7 2.5 -0.7
v 0.8 2.5 -0.7
v 0.8 2.5 -0.8
v 0.7 2.5 -0.9
v 0.8 2.5 -0.9
v 0.8 2.6 -0.6
v 0.9 2.6 -0.6
v 0.8 2.6 -0.7
v 0.9 2.6 -0.7
v 0.9 2.7 -0.5
v 1 2.7 -0.5
v 0.9 2.7 -0.6
v 1 2.7 -0.6
v 0.7 2.7 -0.8
v 1 2.7 -0.8
v 1.1 2.7 -0.8
v 1.2 2.7 -0.8
v 0.6 2.7 -0.9
v 0.7 2.7 -0.9
v 0.8 2.7 -0.9
v 1 2.7 -0.9
v 1.1 2.7 -0.9
v 1.2 2.7 -0.9
v 1.3 2.7 -0.9
v 0.6 2.7 -1
v 0.7 2.7 -1
v 0.8 2.7 -1
v 1.1 2.7 -1
v 1.2 2.7 -1
v 1.3 2.7 -1
v 0.7 2.7 -1.1
v 0.8 2.7 -1.1
v 1.1 2.7 -1.1
v 1.2 2.7 -1.1
v 1 2.8 -0.4
v 1.1 2.8 -0.4
v 1 2.8 -0.5
v 1.1 2.8 -0.5
v 0.8 3 -0.8
v 1.1 3 -0.8
v 0.8 3 -1.1
v 1.1 3 -1.1

# faces
f 3/3/1 2/3/1 1/3/1
f 4/3/1 2/3/1 3/3/1
f 7/3/1 6/3/1 5/3/1
f 8/3/1 6/3/1 7/3/1
f 11/3/1 9/3/1 8/3/1
f 12/3/1 9/3/1 11/3/1
f 14/3/1 11/3/1 10/3/1
f 15/3/1 11/3/1 14/3/1
f 16/3/1 13/3/1 12/3/1
f 17/3/1 13/3/1 16/3/1
f 21/3/1 19/3/1 18/3/1
f 22/3/1 19/3/1 21/3/1
f 24/3/1 21/3/1 20/3/1
f 24/3/1 23/3/1 22/3/1
f 24/3/1 22/3/1 21/3/1
f 25/3/1 23/3/1 24/3/1
f 26/3/1 23/3/1 25/3/1
f 30/2/1 26/2/1 25/2/1
f 31/2/1 26/2/1 30/2/1
f 32/2/1 26/2/1 31/2/1
f 33/1/1 28/1/1 27/1/1
f 34/1/1 28/1/1 33/1/1
f 35/3/1 30/3/1 29/3/1
f 36/3/1 30/3/1 35/3/1
f 37/3/1 32/3/1 31/3/1
f 38/3/1 32/3/1 37/3/1
f 43/4/1 40/4/1 39/4/1
f 43/4/1 41/4/1 40/4/1
f 44/4/1 43/4/1 42/4/1
f 45/4/1 41/4/1 43/4/1
f 45/4/1 43/4/1 44/4/1
f 48/1/1 47/1/1 46/1/1
f 49/1/1 47/1/1 48/1/1
f 52/4/1 51/4/1 50/4/1
f 53/4/1 51/4/1 52/4/1
f 56/3/1 55/3/1 54/3/1
f 57/3/1 55/3/1 56/3/1
f 60/1/1 59/1/1 58/1/1
f 61/1/1 59/1/1 60/1/1
f 62/3/2 63/3/2 64/3/2
f 64/3/2 63/3/2 65/3/2
f 66/3/2 67/3/2 68/3/2
f 68/3/2 67/3/2 69/3/2
f 70/1/2 71/1/2 72/1/2
f 72/1/2 71/1/2 73/1/2
f 74/1/2 75/1/2 76/1/2
f 76/1/2 75/1/2 77/1/2
f 78/4/2 79/4/2 80/4/2
f 80/4/2 79/4/2 81/4/2
f 82/3/2 83/3/2 85/3/2
f 85/3/2 83/3/2 86/3/2
f 84/3/2 85/3/2 88/3/2
f 88/3/2 85/3/2 89/3/2
f 86/3/2 87/3/2 90/3/2
f 90/3/2 87/3/2 91/3/2
f 92/1/2 93/1/2 97/1/2
f 97/1/2 93/1/2 98/1/2
f 95/4/2 96/4/2 100/4/2
f 94/4/2 95/4/2 100/4/2
f 99/4/2 100/4/2 101/4/2
f 100/4/2 96/4/2 102/4/2
f 101/4/2 100/4/2 102/4/2
f 103/3/2 104/3/2 106/3/2
f 106/3/2 104/3/2 107/3/2
f 105/3/2 106/3/2 109/3/2
f 109/3/2 106/3/2 110/3/2
f 107/3/2 108/3/2 111/3/2
f 111/3/2 108/3/2 112/3/2
f 113/3/2 114/3/2 115/3/2
f 115/3/2 114/3/2 116/3/2
f 119/1/3 118/1/3 117/1/3
f 120/1/3 118/1/3 119/1/3
f 123/1/3 122/1/3 121/1/3
f 124/1/3 122/1/3 123/1/3
f 127/1/3 126/1/3 125/1/3
f 128/1/3 126/1/3 127/1/3
f 131/3/3 130/3/3 129/3/3
f 132/3/3 130/3/3 131/3/3
f 138/3/3 134/3/3 133/3/3
f 141/2/3 137/2/3 136/2/3
f 141/3/3 136/3/3 135/3/3
f 142/3/3 138/3/3 137/3/3
f 142/2/3 137/2/3 141/2/3
f 143/3/3 134/3/3 138/3/3
f 143/3/3 138/3/3 142/3/3
f 145/4/3 140/4/3 139/4/3
f 146/3/3 142/3/3 141/3/3
f 146/2/3 143/2/3 142/2/3
f 147/3/3 134/3/3 143/3/3
f 147/2/3 143/2/3 146/2/3
f 148/3/3 134/3/3 147/3/3
f 149/4/3 145/4/3 144/4/3
f 150/4/3 140/4/3 145/4/3
f 150/4/3 145/4/3 149/4/3
f 151/3/3 146/3/3 141/3/3
f 151/3/3 141/3/3 135/3/3
f 151/3/3 147/3/3 146/3/3
f 152/2/3 148/2/3 147/2/3
f 152/3/3 147/3/3 151/3/3
f 153/2/3 148/2/3 152/2/3
f 154/4/3 140/4/3 150/4/3
f 155/4/3 140/4/3 154/4/3
f 156/3/3 153/3/3 152/3/3
f 157/3/3 153/3/3 156/3/3
f 161/3/3 159/3/3 158/3/3
f 162/3/3 159/3/3 161/3/3
f 165/3/3 161/3/3 160/3/3
f 166/3/3 161/3/3 165/3/3
f 169/3/3 164/3/3 163/3/3
f 170/3/3 164/3/3 169/3/3
f 171/4/3 168/4/3 167/4/3
f 172/4/3 168/4/3 171/4/3
f 175/4/3 171/4/3 167/4/3
f 176/4/3 171/4/3 175/4/3
f 178/3/3 174/3/3 173/3/3
f 179/3/3 174/3/3 178/3/3
f 181/4/3 177/4/3 176/4/3
f 181/4/3 176/4/3 175/4/3
f 182/4/3 177/4/3 181/4/3
f 183/3/3 180/3/3 179/3/3
f 184/3/3 180/3/3 183/3/3
f 186/3/3 185/3/3 184/3/3
f 187/3/3 185/3/3 186/3/3
f 188/1/4 189/1/4 190/1/4
f 190/1/4 189/1/4 191/1/4
f 192/1/4 193/1/4 194/1/4
f 194/1/4 193/1/4 195/1/4
f 196/1/4 197/1/4 198/1/4
f 198/1/4 197/1/4 199/1/4
f 200/3/4 201/3/4 202/3/4
f 202/3/4 201/3/4 203/3/4
f 204/3/4 205/3/4 207/3/4
f 207/3/4 205/3/4 208/3/4
f 206/3/4 207/3/4 211/3/4
f 211/3/4 207/3/4 212/3/4
f 209/3/4 210/3/4 213/3/4
f 213/3/4 210/3/4 214/3/4
f 215/3/4 216/3/4 217/3/4
f 217/3/4 216/3/4 218/3/4
f 218/3/4 219/3/4 220/3/4
f 220/3/4 219/3/4 221/3/4
f 221/3/4 222/3/4 223/3/4
f 223/3/4 222/3/4 224/3/4
f 225/3/4 226/3/4 230/3/4
f 230/3/4 226/3/4 231/3/4
f 228/2/4 229/2/4 233/2/4
f 227/3/4 228/3/4 233/3/4
f 230/3/4 231/3/4 234/3/4
f 233/2/4 229/2/4 234/2/4
f 229/3/4 230/3/4 234/3/4
f 234/3/4 231/3/4 235/3/4
f 233/3/4 234/3/4 236/3/4
f 234/2/4 235/2/4 236/2/4
f 235/3/4 231/3/4 237/3/4
f 236/2/4 235/2/4 237/2/4
f 231/4/4 232/4/4 238/4/4
f 237/3/4 231/3/4 238/3/4
f 236/3/4 237/3/4 239/3/4
f 227/3/4 233/3/4 239/3/4
f 233/3/4 236/3/4 239/3/4
f 237/2/4 238/2/4 240/2/4
f 239/3/4 237/3/4 240/3/4
f 238/4/4 232/4/4 241/4/4
f 240/2/4 238/2/4 241/2/4
f 241/4/4 232/4/4 242/4/4
f 240/3/4 241/3/4 243/3/4
f 243/3/4 241/3/4 244/3/4
f 249/3/5 246/3/5 245/3/5
f 250/3/5 246/3/5 249/3/5
f 251/3/5 248/3/5 247/3/5
f 252/3/5 248/3/5 251/3/5
f 255/3/5 254/3/5 253/3/5
f 256/3/5 254/3/5 255/3/5
f 257/3/5 254/3/5 256/3/5
f 258/3/5 254/3/5 257/3/5
f 261/3/5 257/3/5 256/3/5
f 262/3/5 257/3/5 261/3/5
f 263/3/5 259/3/5 258/3/5
f 264/3/5 259/3/5 263/3/5
f 265/3/5 262/3/5 261/3/5
f 265/3/5 261/3/5 260/3/5
f 265/3/5 263/3/5 262/3/5
f 266/3/5 263/3/5 265/3/5
f 269/3/5 268/3/5 267/3/5
f 270/3/5 269/3/5 267/3/5
f 271/3/5 269/3/5 270/3/5
f 274/1/5 273/1/5 272/1/5
f 275/1/5 273/1/5 274/1/5
f 278/3/5 277/3/5 276/3/5
f 279/3/5 277/3/5 278/3/5
f 282/1/5 281/1/5 280/1/5
f 283/1/5 281/1/5 282/1/5
f 289/3/5 285/3/5 284/3/5
f 290/3/5 285/3/5 289/3/5
f 291/3/5 287/3/5 286/3/5
f 292/3/5 287/3/5 291/3/5
f 294/3/5 289/3/5 288/3/5
f 295/3/5 289/3/5 294/3/5
f 298/3/5 293/3/5 292/3/5
f 299/3/5 293/3/5 298/3/5
f 300/3/5 296/3/5 295/3/5
f 301/3/5 296/3/5 300/3/5
f 302/3/5 298/3/5 297/3/5
f 303/3/5 298/3/5 302/3/5
f 306/1/5 305/1/5 304/1/5
f 307/1/5 305/1/5 306/1/5
f 310/4/5 309/4/5 308/4/5
f 311/4/5 309/4/5 310/4/5
f 316/4/5 313/4/5 312/4/5
f 317/4/5 313/4/5 316/4/5
f 318/4/5 315/4/5 314/4/5
f 319/4/5 315/4/5 318/4/5
f 320/3/6 321/3/6 322/3/6
f 320/3/6 322/3/6 323/3/6
f 323/3/6 322/3/6 324/3/6
f 325/1/6 326/1/6 327/1/6
f 327/1/6 326/1/6 328/1/6
f 329/1/6 330/1/6 331/1/6
f 331/1/6 330/1/6 332/1/6
f 333/3/6 334/3/6 338/3/6
f 338/3/6 334/3/6 339/3/6
f 334/2/6 335/2/6 340/2/6
f 339/3/6 334/3/6 340/3/6
f 335/3/6 336/3/6 341/3/6
f 340/2/6 335/2/6 341/2/6
f 341/3/6 336/3/6 342/3/6
f 337/3/6 338/3/6 344/3/6
f 338/2/6 339/2/6 345/2/6
f 344/3/6 338/3/6 345/3/6
f 345/2/6 339/2/6 346/2/6
f 341/2/6 342/2/6 347/2/6
f 342/3/6 343/3/6 348/3/6
f 347/2/6 342/2/6 348/2/6
f 348/3/6 343/3/6 349/3/6
f 345/3/6 346/3/6 350/3/6
f 350/3/6 346/3/6 351/3/6
f 347/3/6 348/3/6 352/3/6
f 352/3/6 348/3/6 353/3/6
f 354/1/6 355/1/6 356/1/6
f 356/1/6 355/1/6 357/1/6
f 358/4/6 359/4/6 360/4/6
f 360/4/6 359/4/6 361/4/6
